ISO-10303-21;
HEADER;
FILE_DESCRIPTION((''),'2;1');
FILE_NAME('C-1217754-1','2014-01-21T',('workeradm'),('Tyco Electronics Ltd.'),
'PRO/ENGINEER BY PARAMETRIC TECHNOLOGY CORPORATION, 2013050',
'PRO/ENGINEER BY PARAMETRIC TECHNOLOGY CORPORATION, 2013050','');
FILE_SCHEMA(('AUTOMOTIVE_DESIGN { 1 0 10303 214 1 1 1 1 }'));
ENDSEC;
DATA;
#134=CARTESIAN_POINT('',(-4.0005E-1,0.E0,-4.5212E0));
#135=DIRECTION('',(-1.E0,0.E0,0.E0));
#136=DIRECTION('',(0.E0,0.E0,-1.E0));
#137=AXIS2_PLACEMENT_3D('',#134,#135,#136);
#139=CARTESIAN_POINT('',(-4.0005E-1,0.E0,-4.5212E0));
#140=DIRECTION('',(-1.E0,0.E0,0.E0));
#141=DIRECTION('',(0.E0,0.E0,1.E0));
#142=AXIS2_PLACEMENT_3D('',#139,#140,#141);
#144=DIRECTION('',(0.E0,-1.E0,0.E0));
#145=VECTOR('',#144,6.002494776449E0);
#146=CARTESIAN_POINT('',(-4.0005E-1,3.048E0,-1.9431E1));
#147=LINE('',#146,#145);
#148=DIRECTION('',(0.E0,7.071067811866E-1,7.071067811865E-1));
#149=VECTOR('',#148,1.796051224214E-1);
#150=CARTESIAN_POINT('',(-4.0005E-1,3.048E0,-1.9431E1));
#151=LINE('',#150,#149);
#152=DIRECTION('',(0.E0,0.E0,1.E0));
#153=VECTOR('',#152,1.8288E1);
#154=CARTESIAN_POINT('',(-4.0005E-1,3.175E0,-1.9304E1));
#155=LINE('',#154,#153);
#156=DIRECTION('',(0.E0,1.E0,0.E0));
#157=VECTOR('',#156,6.35E0);
#158=CARTESIAN_POINT('',(-4.0005E-1,-3.175E0,-1.016E0));
#159=LINE('',#158,#157);
#160=DIRECTION('',(0.E0,0.E0,-1.E0));
#161=VECTOR('',#160,6.9088E0);
#162=CARTESIAN_POINT('',(-4.0005E-1,-3.175E0,-1.016E0));
#163=LINE('',#162,#161);
#164=DIRECTION('',(0.E0,-1.E0,0.E0));
#165=VECTOR('',#164,7.62E-1);
#166=CARTESIAN_POINT('',(-4.0005E-1,-3.175E0,-7.9248E0));
#167=LINE('',#166,#165);
#168=DIRECTION('',(0.E0,0.E0,-1.E0));
#169=VECTOR('',#168,5.2832E0);
#170=CARTESIAN_POINT('',(-4.0005E-1,-3.937E0,-7.9248E0));
#171=LINE('',#170,#169);
#172=DIRECTION('',(0.E0,-1.E0,0.E0));
#173=VECTOR('',#172,1.778E0);
#174=CARTESIAN_POINT('',(-4.0005E-1,-3.937E0,-1.3208E1));
#175=LINE('',#174,#173);
#176=DIRECTION('',(0.E0,0.E0,-1.E0));
#177=VECTOR('',#176,6.477E-1);
#178=CARTESIAN_POINT('',(-4.0005E-1,-5.715E0,-1.3208E1));
#179=LINE('',#178,#177);
#180=DIRECTION('',(0.E0,-1.E0,0.E0));
#181=VECTOR('',#180,1.524E0);
#182=CARTESIAN_POINT('',(-4.0005E-1,-5.715E0,-1.38557E1));
#183=LINE('',#182,#181);
#184=DIRECTION('',(0.E0,-9.932070746006E-1,-1.163602464905E-1));
#185=VECTOR('',#184,2.019160384119E0);
#186=CARTESIAN_POINT('',(-4.0005E-1,-7.239E0,-1.38557E1));
#187=LINE('',#186,#185);
#188=CARTESIAN_POINT('',(-4.0005E-1,-9.2075E0,-1.440599324619E1));
#189=DIRECTION('',(1.E0,0.E0,0.E0));
#190=DIRECTION('',(0.E0,-1.163602464905E-1,9.932070746006E-1));
#191=AXIS2_PLACEMENT_3D('',#188,#189,#190);
#193=DIRECTION('',(0.E0,0.E0,-1.E0));
#194=VECTOR('',#193,1.059135076286E-1);
#195=CARTESIAN_POINT('',(-4.0005E-1,-9.525E0,-1.440599324619E1));
#196=LINE('',#195,#194);
#197=CARTESIAN_POINT('',(-4.0005E-1,-9.2075E0,-1.451190675381E1));
#198=DIRECTION('',(1.E0,0.E0,0.E0));
#199=DIRECTION('',(0.E0,-1.E0,0.E0));
#200=AXIS2_PLACEMENT_3D('',#197,#198,#199);
#202=DIRECTION('',(0.E0,9.932070746006E-1,-1.163602464905E-1));
#203=VECTOR('',#202,2.019160384119E0);
#204=CARTESIAN_POINT('',(-4.0005E-1,-9.244444378261E0,-1.482725E1));
#205=LINE('',#204,#203);
#206=DIRECTION('',(0.E0,1.E0,0.E0));
#207=VECTOR('',#206,1.524E0);
#208=CARTESIAN_POINT('',(-4.0005E-1,-7.239E0,-1.50622E1));
#209=LINE('',#208,#207);
#210=DIRECTION('',(0.E0,0.E0,-1.E0));
#211=VECTOR('',#210,3.8735E0);
#212=CARTESIAN_POINT('',(-4.0005E-1,-5.715E0,-1.50622E1));
#213=LINE('',#212,#211);
#214=DIRECTION('',(0.E0,-1.E0,0.E0));
#215=VECTOR('',#214,1.524E0);
#216=CARTESIAN_POINT('',(-4.0005E-1,-5.715E0,-1.89357E1));
#217=LINE('',#216,#215);
#218=DIRECTION('',(0.E0,-9.932070746006E-1,-1.163602464905E-1));
#219=VECTOR('',#218,2.019160384120E0);
#220=CARTESIAN_POINT('',(-4.0005E-1,-7.239E0,-1.89357E1));
#221=LINE('',#220,#219);
#222=CARTESIAN_POINT('',(-4.0005E-1,-9.2075E0,-1.948599324619E1));
#223=DIRECTION('',(1.E0,0.E0,0.E0));
#224=DIRECTION('',(0.E0,-1.163602464906E-1,9.932070746006E-1));
#225=AXIS2_PLACEMENT_3D('',#222,#223,#224);
#227=DIRECTION('',(0.E0,0.E0,-1.E0));
#228=VECTOR('',#227,1.059135076286E-1);
#229=CARTESIAN_POINT('',(-4.0005E-1,-9.525E0,-1.948599324619E1));
#230=LINE('',#229,#228);
#231=CARTESIAN_POINT('',(-4.0005E-1,-9.2075E0,-1.959190675381E1));
#232=DIRECTION('',(1.E0,0.E0,0.E0));
#233=DIRECTION('',(0.E0,-1.E0,0.E0));
#234=AXIS2_PLACEMENT_3D('',#231,#232,#233);
#236=DIRECTION('',(0.E0,9.932070746006E-1,-1.163602464905E-1));
#237=VECTOR('',#236,2.019160384119E0);
#238=CARTESIAN_POINT('',(-4.0005E-1,-9.244444378261E0,-1.990725E1));
#239=LINE('',#238,#237);
#240=DIRECTION('',(0.E0,1.E0,0.E0));
#241=VECTOR('',#240,3.120589755157E0);
#242=CARTESIAN_POINT('',(-4.0005E-1,-7.239E0,-2.01422E1));
#243=LINE('',#242,#241);
#244=DIRECTION('',(0.E0,7.071067811865E-1,7.071067811866E-1));
#245=VECTOR('',#244,1.080183563138E0);
#246=CARTESIAN_POINT('',(-4.0005E-1,-4.118410244843E0,-2.01422E1));
#247=LINE('',#246,#245);
#248=CARTESIAN_POINT('',(-4.0005E-1,-3.175E0,-1.9558E1));
#249=DIRECTION('',(-1.E0,0.E0,0.E0));
#250=DIRECTION('',(0.E0,-7.071067811865E-1,7.071067811866E-1));
#251=AXIS2_PLACEMENT_3D('',#248,#249,#250);
#253=DIRECTION('',(0.E0,5.504464120509E-1,-8.348704974188E-1));
#254=VECTOR('',#253,1.534775596998E-2);
#255=CARTESIAN_POINT('',(-4.0005E-1,-2.962942893656E0,-1.941818661134E1));
#256=LINE('',#255,#254);
#257=DIRECTION('',(1.E0,0.E0,0.E0));
#258=VECTOR('',#257,8.001E-1);
#259=CARTESIAN_POINT('',(-4.0005E-1,0.E0,-5.4102E0));
#260=LINE('',#259,#258);
#261=DIRECTION('',(1.E0,0.E0,0.E0));
#262=VECTOR('',#261,8.001E-1);
#263=CARTESIAN_POINT('',(-4.0005E-1,0.E0,-3.6322E0));
#264=LINE('',#263,#262);
#265=CARTESIAN_POINT('',(4.0005E-1,0.E0,-4.5212E0));
#266=DIRECTION('',(-1.E0,0.E0,0.E0));
#267=DIRECTION('',(0.E0,0.E0,-1.E0));
#268=AXIS2_PLACEMENT_3D('',#265,#266,#267);
#270=CARTESIAN_POINT('',(4.0005E-1,0.E0,-4.5212E0));
#271=DIRECTION('',(-1.E0,0.E0,0.E0));
#272=DIRECTION('',(0.E0,0.E0,1.E0));
#273=AXIS2_PLACEMENT_3D('',#270,#271,#272);
#275=DIRECTION('',(0.E0,1.E0,0.E0));
#276=VECTOR('',#275,6.002494776449E0);
#277=CARTESIAN_POINT('',(4.0005E-1,-2.954494776449E0,-1.9431E1));
#278=LINE('',#277,#276);
#279=DIRECTION('',(0.E0,5.504464120509E-1,-8.348704974188E-1));
#280=VECTOR('',#279,1.534775596998E-2);
#281=CARTESIAN_POINT('',(4.0005E-1,-2.962942893656E0,-1.941818661134E1));
#282=LINE('',#281,#280);
#283=CARTESIAN_POINT('',(4.0005E-1,-3.175E0,-1.9558E1));
#284=DIRECTION('',(-1.E0,0.E0,0.E0));
#285=DIRECTION('',(0.E0,-7.071067811865E-1,7.071067811866E-1));
#286=AXIS2_PLACEMENT_3D('',#283,#284,#285);
#288=DIRECTION('',(0.E0,7.071067811865E-1,7.071067811866E-1));
#289=VECTOR('',#288,1.080183563138E0);
#290=CARTESIAN_POINT('',(4.0005E-1,-4.118410244843E0,-2.01422E1));
#291=LINE('',#290,#289);
#292=DIRECTION('',(0.E0,1.E0,0.E0));
#293=VECTOR('',#292,3.120589755157E0);
#294=CARTESIAN_POINT('',(4.0005E-1,-7.239E0,-2.01422E1));
#295=LINE('',#294,#293);
#296=DIRECTION('',(0.E0,9.932070746006E-1,-1.163602464905E-1));
#297=VECTOR('',#296,2.019160384119E0);
#298=CARTESIAN_POINT('',(4.0005E-1,-9.244444378261E0,-1.990725E1));
#299=LINE('',#298,#297);
#300=CARTESIAN_POINT('',(4.0005E-1,-9.2075E0,-1.959190675381E1));
#301=DIRECTION('',(1.E0,0.E0,0.E0));
#302=DIRECTION('',(0.E0,-1.E0,0.E0));
#303=AXIS2_PLACEMENT_3D('',#300,#301,#302);
#305=DIRECTION('',(0.E0,0.E0,-1.E0));
#306=VECTOR('',#305,1.059135076286E-1);
#307=CARTESIAN_POINT('',(4.0005E-1,-9.525E0,-1.948599324619E1));
#308=LINE('',#307,#306);
#309=CARTESIAN_POINT('',(4.0005E-1,-9.2075E0,-1.948599324619E1));
#310=DIRECTION('',(1.E0,0.E0,0.E0));
#311=DIRECTION('',(0.E0,-1.163602464906E-1,9.932070746006E-1));
#312=AXIS2_PLACEMENT_3D('',#309,#310,#311);
#314=DIRECTION('',(0.E0,-9.932070746006E-1,-1.163602464905E-1));
#315=VECTOR('',#314,2.019160384120E0);
#316=CARTESIAN_POINT('',(4.0005E-1,-7.239E0,-1.89357E1));
#317=LINE('',#316,#315);
#318=DIRECTION('',(0.E0,-1.E0,0.E0));
#319=VECTOR('',#318,1.524E0);
#320=CARTESIAN_POINT('',(4.0005E-1,-5.715E0,-1.89357E1));
#321=LINE('',#320,#319);
#322=DIRECTION('',(0.E0,0.E0,-1.E0));
#323=VECTOR('',#322,3.8735E0);
#324=CARTESIAN_POINT('',(4.0005E-1,-5.715E0,-1.50622E1));
#325=LINE('',#324,#323);
#326=DIRECTION('',(0.E0,1.E0,0.E0));
#327=VECTOR('',#326,1.524E0);
#328=CARTESIAN_POINT('',(4.0005E-1,-7.239E0,-1.50622E1));
#329=LINE('',#328,#327);
#330=DIRECTION('',(0.E0,9.932070746006E-1,-1.163602464905E-1));
#331=VECTOR('',#330,2.019160384119E0);
#332=CARTESIAN_POINT('',(4.0005E-1,-9.244444378261E0,-1.482725E1));
#333=LINE('',#332,#331);
#334=CARTESIAN_POINT('',(4.0005E-1,-9.2075E0,-1.451190675381E1));
#335=DIRECTION('',(1.E0,0.E0,0.E0));
#336=DIRECTION('',(0.E0,-1.E0,0.E0));
#337=AXIS2_PLACEMENT_3D('',#334,#335,#336);
#339=DIRECTION('',(0.E0,0.E0,-1.E0));
#340=VECTOR('',#339,1.059135076286E-1);
#341=CARTESIAN_POINT('',(4.0005E-1,-9.525E0,-1.440599324619E1));
#342=LINE('',#341,#340);
#343=CARTESIAN_POINT('',(4.0005E-1,-9.2075E0,-1.440599324619E1));
#344=DIRECTION('',(1.E0,0.E0,0.E0));
#345=DIRECTION('',(0.E0,-1.163602464905E-1,9.932070746006E-1));
#346=AXIS2_PLACEMENT_3D('',#343,#344,#345);
#348=DIRECTION('',(0.E0,-9.932070746006E-1,-1.163602464905E-1));
#349=VECTOR('',#348,2.019160384119E0);
#350=CARTESIAN_POINT('',(4.0005E-1,-7.239E0,-1.38557E1));
#351=LINE('',#350,#349);
#352=DIRECTION('',(0.E0,-1.E0,0.E0));
#353=VECTOR('',#352,1.524E0);
#354=CARTESIAN_POINT('',(4.0005E-1,-5.715E0,-1.38557E1));
#355=LINE('',#354,#353);
#356=DIRECTION('',(0.E0,0.E0,-1.E0));
#357=VECTOR('',#356,6.477E-1);
#358=CARTESIAN_POINT('',(4.0005E-1,-5.715E0,-1.3208E1));
#359=LINE('',#358,#357);
#360=DIRECTION('',(0.E0,-1.E0,0.E0));
#361=VECTOR('',#360,1.778E0);
#362=CARTESIAN_POINT('',(4.0005E-1,-3.937E0,-1.3208E1));
#363=LINE('',#362,#361);
#364=DIRECTION('',(0.E0,0.E0,-1.E0));
#365=VECTOR('',#364,5.2832E0);
#366=CARTESIAN_POINT('',(4.0005E-1,-3.937E0,-7.9248E0));
#367=LINE('',#366,#365);
#368=DIRECTION('',(0.E0,-1.E0,0.E0));
#369=VECTOR('',#368,7.62E-1);
#370=CARTESIAN_POINT('',(4.0005E-1,-3.175E0,-7.9248E0));
#371=LINE('',#370,#369);
#372=DIRECTION('',(0.E0,0.E0,-1.E0));
#373=VECTOR('',#372,6.9088E0);
#374=CARTESIAN_POINT('',(4.0005E-1,-3.175E0,-1.016E0));
#375=LINE('',#374,#373);
#376=DIRECTION('',(0.E0,-1.E0,0.E0));
#377=VECTOR('',#376,6.35E0);
#378=CARTESIAN_POINT('',(4.0005E-1,3.175E0,-1.016E0));
#379=LINE('',#378,#377);
#380=DIRECTION('',(0.E0,0.E0,1.E0));
#381=VECTOR('',#380,1.8288E1);
#382=CARTESIAN_POINT('',(4.0005E-1,3.175E0,-1.9304E1));
#383=LINE('',#382,#381);
#384=DIRECTION('',(0.E0,7.071067811866E-1,7.071067811865E-1));
#385=VECTOR('',#384,1.796051224214E-1);
#386=CARTESIAN_POINT('',(4.0005E-1,3.048E0,-1.9431E1));
#387=LINE('',#386,#385);
#388=DIRECTION('',(0.E0,-1.E0,0.E0));
#389=VECTOR('',#388,4.527359726970E0);
#390=CARTESIAN_POINT('',(-3.066123348488E-1,2.159E0,-2.032E1));
#391=LINE('',#390,#389);
#392=DIRECTION('',(1.E0,0.E0,0.E0));
#393=VECTOR('',#392,6.132246696976E-1);
#394=CARTESIAN_POINT('',(-3.066123348488E-1,-2.368359726970E0,-2.032E1));
#395=LINE('',#394,#393);
#396=DIRECTION('',(0.E0,1.E0,0.E0));
#397=VECTOR('',#396,4.527359726970E0);
#398=CARTESIAN_POINT('',(3.066123348488E-1,-2.368359726970E0,-2.032E1));
#399=LINE('',#398,#397);
#400=DIRECTION('',(8.741254155812E-2,5.483394120386E-1,-8.316747782538E-1));
#401=VECTOR('',#400,1.068927450062E0);
#402=CARTESIAN_POINT('',(-4.0005E-1,-2.954494776449E0,-1.9431E1));
#403=LINE('',#402,#401);
#404=DIRECTION('',(1.E0,0.E0,0.E0));
#405=VECTOR('',#404,8.001E-1);
#406=CARTESIAN_POINT('',(-4.0005E-1,-2.962942893656E0,-1.941818661134E1));
#407=LINE('',#406,#405);
#408=DIRECTION('',(8.741254155812E-2,-5.483394120386E-1,8.316747782538E-1));
#409=VECTOR('',#408,1.068927450062E0);
#410=CARTESIAN_POINT('',(3.066123348488E-1,-2.368359726970E0,-2.032E1));
#411=LINE('',#410,#409);
#412=DIRECTION('',(1.E0,0.E0,0.E0));
#413=VECTOR('',#412,8.001E-1);
#414=CARTESIAN_POINT('',(-4.0005E-1,-3.354605122421E0,-1.937839487758E1));
#415=LINE('',#414,#413);
#416=DIRECTION('',(1.E0,0.E0,0.E0));
#417=VECTOR('',#416,8.001E-1);
#418=CARTESIAN_POINT('',(-4.0005E-1,-4.118410244843E0,-2.01422E1));
#419=LINE('',#418,#417);
#420=DIRECTION('',(1.E0,0.E0,0.E0));
#421=VECTOR('',#420,8.001E-1);
#422=CARTESIAN_POINT('',(-4.0005E-1,-7.239E0,-2.01422E1));
#423=LINE('',#422,#421);
#424=DIRECTION('',(1.E0,0.E0,0.E0));
#425=VECTOR('',#424,8.001E-1);
#426=CARTESIAN_POINT('',(-4.0005E-1,-9.244444378261E0,-1.990725E1));
#427=LINE('',#426,#425);
#428=DIRECTION('',(1.E0,0.E0,0.E0));
#429=VECTOR('',#428,8.001E-1);
#430=CARTESIAN_POINT('',(-4.0005E-1,-9.525E0,-1.959190675381E1));
#431=LINE('',#430,#429);
#432=DIRECTION('',(1.E0,0.E0,0.E0));
#433=VECTOR('',#432,8.001E-1);
#434=CARTESIAN_POINT('',(-4.0005E-1,-9.525E0,-1.948599324619E1));
#435=LINE('',#434,#433);
#436=DIRECTION('',(1.E0,0.E0,0.E0));
#437=VECTOR('',#436,8.001E-1);
#438=CARTESIAN_POINT('',(-4.0005E-1,-9.244444378261E0,-1.917065E1));
#439=LINE('',#438,#437);
#440=DIRECTION('',(1.E0,0.E0,0.E0));
#441=VECTOR('',#440,8.001E-1);
#442=CARTESIAN_POINT('',(-4.0005E-1,-7.239E0,-1.89357E1));
#443=LINE('',#442,#441);
#444=DIRECTION('',(1.E0,0.E0,0.E0));
#445=VECTOR('',#444,8.001E-1);
#446=CARTESIAN_POINT('',(-4.0005E-1,-5.715E0,-1.89357E1));
#447=LINE('',#446,#445);
#448=DIRECTION('',(1.E0,0.E0,0.E0));
#449=VECTOR('',#448,8.001E-1);
#450=CARTESIAN_POINT('',(-4.0005E-1,-5.715E0,-1.50622E1));
#451=LINE('',#450,#449);
#452=DIRECTION('',(1.E0,0.E0,0.E0));
#453=VECTOR('',#452,8.001E-1);
#454=CARTESIAN_POINT('',(-4.0005E-1,-7.239E0,-1.50622E1));
#455=LINE('',#454,#453);
#456=DIRECTION('',(1.E0,0.E0,0.E0));
#457=VECTOR('',#456,8.001E-1);
#458=CARTESIAN_POINT('',(-4.0005E-1,-9.244444378261E0,-1.482725E1));
#459=LINE('',#458,#457);
#460=DIRECTION('',(1.E0,0.E0,0.E0));
#461=VECTOR('',#460,8.001E-1);
#462=CARTESIAN_POINT('',(-4.0005E-1,-9.525E0,-1.451190675381E1));
#463=LINE('',#462,#461);
#464=DIRECTION('',(1.E0,0.E0,0.E0));
#465=VECTOR('',#464,8.001E-1);
#466=CARTESIAN_POINT('',(-4.0005E-1,-9.525E0,-1.440599324619E1));
#467=LINE('',#466,#465);
#468=DIRECTION('',(1.E0,0.E0,0.E0));
#469=VECTOR('',#468,8.001E-1);
#470=CARTESIAN_POINT('',(-4.0005E-1,-9.244444378261E0,-1.409065E1));
#471=LINE('',#470,#469);
#472=DIRECTION('',(1.E0,0.E0,0.E0));
#473=VECTOR('',#472,8.001E-1);
#474=CARTESIAN_POINT('',(-4.0005E-1,-7.239E0,-1.38557E1));
#475=LINE('',#474,#473);
#476=DIRECTION('',(1.E0,0.E0,0.E0));
#477=VECTOR('',#476,8.001E-1);
#478=CARTESIAN_POINT('',(-4.0005E-1,-5.715E0,-1.38557E1));
#479=LINE('',#478,#477);
#480=DIRECTION('',(1.E0,0.E0,0.E0));
#481=VECTOR('',#480,8.001E-1);
#482=CARTESIAN_POINT('',(-4.0005E-1,-5.715E0,-1.3208E1));
#483=LINE('',#482,#481);
#484=DIRECTION('',(1.E0,0.E0,0.E0));
#485=VECTOR('',#484,8.001E-1);
#486=CARTESIAN_POINT('',(-4.0005E-1,-3.937E0,-1.3208E1));
#487=LINE('',#486,#485);
#488=DIRECTION('',(1.E0,0.E0,0.E0));
#489=VECTOR('',#488,8.001E-1);
#490=CARTESIAN_POINT('',(-4.0005E-1,-3.937E0,-7.9248E0));
#491=LINE('',#490,#489);
#492=DIRECTION('',(1.E0,0.E0,0.E0));
#493=VECTOR('',#492,8.001E-1);
#494=CARTESIAN_POINT('',(-4.0005E-1,-3.175E0,-7.9248E0));
#495=LINE('',#494,#493);
#496=DIRECTION('',(1.E0,0.E0,0.E0));
#497=VECTOR('',#496,8.001E-1);
#498=CARTESIAN_POINT('',(-4.0005E-1,-3.175E0,-1.016E0));
#499=LINE('',#498,#497);
#500=DIRECTION('',(-7.411551268475E-2,7.051619993943E-1,7.051619993943E-1));
#501=VECTOR('',#500,1.440803674720E0);
#502=CARTESIAN_POINT('',(4.0005E-1,-3.175E0,-1.016E0));
#503=LINE('',#502,#501);
#504=DIRECTION('',(-7.411551268475E-2,-7.051619993943E-1,-7.051619993943E-1));
#505=VECTOR('',#504,1.440803674720E0);
#506=CARTESIAN_POINT('',(-2.932640969701E-1,-2.159E0,0.E0));
#507=LINE('',#506,#505);
#508=DIRECTION('',(1.E0,0.E0,0.E0));
#509=VECTOR('',#508,5.865281939401E-1);
#510=CARTESIAN_POINT('',(-2.932640969701E-1,-2.159E0,0.E0));
#511=LINE('',#510,#509);
#512=DIRECTION('',(0.E0,-1.E0,0.E0));
#513=VECTOR('',#512,4.318E0);
#514=CARTESIAN_POINT('',(2.932640969701E-1,2.159E0,0.E0));
#515=LINE('',#514,#513);
#516=DIRECTION('',(0.E0,1.E0,0.E0));
#517=VECTOR('',#516,4.318E0);
#518=CARTESIAN_POINT('',(-2.932640969701E-1,-2.159E0,0.E0));
#519=LINE('',#518,#517);
#520=DIRECTION('',(1.E0,0.E0,0.E0));
#521=VECTOR('',#520,5.865281939401E-1);
#522=CARTESIAN_POINT('',(-2.932640969701E-1,2.159E0,0.E0));
#523=LINE('',#522,#521);
#524=DIRECTION('',(7.411551268475E-2,7.051619993943E-1,-7.051619993943E-1));
#525=VECTOR('',#524,1.440803674720E0);
#526=CARTESIAN_POINT('',(2.932640969701E-1,2.159E0,0.E0));
#527=LINE('',#526,#525);
#528=DIRECTION('',(7.411551268475E-2,-7.051619993943E-1,7.051619993943E-1));
#529=VECTOR('',#528,1.440803674720E0);
#530=CARTESIAN_POINT('',(-4.0005E-1,3.175E0,-1.016E0));
#531=LINE('',#530,#529);
#532=DIRECTION('',(1.E0,0.E0,0.E0));
#533=VECTOR('',#532,8.001E-1);
#534=CARTESIAN_POINT('',(-4.0005E-1,3.175E0,-1.016E0));
#535=LINE('',#534,#533);
#536=DIRECTION('',(1.E0,0.E0,0.E0));
#537=VECTOR('',#536,8.001E-1);
#538=CARTESIAN_POINT('',(-4.0005E-1,3.175E0,-1.9304E1));
#539=LINE('',#538,#537);
#540=DIRECTION('',(-7.411551268475E-2,7.051619993943E-1,7.051619993943E-1));
#541=VECTOR('',#540,1.260703215380E0);
#542=CARTESIAN_POINT('',(-3.066123348488E-1,2.159E0,-2.032E1));
#543=LINE('',#542,#541);
#544=DIRECTION('',(1.E0,0.E0,0.E0));
#545=VECTOR('',#544,6.132246696976E-1);
#546=CARTESIAN_POINT('',(-3.066123348488E-1,2.159E0,-2.032E1));
#547=LINE('',#546,#545);
#548=DIRECTION('',(-7.411551268475E-2,-7.051619993943E-1,-7.051619993943E-1));
#549=VECTOR('',#548,1.260703215380E0);
#550=CARTESIAN_POINT('',(4.0005E-1,3.048E0,-1.9431E1));
#551=LINE('',#550,#549);
#552=CARTESIAN_POINT('',(-4.0005E-1,-3.175E0,-7.9248E0));
#553=CARTESIAN_POINT('',(-4.0005E-1,-3.937E0,-7.9248E0));
#554=VERTEX_POINT('',#552);
#555=VERTEX_POINT('',#553);
#556=CARTESIAN_POINT('',(-4.0005E-1,-3.937E0,-1.3208E1));
#557=VERTEX_POINT('',#556);
#558=CARTESIAN_POINT('',(-4.0005E-1,-5.715E0,-1.3208E1));
#559=VERTEX_POINT('',#558);
#560=CARTESIAN_POINT('',(-4.0005E-1,-5.715E0,-1.38557E1));
#561=VERTEX_POINT('',#560);
#562=CARTESIAN_POINT('',(-4.0005E-1,-7.239E0,-1.38557E1));
#563=VERTEX_POINT('',#562);
#564=CARTESIAN_POINT('',(-4.0005E-1,-9.525E0,-1.440599324619E1));
#565=CARTESIAN_POINT('',(-4.0005E-1,-9.525E0,-1.451190675381E1));
#566=VERTEX_POINT('',#564);
#567=VERTEX_POINT('',#565);
#568=CARTESIAN_POINT('',(-4.0005E-1,-7.239E0,-1.50622E1));
#569=CARTESIAN_POINT('',(-4.0005E-1,-5.715E0,-1.50622E1));
#570=VERTEX_POINT('',#568);
#571=VERTEX_POINT('',#569);
#572=CARTESIAN_POINT('',(-4.0005E-1,-5.715E0,-1.89357E1));
#573=VERTEX_POINT('',#572);
#574=CARTESIAN_POINT('',(-4.0005E-1,-7.239E0,-1.89357E1));
#575=VERTEX_POINT('',#574);
#576=CARTESIAN_POINT('',(4.0005E-1,-3.175E0,-7.9248E0));
#577=CARTESIAN_POINT('',(4.0005E-1,-3.937E0,-7.9248E0));
#578=VERTEX_POINT('',#576);
#579=VERTEX_POINT('',#577);
#580=CARTESIAN_POINT('',(4.0005E-1,-3.937E0,-1.3208E1));
#581=VERTEX_POINT('',#580);
#582=CARTESIAN_POINT('',(4.0005E-1,-5.715E0,-1.3208E1));
#583=VERTEX_POINT('',#582);
#584=CARTESIAN_POINT('',(4.0005E-1,-5.715E0,-1.38557E1));
#585=VERTEX_POINT('',#584);
#586=CARTESIAN_POINT('',(4.0005E-1,-7.239E0,-1.38557E1));
#587=VERTEX_POINT('',#586);
#588=CARTESIAN_POINT('',(4.0005E-1,-9.525E0,-1.440599324619E1));
#589=CARTESIAN_POINT('',(4.0005E-1,-9.525E0,-1.451190675381E1));
#590=VERTEX_POINT('',#588);
#591=VERTEX_POINT('',#589);
#592=CARTESIAN_POINT('',(4.0005E-1,-7.239E0,-1.50622E1));
#593=CARTESIAN_POINT('',(4.0005E-1,-5.715E0,-1.50622E1));
#594=VERTEX_POINT('',#592);
#595=VERTEX_POINT('',#593);
#596=CARTESIAN_POINT('',(4.0005E-1,-5.715E0,-1.89357E1));
#597=VERTEX_POINT('',#596);
#598=CARTESIAN_POINT('',(4.0005E-1,-7.239E0,-1.89357E1));
#599=VERTEX_POINT('',#598);
#600=CARTESIAN_POINT('',(-4.0005E-1,0.E0,-5.4102E0));
#601=CARTESIAN_POINT('',(-4.0005E-1,0.E0,-3.6322E0));
#602=VERTEX_POINT('',#600);
#603=VERTEX_POINT('',#601);
#604=CARTESIAN_POINT('',(-4.0005E-1,-9.244444378261E0,-1.409065E1));
#605=VERTEX_POINT('',#604);
#606=CARTESIAN_POINT('',(-4.0005E-1,-9.244444378261E0,-1.482725E1));
#607=VERTEX_POINT('',#606);
#608=CARTESIAN_POINT('',(-4.0005E-1,-9.244444378261E0,-1.917065E1));
#609=VERTEX_POINT('',#608);
#610=CARTESIAN_POINT('',(-4.0005E-1,-9.244444378261E0,-1.990725E1));
#611=CARTESIAN_POINT('',(-4.0005E-1,-7.239E0,-2.01422E1));
#612=VERTEX_POINT('',#610);
#613=VERTEX_POINT('',#611);
#614=CARTESIAN_POINT('',(4.0005E-1,0.E0,-5.4102E0));
#615=CARTESIAN_POINT('',(4.0005E-1,0.E0,-3.6322E0));
#616=VERTEX_POINT('',#614);
#617=VERTEX_POINT('',#615);
#618=CARTESIAN_POINT('',(4.0005E-1,-9.244444378261E0,-1.409065E1));
#619=VERTEX_POINT('',#618);
#620=CARTESIAN_POINT('',(4.0005E-1,-9.244444378261E0,-1.482725E1));
#621=VERTEX_POINT('',#620);
#622=CARTESIAN_POINT('',(4.0005E-1,-9.244444378261E0,-1.917065E1));
#623=VERTEX_POINT('',#622);
#624=CARTESIAN_POINT('',(4.0005E-1,-9.244444378261E0,-1.990725E1));
#625=CARTESIAN_POINT('',(4.0005E-1,-7.239E0,-2.01422E1));
#626=VERTEX_POINT('',#624);
#627=VERTEX_POINT('',#625);
#628=CARTESIAN_POINT('',(-4.0005E-1,-4.118410244843E0,-2.01422E1));
#629=VERTEX_POINT('',#628);
#630=CARTESIAN_POINT('',(-4.0005E-1,-3.354605122421E0,-1.937839487758E1));
#631=VERTEX_POINT('',#630);
#632=CARTESIAN_POINT('',(-4.0005E-1,-2.962942893656E0,-1.941818661134E1));
#633=VERTEX_POINT('',#632);
#634=CARTESIAN_POINT('',(4.0005E-1,-4.118410244843E0,-2.01422E1));
#635=VERTEX_POINT('',#634);
#636=CARTESIAN_POINT('',(4.0005E-1,-3.354605122421E0,-1.937839487758E1));
#637=VERTEX_POINT('',#636);
#638=CARTESIAN_POINT('',(4.0005E-1,-2.962942893656E0,-1.941818661134E1));
#639=VERTEX_POINT('',#638);
#640=CARTESIAN_POINT('',(-4.0005E-1,-9.525E0,-1.948599324619E1));
#641=VERTEX_POINT('',#640);
#642=CARTESIAN_POINT('',(-4.0005E-1,-9.525E0,-1.959190675381E1));
#643=VERTEX_POINT('',#642);
#644=CARTESIAN_POINT('',(4.0005E-1,-9.525E0,-1.948599324619E1));
#645=VERTEX_POINT('',#644);
#646=CARTESIAN_POINT('',(4.0005E-1,-9.525E0,-1.959190675381E1));
#647=VERTEX_POINT('',#646);
#648=CARTESIAN_POINT('',(-4.0005E-1,-2.954494776449E0,-1.9431E1));
#649=CARTESIAN_POINT('',(-3.066123348488E-1,-2.368359726970E0,-2.032E1));
#650=VERTEX_POINT('',#648);
#651=VERTEX_POINT('',#649);
#652=CARTESIAN_POINT('',(-3.066123348488E-1,2.159E0,-2.032E1));
#653=VERTEX_POINT('',#652);
#654=CARTESIAN_POINT('',(-4.0005E-1,3.048E0,-1.9431E1));
#655=VERTEX_POINT('',#654);
#656=CARTESIAN_POINT('',(3.066123348488E-1,-2.368359726970E0,-2.032E1));
#657=CARTESIAN_POINT('',(3.066123348488E-1,2.159E0,-2.032E1));
#658=VERTEX_POINT('',#656);
#659=VERTEX_POINT('',#657);
#660=CARTESIAN_POINT('',(4.0005E-1,-2.954494776449E0,-1.9431E1));
#661=VERTEX_POINT('',#660);
#662=CARTESIAN_POINT('',(4.0005E-1,3.048E0,-1.9431E1));
#663=VERTEX_POINT('',#662);
#664=CARTESIAN_POINT('',(-4.0005E-1,3.175E0,-1.9304E1));
#665=CARTESIAN_POINT('',(-4.0005E-1,3.175E0,-1.016E0));
#666=VERTEX_POINT('',#664);
#667=VERTEX_POINT('',#665);
#668=CARTESIAN_POINT('',(4.0005E-1,3.175E0,-1.9304E1));
#669=CARTESIAN_POINT('',(4.0005E-1,3.175E0,-1.016E0));
#670=VERTEX_POINT('',#668);
#671=VERTEX_POINT('',#669);
#672=CARTESIAN_POINT('',(4.0005E-1,-3.175E0,-1.016E0));
#673=CARTESIAN_POINT('',(2.932640969701E-1,-2.159E0,0.E0));
#674=VERTEX_POINT('',#672);
#675=VERTEX_POINT('',#673);
#676=CARTESIAN_POINT('',(2.932640969701E-1,2.159E0,0.E0));
#677=VERTEX_POINT('',#676);
#678=CARTESIAN_POINT('',(-2.932640969701E-1,2.159E0,0.E0));
#679=VERTEX_POINT('',#678);
#680=CARTESIAN_POINT('',(-2.932640969701E-1,-2.159E0,0.E0));
#681=VERTEX_POINT('',#680);
#682=CARTESIAN_POINT('',(-4.0005E-1,-3.175E0,-1.016E0));
#683=VERTEX_POINT('',#682);
#684=CARTESIAN_POINT('',(-4.0005E-1,0.E0,0.E0));
#685=DIRECTION('',(1.E0,0.E0,0.E0));
#686=DIRECTION('',(0.E0,0.E0,-1.E0));
#687=AXIS2_PLACEMENT_3D('',#684,#685,#686);
#688=PLANE('',#687);
#690=ORIENTED_EDGE('',*,*,#689,.F.);
#692=ORIENTED_EDGE('',*,*,#691,.T.);
#694=ORIENTED_EDGE('',*,*,#693,.T.);
#696=ORIENTED_EDGE('',*,*,#695,.F.);
#698=ORIENTED_EDGE('',*,*,#697,.T.);
#700=ORIENTED_EDGE('',*,*,#699,.T.);
#702=ORIENTED_EDGE('',*,*,#701,.T.);
#704=ORIENTED_EDGE('',*,*,#703,.T.);
#706=ORIENTED_EDGE('',*,*,#705,.T.);
#708=ORIENTED_EDGE('',*,*,#707,.T.);
#710=ORIENTED_EDGE('',*,*,#709,.T.);
#712=ORIENTED_EDGE('',*,*,#711,.T.);
#714=ORIENTED_EDGE('',*,*,#713,.T.);
#716=ORIENTED_EDGE('',*,*,#715,.T.);
#718=ORIENTED_EDGE('',*,*,#717,.T.);
#720=ORIENTED_EDGE('',*,*,#719,.T.);
#722=ORIENTED_EDGE('',*,*,#721,.T.);
#724=ORIENTED_EDGE('',*,*,#723,.T.);
#726=ORIENTED_EDGE('',*,*,#725,.T.);
#728=ORIENTED_EDGE('',*,*,#727,.T.);
#730=ORIENTED_EDGE('',*,*,#729,.T.);
#732=ORIENTED_EDGE('',*,*,#731,.T.);
#734=ORIENTED_EDGE('',*,*,#733,.T.);
#736=ORIENTED_EDGE('',*,*,#735,.T.);
#738=ORIENTED_EDGE('',*,*,#737,.T.);
#740=ORIENTED_EDGE('',*,*,#739,.T.);
#742=ORIENTED_EDGE('',*,*,#741,.T.);
#743=EDGE_LOOP('',(#690,#692,#694,#696,#698,#700,#702,#704,#706,#708,#710,#712,
#714,#716,#718,#720,#722,#724,#726,#728,#730,#732,#734,#736,#738,#740,#742));
#744=FACE_OUTER_BOUND('',#743,.F.);
#746=ORIENTED_EDGE('',*,*,#745,.T.);
#748=ORIENTED_EDGE('',*,*,#747,.T.);
#749=EDGE_LOOP('',(#746,#748));
#750=FACE_BOUND('',#749,.F.);
#752=CARTESIAN_POINT('',(-4.0005E-1,0.E0,-4.5212E0));
#753=DIRECTION('',(1.E0,0.E0,0.E0));
#754=DIRECTION('',(0.E0,0.E0,-1.E0));
#755=AXIS2_PLACEMENT_3D('',#752,#753,#754);
#756=CYLINDRICAL_SURFACE('',#755,8.89E-1);
#757=ORIENTED_EDGE('',*,*,#745,.F.);
#759=ORIENTED_EDGE('',*,*,#758,.T.);
#761=ORIENTED_EDGE('',*,*,#760,.T.);
#763=ORIENTED_EDGE('',*,*,#762,.F.);
#764=EDGE_LOOP('',(#757,#759,#761,#763));
#765=FACE_OUTER_BOUND('',#764,.F.);
#767=CARTESIAN_POINT('',(-4.0005E-1,0.E0,-4.5212E0));
#768=DIRECTION('',(1.E0,0.E0,0.E0));
#769=DIRECTION('',(0.E0,0.E0,-1.E0));
#770=AXIS2_PLACEMENT_3D('',#767,#768,#769);
#771=CYLINDRICAL_SURFACE('',#770,8.89E-1);
#772=ORIENTED_EDGE('',*,*,#747,.F.);
#773=ORIENTED_EDGE('',*,*,#762,.T.);
#775=ORIENTED_EDGE('',*,*,#774,.T.);
#776=ORIENTED_EDGE('',*,*,#758,.F.);
#777=EDGE_LOOP('',(#772,#773,#775,#776));
#778=FACE_OUTER_BOUND('',#777,.F.);
#780=CARTESIAN_POINT('',(4.0005E-1,0.E0,0.E0));
#781=DIRECTION('',(1.E0,0.E0,0.E0));
#782=DIRECTION('',(0.E0,0.E0,-1.E0));
#783=AXIS2_PLACEMENT_3D('',#780,#781,#782);
#784=PLANE('',#783);
#786=ORIENTED_EDGE('',*,*,#785,.F.);
#788=ORIENTED_EDGE('',*,*,#787,.F.);
#790=ORIENTED_EDGE('',*,*,#789,.F.);
#792=ORIENTED_EDGE('',*,*,#791,.F.);
#794=ORIENTED_EDGE('',*,*,#793,.F.);
#796=ORIENTED_EDGE('',*,*,#795,.F.);
#798=ORIENTED_EDGE('',*,*,#797,.F.);
#800=ORIENTED_EDGE('',*,*,#799,.F.);
#802=ORIENTED_EDGE('',*,*,#801,.F.);
#804=ORIENTED_EDGE('',*,*,#803,.F.);
#806=ORIENTED_EDGE('',*,*,#805,.F.);
#808=ORIENTED_EDGE('',*,*,#807,.F.);
#810=ORIENTED_EDGE('',*,*,#809,.F.);
#812=ORIENTED_EDGE('',*,*,#811,.F.);
#814=ORIENTED_EDGE('',*,*,#813,.F.);
#816=ORIENTED_EDGE('',*,*,#815,.F.);
#818=ORIENTED_EDGE('',*,*,#817,.F.);
#820=ORIENTED_EDGE('',*,*,#819,.F.);
#822=ORIENTED_EDGE('',*,*,#821,.F.);
#824=ORIENTED_EDGE('',*,*,#823,.F.);
#826=ORIENTED_EDGE('',*,*,#825,.F.);
#828=ORIENTED_EDGE('',*,*,#827,.F.);
#830=ORIENTED_EDGE('',*,*,#829,.F.);
#832=ORIENTED_EDGE('',*,*,#831,.F.);
#834=ORIENTED_EDGE('',*,*,#833,.F.);
#836=ORIENTED_EDGE('',*,*,#835,.F.);
#838=ORIENTED_EDGE('',*,*,#837,.F.);
#839=EDGE_LOOP('',(#786,#788,#790,#792,#794,#796,#798,#800,#802,#804,#806,#808,
#810,#812,#814,#816,#818,#820,#822,#824,#826,#828,#830,#832,#834,#836,#838));
#840=FACE_OUTER_BOUND('',#839,.F.);
#841=ORIENTED_EDGE('',*,*,#760,.F.);
#842=ORIENTED_EDGE('',*,*,#774,.F.);
#843=EDGE_LOOP('',(#841,#842));
#844=FACE_BOUND('',#843,.F.);
#846=CARTESIAN_POINT('',(3.533311674244E-1,-1.046798634849E-1,-1.98755E1));
#847=DIRECTION('',(9.945218953683E-1,0.E0,-1.045284632677E-1));
#848=DIRECTION('',(0.E0,-1.E0,0.E0));
#849=AXIS2_PLACEMENT_3D('',#846,#847,#848);
#850=PLANE('',#849);
#852=ORIENTED_EDGE('',*,*,#851,.F.);
#854=ORIENTED_EDGE('',*,*,#853,.T.);
#855=ORIENTED_EDGE('',*,*,#785,.T.);
#857=ORIENTED_EDGE('',*,*,#856,.T.);
#858=EDGE_LOOP('',(#852,#854,#855,#857));
#859=FACE_OUTER_BOUND('',#858,.F.);
#861=CARTESIAN_POINT('',(-4.0005E-1,-2.368359726970E0,-2.032E1));
#862=DIRECTION('',(0.E0,0.E0,-1.E0));
#863=DIRECTION('',(0.E0,1.E0,0.E0));
#864=AXIS2_PLACEMENT_3D('',#861,#862,#863);
#865=PLANE('',#864);
#867=ORIENTED_EDGE('',*,*,#866,.T.);
#869=ORIENTED_EDGE('',*,*,#868,.T.);
#870=ORIENTED_EDGE('',*,*,#851,.T.);
#872=ORIENTED_EDGE('',*,*,#871,.F.);
#873=EDGE_LOOP('',(#867,#869,#870,#872));
#874=FACE_OUTER_BOUND('',#873,.F.);
#876=CARTESIAN_POINT('',(-3.533311674244E-1,-1.046798634849E-1,-1.98755E1));
#877=DIRECTION('',(-9.945218953683E-1,0.E0,-1.045284632677E-1));
#878=DIRECTION('',(0.E0,-1.E0,0.E0));
#879=AXIS2_PLACEMENT_3D('',#876,#877,#878);
#880=PLANE('',#879);
#882=ORIENTED_EDGE('',*,*,#881,.T.);
#883=ORIENTED_EDGE('',*,*,#866,.F.);
#885=ORIENTED_EDGE('',*,*,#884,.T.);
#886=ORIENTED_EDGE('',*,*,#689,.T.);
#887=EDGE_LOOP('',(#882,#883,#885,#886));
#888=FACE_OUTER_BOUND('',#887,.F.);
#890=CARTESIAN_POINT('',(-4.0005E-1,-2.962942893656E0,-1.941818661134E1));
#891=DIRECTION('',(0.E0,-8.348704974188E-1,-5.504464120509E-1));
#892=DIRECTION('',(0.E0,5.504464120509E-1,-8.348704974188E-1));
#893=AXIS2_PLACEMENT_3D('',#890,#891,#892);
#894=PLANE('',#893);
#895=ORIENTED_EDGE('',*,*,#881,.F.);
#896=ORIENTED_EDGE('',*,*,#741,.F.);
#898=ORIENTED_EDGE('',*,*,#897,.T.);
#899=ORIENTED_EDGE('',*,*,#787,.T.);
#900=ORIENTED_EDGE('',*,*,#853,.F.);
#901=ORIENTED_EDGE('',*,*,#868,.F.);
#902=EDGE_LOOP('',(#895,#896,#898,#899,#900,#901));
#903=FACE_OUTER_BOUND('',#902,.F.);
#905=CARTESIAN_POINT('',(-4.0005E-1,-3.175E0,-1.9558E1));
#906=DIRECTION('',(1.E0,0.E0,0.E0));
#907=DIRECTION('',(0.E0,0.E0,-1.E0));
#908=AXIS2_PLACEMENT_3D('',#905,#906,#907);
#909=CYLINDRICAL_SURFACE('',#908,2.54E-1);
#910=ORIENTED_EDGE('',*,*,#739,.F.);
#912=ORIENTED_EDGE('',*,*,#911,.T.);
#913=ORIENTED_EDGE('',*,*,#789,.T.);
#914=ORIENTED_EDGE('',*,*,#897,.F.);
#915=EDGE_LOOP('',(#910,#912,#913,#914));
#916=FACE_OUTER_BOUND('',#915,.F.);
#918=CARTESIAN_POINT('',(-4.0005E-1,-4.118410244843E0,-2.01422E1));
#919=DIRECTION('',(0.E0,7.071067811866E-1,-7.071067811865E-1));
#920=DIRECTION('',(0.E0,7.071067811865E-1,7.071067811866E-1));
#921=AXIS2_PLACEMENT_3D('',#918,#919,#920);
#922=PLANE('',#921);
#923=ORIENTED_EDGE('',*,*,#737,.F.);
#925=ORIENTED_EDGE('',*,*,#924,.T.);
#926=ORIENTED_EDGE('',*,*,#791,.T.);
#927=ORIENTED_EDGE('',*,*,#911,.F.);
#928=EDGE_LOOP('',(#923,#925,#926,#927));
#929=FACE_OUTER_BOUND('',#928,.F.);
#931=CARTESIAN_POINT('',(-4.0005E-1,-7.239E0,-2.01422E1));
#932=DIRECTION('',(0.E0,0.E0,-1.E0));
#933=DIRECTION('',(0.E0,1.E0,0.E0));
#934=AXIS2_PLACEMENT_3D('',#931,#932,#933);
#935=PLANE('',#934);
#936=ORIENTED_EDGE('',*,*,#735,.F.);
#938=ORIENTED_EDGE('',*,*,#937,.T.);
#939=ORIENTED_EDGE('',*,*,#793,.T.);
#940=ORIENTED_EDGE('',*,*,#924,.F.);
#941=EDGE_LOOP('',(#936,#938,#939,#940));
#942=FACE_OUTER_BOUND('',#941,.F.);
#944=CARTESIAN_POINT('',(-4.0005E-1,-9.244444378261E0,-1.990725E1));
#945=DIRECTION('',(0.E0,-1.163602464905E-1,-9.932070746006E-1));
#946=DIRECTION('',(0.E0,9.932070746006E-1,-1.163602464905E-1));
#947=AXIS2_PLACEMENT_3D('',#944,#945,#946);
#948=PLANE('',#947);
#949=ORIENTED_EDGE('',*,*,#733,.F.);
#951=ORIENTED_EDGE('',*,*,#950,.T.);
#952=ORIENTED_EDGE('',*,*,#795,.T.);
#953=ORIENTED_EDGE('',*,*,#937,.F.);
#954=EDGE_LOOP('',(#949,#951,#952,#953));
#955=FACE_OUTER_BOUND('',#954,.F.);
#957=CARTESIAN_POINT('',(-4.0005E-1,-9.2075E0,-1.959190675381E1));
#958=DIRECTION('',(1.E0,0.E0,0.E0));
#959=DIRECTION('',(0.E0,0.E0,-1.E0));
#960=AXIS2_PLACEMENT_3D('',#957,#958,#959);
#961=CYLINDRICAL_SURFACE('',#960,3.175E-1);
#962=ORIENTED_EDGE('',*,*,#731,.F.);
#964=ORIENTED_EDGE('',*,*,#963,.T.);
#965=ORIENTED_EDGE('',*,*,#797,.T.);
#966=ORIENTED_EDGE('',*,*,#950,.F.);
#967=EDGE_LOOP('',(#962,#964,#965,#966));
#968=FACE_OUTER_BOUND('',#967,.F.);
#970=CARTESIAN_POINT('',(-4.0005E-1,-9.525E0,-1.948599324619E1));
#971=DIRECTION('',(0.E0,-1.E0,0.E0));
#972=DIRECTION('',(0.E0,0.E0,-1.E0));
#973=AXIS2_PLACEMENT_3D('',#970,#971,#972);
#974=PLANE('',#973);
#975=ORIENTED_EDGE('',*,*,#729,.F.);
#977=ORIENTED_EDGE('',*,*,#976,.T.);
#978=ORIENTED_EDGE('',*,*,#799,.T.);
#979=ORIENTED_EDGE('',*,*,#963,.F.);
#980=EDGE_LOOP('',(#975,#977,#978,#979));
#981=FACE_OUTER_BOUND('',#980,.F.);
#983=CARTESIAN_POINT('',(-4.0005E-1,-9.2075E0,-1.948599324619E1));
#984=DIRECTION('',(1.E0,0.E0,0.E0));
#985=DIRECTION('',(0.E0,0.E0,-1.E0));
#986=AXIS2_PLACEMENT_3D('',#983,#984,#985);
#987=CYLINDRICAL_SURFACE('',#986,3.175E-1);
#988=ORIENTED_EDGE('',*,*,#727,.F.);
#990=ORIENTED_EDGE('',*,*,#989,.T.);
#991=ORIENTED_EDGE('',*,*,#801,.T.);
#992=ORIENTED_EDGE('',*,*,#976,.F.);
#993=EDGE_LOOP('',(#988,#990,#991,#992));
#994=FACE_OUTER_BOUND('',#993,.F.);
#996=CARTESIAN_POINT('',(-4.0005E-1,-7.239E0,-1.89357E1));
#997=DIRECTION('',(0.E0,-1.163602464905E-1,9.932070746006E-1));
#998=DIRECTION('',(0.E0,-9.932070746006E-1,-1.163602464905E-1));
#999=AXIS2_PLACEMENT_3D('',#996,#997,#998);
#1000=PLANE('',#999);
#1001=ORIENTED_EDGE('',*,*,#725,.F.);
#1003=ORIENTED_EDGE('',*,*,#1002,.T.);
#1004=ORIENTED_EDGE('',*,*,#803,.T.);
#1005=ORIENTED_EDGE('',*,*,#989,.F.);
#1006=EDGE_LOOP('',(#1001,#1003,#1004,#1005));
#1007=FACE_OUTER_BOUND('',#1006,.F.);
#1009=CARTESIAN_POINT('',(-4.0005E-1,-5.715E0,-1.89357E1));
#1010=DIRECTION('',(0.E0,0.E0,1.E0));
#1011=DIRECTION('',(0.E0,-1.E0,0.E0));
#1012=AXIS2_PLACEMENT_3D('',#1009,#1010,#1011);
#1013=PLANE('',#1012);
#1014=ORIENTED_EDGE('',*,*,#723,.F.);
#1016=ORIENTED_EDGE('',*,*,#1015,.T.);
#1017=ORIENTED_EDGE('',*,*,#805,.T.);
#1018=ORIENTED_EDGE('',*,*,#1002,.F.);
#1019=EDGE_LOOP('',(#1014,#1016,#1017,#1018));
#1020=FACE_OUTER_BOUND('',#1019,.F.);
#1022=CARTESIAN_POINT('',(-4.0005E-1,-5.715E0,-1.50622E1));
#1023=DIRECTION('',(0.E0,-1.E0,0.E0));
#1024=DIRECTION('',(0.E0,0.E0,-1.E0));
#1025=AXIS2_PLACEMENT_3D('',#1022,#1023,#1024);
#1026=PLANE('',#1025);
#1027=ORIENTED_EDGE('',*,*,#721,.F.);
#1029=ORIENTED_EDGE('',*,*,#1028,.T.);
#1030=ORIENTED_EDGE('',*,*,#807,.T.);
#1031=ORIENTED_EDGE('',*,*,#1015,.F.);
#1032=EDGE_LOOP('',(#1027,#1029,#1030,#1031));
#1033=FACE_OUTER_BOUND('',#1032,.F.);
#1035=CARTESIAN_POINT('',(-4.0005E-1,-7.239E0,-1.50622E1));
#1036=DIRECTION('',(0.E0,0.E0,-1.E0));
#1037=DIRECTION('',(0.E0,1.E0,0.E0));
#1038=AXIS2_PLACEMENT_3D('',#1035,#1036,#1037);
#1039=PLANE('',#1038);
#1040=ORIENTED_EDGE('',*,*,#719,.F.);
#1042=ORIENTED_EDGE('',*,*,#1041,.T.);
#1043=ORIENTED_EDGE('',*,*,#809,.T.);
#1044=ORIENTED_EDGE('',*,*,#1028,.F.);
#1045=EDGE_LOOP('',(#1040,#1042,#1043,#1044));
#1046=FACE_OUTER_BOUND('',#1045,.F.);
#1048=CARTESIAN_POINT('',(-4.0005E-1,-9.244444378261E0,-1.482725E1));
#1049=DIRECTION('',(0.E0,-1.163602464905E-1,-9.932070746006E-1));
#1050=DIRECTION('',(0.E0,9.932070746006E-1,-1.163602464905E-1));
#1051=AXIS2_PLACEMENT_3D('',#1048,#1049,#1050);
#1052=PLANE('',#1051);
#1053=ORIENTED_EDGE('',*,*,#717,.F.);
#1055=ORIENTED_EDGE('',*,*,#1054,.T.);
#1056=ORIENTED_EDGE('',*,*,#811,.T.);
#1057=ORIENTED_EDGE('',*,*,#1041,.F.);
#1058=EDGE_LOOP('',(#1053,#1055,#1056,#1057));
#1059=FACE_OUTER_BOUND('',#1058,.F.);
#1061=CARTESIAN_POINT('',(-4.0005E-1,-9.2075E0,-1.451190675381E1));
#1062=DIRECTION('',(1.E0,0.E0,0.E0));
#1063=DIRECTION('',(0.E0,0.E0,-1.E0));
#1064=AXIS2_PLACEMENT_3D('',#1061,#1062,#1063);
#1065=CYLINDRICAL_SURFACE('',#1064,3.175E-1);
#1066=ORIENTED_EDGE('',*,*,#715,.F.);
#1068=ORIENTED_EDGE('',*,*,#1067,.T.);
#1069=ORIENTED_EDGE('',*,*,#813,.T.);
#1070=ORIENTED_EDGE('',*,*,#1054,.F.);
#1071=EDGE_LOOP('',(#1066,#1068,#1069,#1070));
#1072=FACE_OUTER_BOUND('',#1071,.F.);
#1074=CARTESIAN_POINT('',(-4.0005E-1,-9.525E0,-1.440599324619E1));
#1075=DIRECTION('',(0.E0,-1.E0,0.E0));
#1076=DIRECTION('',(0.E0,0.E0,-1.E0));
#1077=AXIS2_PLACEMENT_3D('',#1074,#1075,#1076);
#1078=PLANE('',#1077);
#1079=ORIENTED_EDGE('',*,*,#713,.F.);
#1081=ORIENTED_EDGE('',*,*,#1080,.T.);
#1082=ORIENTED_EDGE('',*,*,#815,.T.);
#1083=ORIENTED_EDGE('',*,*,#1067,.F.);
#1084=EDGE_LOOP('',(#1079,#1081,#1082,#1083));
#1085=FACE_OUTER_BOUND('',#1084,.F.);
#1087=CARTESIAN_POINT('',(-4.0005E-1,-9.2075E0,-1.440599324619E1));
#1088=DIRECTION('',(1.E0,0.E0,0.E0));
#1089=DIRECTION('',(0.E0,0.E0,-1.E0));
#1090=AXIS2_PLACEMENT_3D('',#1087,#1088,#1089);
#1091=CYLINDRICAL_SURFACE('',#1090,3.175E-1);
#1092=ORIENTED_EDGE('',*,*,#711,.F.);
#1094=ORIENTED_EDGE('',*,*,#1093,.T.);
#1095=ORIENTED_EDGE('',*,*,#817,.T.);
#1096=ORIENTED_EDGE('',*,*,#1080,.F.);
#1097=EDGE_LOOP('',(#1092,#1094,#1095,#1096));
#1098=FACE_OUTER_BOUND('',#1097,.F.);
#1100=CARTESIAN_POINT('',(-4.0005E-1,-7.239E0,-1.38557E1));
#1101=DIRECTION('',(0.E0,-1.163602464905E-1,9.932070746006E-1));
#1102=DIRECTION('',(0.E0,-9.932070746006E-1,-1.163602464905E-1));
#1103=AXIS2_PLACEMENT_3D('',#1100,#1101,#1102);
#1104=PLANE('',#1103);
#1105=ORIENTED_EDGE('',*,*,#709,.F.);
#1107=ORIENTED_EDGE('',*,*,#1106,.T.);
#1108=ORIENTED_EDGE('',*,*,#819,.T.);
#1109=ORIENTED_EDGE('',*,*,#1093,.F.);
#1110=EDGE_LOOP('',(#1105,#1107,#1108,#1109));
#1111=FACE_OUTER_BOUND('',#1110,.F.);
#1113=CARTESIAN_POINT('',(-4.0005E-1,-5.715E0,-1.38557E1));
#1114=DIRECTION('',(0.E0,0.E0,1.E0));
#1115=DIRECTION('',(0.E0,-1.E0,0.E0));
#1116=AXIS2_PLACEMENT_3D('',#1113,#1114,#1115);
#1117=PLANE('',#1116);
#1118=ORIENTED_EDGE('',*,*,#707,.F.);
#1120=ORIENTED_EDGE('',*,*,#1119,.T.);
#1121=ORIENTED_EDGE('',*,*,#821,.T.);
#1122=ORIENTED_EDGE('',*,*,#1106,.F.);
#1123=EDGE_LOOP('',(#1118,#1120,#1121,#1122));
#1124=FACE_OUTER_BOUND('',#1123,.F.);
#1126=CARTESIAN_POINT('',(-4.0005E-1,-5.715E0,-1.3208E1));
#1127=DIRECTION('',(0.E0,-1.E0,0.E0));
#1128=DIRECTION('',(0.E0,0.E0,-1.E0));
#1129=AXIS2_PLACEMENT_3D('',#1126,#1127,#1128);
#1130=PLANE('',#1129);
#1131=ORIENTED_EDGE('',*,*,#705,.F.);
#1133=ORIENTED_EDGE('',*,*,#1132,.T.);
#1134=ORIENTED_EDGE('',*,*,#823,.T.);
#1135=ORIENTED_EDGE('',*,*,#1119,.F.);
#1136=EDGE_LOOP('',(#1131,#1133,#1134,#1135));
#1137=FACE_OUTER_BOUND('',#1136,.F.);
#1139=CARTESIAN_POINT('',(-4.0005E-1,-3.937E0,-1.3208E1));
#1140=DIRECTION('',(0.E0,0.E0,1.E0));
#1141=DIRECTION('',(0.E0,-1.E0,0.E0));
#1142=AXIS2_PLACEMENT_3D('',#1139,#1140,#1141);
#1143=PLANE('',#1142);
#1144=ORIENTED_EDGE('',*,*,#703,.F.);
#1146=ORIENTED_EDGE('',*,*,#1145,.T.);
#1147=ORIENTED_EDGE('',*,*,#825,.T.);
#1148=ORIENTED_EDGE('',*,*,#1132,.F.);
#1149=EDGE_LOOP('',(#1144,#1146,#1147,#1148));
#1150=FACE_OUTER_BOUND('',#1149,.F.);
#1152=CARTESIAN_POINT('',(-4.0005E-1,-3.937E0,-7.9248E0));
#1153=DIRECTION('',(0.E0,-1.E0,0.E0));
#1154=DIRECTION('',(0.E0,0.E0,-1.E0));
#1155=AXIS2_PLACEMENT_3D('',#1152,#1153,#1154);
#1156=PLANE('',#1155);
#1157=ORIENTED_EDGE('',*,*,#701,.F.);
#1159=ORIENTED_EDGE('',*,*,#1158,.T.);
#1160=ORIENTED_EDGE('',*,*,#827,.T.);
#1161=ORIENTED_EDGE('',*,*,#1145,.F.);
#1162=EDGE_LOOP('',(#1157,#1159,#1160,#1161));
#1163=FACE_OUTER_BOUND('',#1162,.F.);
#1165=CARTESIAN_POINT('',(-4.0005E-1,-3.175E0,-7.9248E0));
#1166=DIRECTION('',(0.E0,0.E0,1.E0));
#1167=DIRECTION('',(0.E0,-1.E0,0.E0));
#1168=AXIS2_PLACEMENT_3D('',#1165,#1166,#1167);
#1169=PLANE('',#1168);
#1170=ORIENTED_EDGE('',*,*,#699,.F.);
#1172=ORIENTED_EDGE('',*,*,#1171,.T.);
#1173=ORIENTED_EDGE('',*,*,#829,.T.);
#1174=ORIENTED_EDGE('',*,*,#1158,.F.);
#1175=EDGE_LOOP('',(#1170,#1172,#1173,#1174));
#1176=FACE_OUTER_BOUND('',#1175,.F.);
#1178=CARTESIAN_POINT('',(-4.0005E-1,-3.175E0,-1.016E0));
#1179=DIRECTION('',(0.E0,-1.E0,0.E0));
#1180=DIRECTION('',(0.E0,0.E0,-1.E0));
#1181=AXIS2_PLACEMENT_3D('',#1178,#1179,#1180);
#1182=PLANE('',#1181);
#1183=ORIENTED_EDGE('',*,*,#697,.F.);
#1185=ORIENTED_EDGE('',*,*,#1184,.T.);
#1186=ORIENTED_EDGE('',*,*,#831,.T.);
#1187=ORIENTED_EDGE('',*,*,#1171,.F.);
#1188=EDGE_LOOP('',(#1183,#1185,#1186,#1187));
#1189=FACE_OUTER_BOUND('',#1188,.F.);
#1191=CARTESIAN_POINT('',(-4.0005E-1,-2.159E0,0.E0));
#1192=DIRECTION('',(0.E0,-7.071067811865E-1,7.071067811865E-1));
#1193=DIRECTION('',(0.E0,-7.071067811865E-1,-7.071067811865E-1));
#1194=AXIS2_PLACEMENT_3D('',#1191,#1192,#1193);
#1195=PLANE('',#1194);
#1197=ORIENTED_EDGE('',*,*,#1196,.F.);
#1198=ORIENTED_EDGE('',*,*,#1184,.F.);
#1200=ORIENTED_EDGE('',*,*,#1199,.F.);
#1202=ORIENTED_EDGE('',*,*,#1201,.T.);
#1203=EDGE_LOOP('',(#1197,#1198,#1200,#1202));
#1204=FACE_OUTER_BOUND('',#1203,.F.);
#1206=CARTESIAN_POINT('',(3.466570484850E-1,0.E0,-5.08E-1));
#1207=DIRECTION('',(9.945218953683E-1,0.E0,1.045284632677E-1));
#1208=DIRECTION('',(0.E0,-1.E0,0.E0));
#1209=AXIS2_PLACEMENT_3D('',#1206,#1207,#1208);
#1210=PLANE('',#1209);
#1211=ORIENTED_EDGE('',*,*,#1196,.T.);
#1213=ORIENTED_EDGE('',*,*,#1212,.F.);
#1215=ORIENTED_EDGE('',*,*,#1214,.T.);
#1216=ORIENTED_EDGE('',*,*,#833,.T.);
#1217=EDGE_LOOP('',(#1211,#1213,#1215,#1216));
#1218=FACE_OUTER_BOUND('',#1217,.F.);
#1220=CARTESIAN_POINT('',(-4.0005E-1,2.159E0,0.E0));
#1221=DIRECTION('',(0.E0,0.E0,1.E0));
#1222=DIRECTION('',(0.E0,-1.E0,0.E0));
#1223=AXIS2_PLACEMENT_3D('',#1220,#1221,#1222);
#1224=PLANE('',#1223);
#1225=ORIENTED_EDGE('',*,*,#1212,.T.);
#1226=ORIENTED_EDGE('',*,*,#1201,.F.);
#1228=ORIENTED_EDGE('',*,*,#1227,.T.);
#1230=ORIENTED_EDGE('',*,*,#1229,.T.);
#1231=EDGE_LOOP('',(#1225,#1226,#1228,#1230));
#1232=FACE_OUTER_BOUND('',#1231,.F.);
#1234=CARTESIAN_POINT('',(-3.466570484850E-1,0.E0,-5.08E-1));
#1235=DIRECTION('',(-9.945218953683E-1,0.E0,1.045284632677E-1));
#1236=DIRECTION('',(0.E0,-1.E0,0.E0));
#1237=AXIS2_PLACEMENT_3D('',#1234,#1235,#1236);
#1238=PLANE('',#1237);
#1240=ORIENTED_EDGE('',*,*,#1239,.T.);
#1241=ORIENTED_EDGE('',*,*,#1227,.F.);
#1242=ORIENTED_EDGE('',*,*,#1199,.T.);
#1243=ORIENTED_EDGE('',*,*,#695,.T.);
#1244=EDGE_LOOP('',(#1240,#1241,#1242,#1243));
#1245=FACE_OUTER_BOUND('',#1244,.F.);
#1247=CARTESIAN_POINT('',(-4.0005E-1,3.175E0,-1.016E0));
#1248=DIRECTION('',(0.E0,7.071067811865E-1,7.071067811865E-1));
#1249=DIRECTION('',(0.E0,-7.071067811865E-1,7.071067811865E-1));
#1250=AXIS2_PLACEMENT_3D('',#1247,#1248,#1249);
#1251=PLANE('',#1250);
#1252=ORIENTED_EDGE('',*,*,#1214,.F.);
#1253=ORIENTED_EDGE('',*,*,#1229,.F.);
#1254=ORIENTED_EDGE('',*,*,#1239,.F.);
#1256=ORIENTED_EDGE('',*,*,#1255,.T.);
#1257=EDGE_LOOP('',(#1252,#1253,#1254,#1256));
#1258=FACE_OUTER_BOUND('',#1257,.F.);
#1260=CARTESIAN_POINT('',(-4.0005E-1,3.175E0,-1.9304E1));
#1261=DIRECTION('',(0.E0,1.E0,0.E0));
#1262=DIRECTION('',(0.E0,0.E0,1.E0));
#1263=AXIS2_PLACEMENT_3D('',#1260,#1261,#1262);
#1264=PLANE('',#1263);
#1265=ORIENTED_EDGE('',*,*,#693,.F.);
#1267=ORIENTED_EDGE('',*,*,#1266,.T.);
#1268=ORIENTED_EDGE('',*,*,#835,.T.);
#1269=ORIENTED_EDGE('',*,*,#1255,.F.);
#1270=EDGE_LOOP('',(#1265,#1267,#1268,#1269));
#1271=FACE_OUTER_BOUND('',#1270,.F.);
#1273=CARTESIAN_POINT('',(-4.0005E-1,2.159E0,-2.032E1));
#1274=DIRECTION('',(0.E0,7.071067811865E-1,-7.071067811865E-1));
#1275=DIRECTION('',(0.E0,7.071067811865E-1,7.071067811865E-1));
#1276=AXIS2_PLACEMENT_3D('',#1273,#1274,#1275);
#1277=PLANE('',#1276);
#1278=ORIENTED_EDGE('',*,*,#884,.F.);
#1279=ORIENTED_EDGE('',*,*,#871,.T.);
#1280=ORIENTED_EDGE('',*,*,#856,.F.);
#1281=ORIENTED_EDGE('',*,*,#837,.T.);
#1282=ORIENTED_EDGE('',*,*,#1266,.F.);
#1283=ORIENTED_EDGE('',*,*,#691,.F.);
#1284=EDGE_LOOP('',(#1278,#1279,#1280,#1281,#1282,#1283));
#1285=FACE_OUTER_BOUND('',#1284,.F.);
#1287=CLOSED_SHELL('',(#751,#766,#779,#845,#860,#875,#889,#904,#917,#930,#943,
#956,#969,#982,#995,#1008,#1021,#1034,#1047,#1060,#1073,#1086,#1099,#1112,#1125,
#1138,#1151,#1164,#1177,#1190,#1205,#1219,#1233,#1246,#1259,#1272,#1286));
#1288=MANIFOLD_SOLID_BREP('',#1287);
#1291=PLANE_ANGLE_MEASURE_WITH_UNIT(PLANE_ANGLE_MEASURE(1.745329251994E-2),
#1290);
#1292=(CONVERSION_BASED_UNIT('DEGREE',#1291)NAMED_UNIT(*)PLANE_ANGLE_UNIT());
#1294=UNCERTAINTY_MEASURE_WITH_UNIT(LENGTH_MEASURE(2.635748894123E-3),#1289,
'distance_accuracy_value',
'Maximum model space distance between geometric entities at asserted connectivities');
#1297=APPLICATION_CONTEXT('automotive_design');
#1298=APPLICATION_PROTOCOL_DEFINITION('international standard',
'automotive_design',2001,#1297);
#1299=PRODUCT_DEFINITION_CONTEXT('part definition',#1297,'design');
#1300=PRODUCT_CONTEXT('',#1297,'mechanical');
#1301=PRODUCT('C-1217754-1','C-1217754-1','NOT SPECIFIED',(#1300));
#1302=PRODUCT_DEFINITION_FORMATION('1','LAST_VERSION',#1301);
#1310=DERIVED_UNIT_ELEMENT(#1309,2.E0);
#1311=DERIVED_UNIT((#1310));
#1312=MEASURE_REPRESENTATION_ITEM('surface area measure',AREA_MEASURE(
3.664609159426E2),#1311);
#1317=DERIVED_UNIT_ELEMENT(#1316,3.E0);
#1318=DERIVED_UNIT((#1317));
#1319=MEASURE_REPRESENTATION_ITEM('volume measure',VOLUME_MEASURE(
1.219592376365E2),#1318);
#1323=CARTESIAN_POINT('centre point',(0.E0,-9.829741397580E-1,
-1.135474889156E1));
#1328=DERIVED_UNIT_ELEMENT(#1327,2.E0);
#1329=DERIVED_UNIT((#1328));
#1330=MEASURE_REPRESENTATION_ITEM('surface area measure',AREA_MEASURE(
3.664609159426E2),#1329);
#1335=DERIVED_UNIT_ELEMENT(#1334,3.E0);
#1336=DERIVED_UNIT((#1335));
#1337=MEASURE_REPRESENTATION_ITEM('volume measure',VOLUME_MEASURE(
1.219592376365E2),#1336);
#1341=CARTESIAN_POINT('centre point',(0.E0,-9.829741397580E-1,
-1.135474889156E1));
#1346=PRODUCT_RELATED_PRODUCT_CATEGORY('part','',(#1301));
#1=DRAUGHTING_PRE_DEFINED_COLOUR('black');
#2=COLOUR_RGB('',0.E0,0.E0,3.6E-1);
#3=COLOUR_RGB('',0.E0,0.E0,4.8E-1);
#4=DRAUGHTING_PRE_DEFINED_COLOUR('blue');
#5=COLOUR_RGB('',0.E0,5.8824E-2,4.58824E-1);
#6=COLOUR_RGB('',0.E0,1.80392E-1,4.78431E-1);
#7=COLOUR_RGB('',0.E0,3.6E-1,9.E-2);
#8=COLOUR_RGB('',0.E0,3.6E-1,2.7E-1);
#9=COLOUR_RGB('',0.E0,5.6E-1,6.4E-1);
#10=COLOUR_RGB('',0.E0,5.8E-1,8.E-1);
#11=COLOUR_RGB('',0.E0,7.1E-1,6.6E-1);
#12=COLOUR_RGB('',0.E0,7.13E-1,0.E0);
#13=COLOUR_RGB('',0.E0,9.5E-1,8.4E-1);
#14=DRAUGHTING_PRE_DEFINED_COLOUR('green');
#15=DRAUGHTING_PRE_DEFINED_COLOUR('cyan');
#16=COLOUR_RGB('',1.1765E-2,1.9608E-2,3.9216E-2);
#17=COLOUR_RGB('',4.E-2,0.E0,1.6E-1);
#18=COLOUR_RGB('',3.9216E-2,2.19608E-1,1.21569E-1);
#19=COLOUR_RGB('',3.9216E-2,3.60784E-1,2.E-1);
#20=COLOUR_RGB('',5.098E-2,7.0588E-2,1.01961E-1);
#21=COLOUR_RGB('',9.E-2,0.E0,1.2E-1);
#22=COLOUR_RGB('',9.0196E-2,1.60784E-1,1.09804E-1);
#23=COLOUR_RGB('',9.0196E-2,3.80392E-1,6.70588E-1);
#24=COLOUR_RGB('',1.E-1,0.E0,2.5E-1);
#25=COLOUR_RGB('',1.01961E-1,4.78431E-1,3.88235E-1);
#26=COLOUR_RGB('',1.09804E-1,1.4902E-1,9.0196E-2);
#27=COLOUR_RGB('',1.4902E-1,3.09804E-1,5.29412E-1);
#28=COLOUR_RGB('',1.4902E-1,4.E-1,1.60784E-1);
#29=COLOUR_RGB('',1.6E-1,3.2E-2,0.E0);
#30=COLOUR_RGB('',1.60784E-1,4.5098E-1,7.21569E-1);
#31=COLOUR_RGB('',1.6E-1,4.6E-1,6.5E-1);
#32=COLOUR_RGB('',1.6E-1,1.E0,1.6E-1);
#33=COLOUR_RGB('',2.E-1,3.2E-2,0.E0);
#34=COLOUR_RGB('',2.11765E-1,4.11765E-1,1.4902E-1);
#35=COLOUR_RGB('',2.39216E-1,2.39216E-1,2.31373E-1);
#36=COLOUR_RGB('',2.39216E-1,2.70588E-1,1.80392E-1);
#37=COLOUR_RGB('',2.5098E-1,2.90196E-1,3.29412E-1);
#38=COLOUR_RGB('',2.90196E-1,4.31373E-1,2.E-1);
#39=COLOUR_RGB('',3.1E-1,3.1E-1,5.6E-1);
#40=COLOUR_RGB('',3.09804E-1,6.58824E-1,2.E-1);
#41=COLOUR_RGB('',3.2E-1,1.5E-1,0.E0);
#42=COLOUR_RGB('',3.60784E-1,3.1373E-2,1.68627E-1);
#43=COLOUR_RGB('',3.68627E-1,2.E-1,1.21569E-1);
#44=COLOUR_RGB('',3.88235E-1,2.39216E-1,6.11765E-1);
#45=COLOUR_RGB('',4.E-1,4.E-1,4.E-1);
#46=COLOUR_RGB('',4.11765E-1,5.8824E-2,7.8431E-2);
#47=COLOUR_RGB('',4.11765E-1,3.29412E-1,2.19608E-1);
#48=COLOUR_RGB('',4.2E-1,4.2E-1,1.E0);
#49=COLOUR_RGB('',4.4E-1,8.5E-1,1.E0);
#50=COLOUR_RGB('',4.58824E-1,4.5098E-1,3.09804E-1);
#51=COLOUR_RGB('',4.70588E-1,5.09804E-1,5.4902E-1);
#52=COLOUR_RGB('',4.78431E-1,4.90196E-1,4.58824E-1);
#53=COLOUR_RGB('',4.90196E-1,3.60784E-1,2.19608E-1);
#54=COLOUR_RGB('',4.9E-1,4.9E-1,0.E0);
#55=COLOUR_RGB('',4.9E-1,1.E0,0.E0);
#56=COLOUR_RGB('',5.E-1,0.E0,0.E0);
#57=COLOUR_RGB('',5.E-1,0.E0,2.3E-1);
#58=COLOUR_RGB('',5.E-1,5.E-1,5.E-1);
#59=COLOUR_RGB('',5.21569E-1,2.19608E-1,1.68627E-1);
#60=COLOUR_RGB('',5.3E-1,0.E0,0.E0);
#61=COLOUR_RGB('',5.29412E-1,5.80392E-1,6.5098E-1);
#62=COLOUR_RGB('',5.4E-1,0.E0,4.4E-1);
#63=COLOUR_RGB('',5.5E-1,3.E-1,0.E0);
#64=COLOUR_RGB('',5.6E-1,1.E-1,5.E-2);
#65=COLOUR_RGB('',5.60784E-1,5.80392E-1,6.19608E-1);
#66=COLOUR_RGB('',5.68627E-1,5.8824E-2,4.E-1);
#67=COLOUR_RGB('',5.8E-1,2.2E-1,1.E-2);
#68=COLOUR_RGB('',5.88235E-1,1.21569E-1,1.09804E-1);
#69=COLOUR_RGB('',6.E-1,6.E-1,6.E-1);
#70=COLOUR_RGB('',6.11765E-1,5.60784E-1,3.80392E-1);
#71=COLOUR_RGB('',6.11765E-1,6.11765E-1,6.5098E-1);
#72=COLOUR_RGB('',6.2E-1,0.E0,5.5E-1);
#73=COLOUR_RGB('',6.19608E-1,6.39216E-1,6.90196E-1);
#74=COLOUR_RGB('',6.4E-1,0.E0,2.5E-1);
#75=COLOUR_RGB('',6.4E-1,1.E-2,0.E0);
#76=COLOUR_RGB('',6.39216E-1,5.4902E-1,4.78431E-1);
#77=COLOUR_RGB('',6.5098E-1,6.70588E-1,7.09804E-1);
#78=COLOUR_RGB('',6.70588E-1,1.21569E-1,1.09804E-1);
#79=COLOUR_RGB('',6.78431E-1,4.78431E-1,3.09804E-1);
#80=COLOUR_RGB('',6.8E-1,7.5E-1,1.E0);
#81=COLOUR_RGB('',6.952E-1,7.426E-1,7.9E-1);
#82=COLOUR_RGB('',7.09804E-1,7.0588E-2,2.E-1);
#83=COLOUR_RGB('',7.1E-1,3.1E-1,0.E0);
#84=COLOUR_RGB('',7.2E-1,7.2E-1,7.2E-1);
#85=COLOUR_RGB('',7.29412E-1,7.41176E-1,7.29412E-1);
#86=COLOUR_RGB('',7.41176E-1,7.29412E-1,6.70588E-1);
#87=COLOUR_RGB('',7.4E-1,1.E0,2.6E-1);
#88=COLOUR_RGB('',7.5E-1,3.E-2,0.E0);
#89=COLOUR_RGB('',7.4902E-1,8.90196E-1,7.29412E-1);
#90=COLOUR_RGB('',7.6E-1,0.E0,4.7E-1);
#91=COLOUR_RGB('',7.80392E-1,9.0196E-2,7.0588E-2);
#92=COLOUR_RGB('',7.88235E-1,2.19608E-1,5.4902E-1);
#93=COLOUR_RGB('',8.1E-1,4.E-2,0.E0);
#94=COLOUR_RGB('',8.1E-1,6.1E-1,0.E0);
#95=COLOUR_RGB('',8.2E-1,4.E-2,6.6E-1);
#96=COLOUR_RGB('',8.31373E-1,8.5098E-1,8.58824E-1);
#97=COLOUR_RGB('',8.5098E-1,7.29412E-1,5.4902E-1);
#98=COLOUR_RGB('',8.5E-1,8.5E-1,8.5E-1);
#99=COLOUR_RGB('',8.78431E-1,3.68627E-1,1.21569E-1);
#100=COLOUR_RGB('',8.784E-1,9.49E-1,1.E0);
#101=COLOUR_RGB('',8.90196E-1,5.88235E-1,1.41176E-1);
#102=COLOUR_RGB('',9.E-1,1.E0,0.E0);
#103=COLOUR_RGB('',9.09804E-1,6.11765E-1,7.09804E-1);
#104=COLOUR_RGB('',9.37E-1,7.85E-1,0.E0);
#105=COLOUR_RGB('',9.41176E-1,9.29412E-1,9.01961E-1);
#106=COLOUR_RGB('',9.5E-1,2.2E-1,8.1E-1);
#107=COLOUR_RGB('',9.6E-1,3.7E-1,3.E-1);
#108=COLOUR_RGB('',9.6E-1,7.1E-1,3.75E-1);
#109=COLOUR_RGB('',9.80392E-1,1.E0,1.E0);
#110=COLOUR_RGB('',9.88235E-1,1.09804E-1,7.8431E-2);
#111=COLOUR_RGB('',9.88235E-1,7.21569E-1,1.29412E-1);
#112=COLOUR_RGB('',9.88235E-1,9.21569E-1,8.E-1);
#113=DRAUGHTING_PRE_DEFINED_COLOUR('red');
#114=COLOUR_RGB('',1.E0,0.E0,6.1E-1);
#115=COLOUR_RGB('',1.E0,4.E-2,0.E0);
#116=COLOUR_RGB('',1.E0,2.3E-1,0.E0);
#117=COLOUR_RGB('',1.E0,3.5E-1,5.2E-1);
#118=COLOUR_RGB('',1.E0,3.6E-1,0.E0);
#119=COLOUR_RGB('',1.E0,3.88235E-1,2.11765E-1);
#120=COLOUR_RGB('',1.E0,4.9E-1,3.7E-1);
#121=COLOUR_RGB('',1.E0,5.E-1,0.E0);
#122=COLOUR_RGB('',1.E0,5.6E-1,7.8E-1);
#123=COLOUR_RGB('',1.E0,6.4E-1,4.9E-1);
#124=COLOUR_RGB('',1.E0,6.7E-1,0.E0);
#125=COLOUR_RGB('',1.E0,7.6E-1,6.5E-1);
#126=COLOUR_RGB('',1.E0,8.39216E-1,3.01961E-1);
#127=COLOUR_RGB('',1.E0,8.6E-1,4.E-2);
#128=COLOUR_RGB('',1.E0,9.60784E-1,2.58824E-1);
#129=COLOUR_RGB('',1.E0,9.60784E-1,8.90196E-1);
#130=COLOUR_RGB('',1.E0,9.8E-1,7.2E-1);
#131=DRAUGHTING_PRE_DEFINED_COLOUR('yellow');
#132=COLOUR_RGB('',1.E0,1.E0,3.9216E-2);
#133=DRAUGHTING_PRE_DEFINED_COLOUR('white');
#138=CIRCLE('',#137,8.89E-1);
#143=CIRCLE('',#142,8.89E-1);
#192=CIRCLE('',#191,3.175E-1);
#201=CIRCLE('',#200,3.175E-1);
#226=CIRCLE('',#225,3.175E-1);
#235=CIRCLE('',#234,3.175E-1);
#252=CIRCLE('',#251,2.54E-1);
#269=CIRCLE('',#268,8.89E-1);
#274=CIRCLE('',#273,8.89E-1);
#287=CIRCLE('',#286,2.54E-1);
#304=CIRCLE('',#303,3.175E-1);
#313=CIRCLE('',#312,3.175E-1);
#338=CIRCLE('',#337,3.175E-1);
#347=CIRCLE('',#346,3.175E-1);
#689=EDGE_CURVE('',#655,#650,#147,.T.);
#691=EDGE_CURVE('',#655,#666,#151,.T.);
#693=EDGE_CURVE('',#666,#667,#155,.T.);
#695=EDGE_CURVE('',#683,#667,#159,.T.);
#697=EDGE_CURVE('',#683,#554,#163,.T.);
#699=EDGE_CURVE('',#554,#555,#167,.T.);
#701=EDGE_CURVE('',#555,#557,#171,.T.);
#703=EDGE_CURVE('',#557,#559,#175,.T.);
#705=EDGE_CURVE('',#559,#561,#179,.T.);
#707=EDGE_CURVE('',#561,#563,#183,.T.);
#709=EDGE_CURVE('',#563,#605,#187,.T.);
#711=EDGE_CURVE('',#605,#566,#192,.T.);
#713=EDGE_CURVE('',#566,#567,#196,.T.);
#715=EDGE_CURVE('',#567,#607,#201,.T.);
#717=EDGE_CURVE('',#607,#570,#205,.T.);
#719=EDGE_CURVE('',#570,#571,#209,.T.);
#721=EDGE_CURVE('',#571,#573,#213,.T.);
#723=EDGE_CURVE('',#573,#575,#217,.T.);
#725=EDGE_CURVE('',#575,#609,#221,.T.);
#727=EDGE_CURVE('',#609,#641,#226,.T.);
#729=EDGE_CURVE('',#641,#643,#230,.T.);
#731=EDGE_CURVE('',#643,#612,#235,.T.);
#733=EDGE_CURVE('',#612,#613,#239,.T.);
#735=EDGE_CURVE('',#613,#629,#243,.T.);
#737=EDGE_CURVE('',#629,#631,#247,.T.);
#739=EDGE_CURVE('',#631,#633,#252,.T.);
#741=EDGE_CURVE('',#633,#650,#256,.T.);
#745=EDGE_CURVE('',#602,#603,#138,.T.);
#747=EDGE_CURVE('',#603,#602,#143,.T.);
#751=ADVANCED_FACE('',(#744,#750),#688,.F.);
#758=EDGE_CURVE('',#602,#616,#260,.T.);
#760=EDGE_CURVE('',#616,#617,#269,.T.);
#762=EDGE_CURVE('',#603,#617,#264,.T.);
#766=ADVANCED_FACE('',(#765),#756,.F.);
#774=EDGE_CURVE('',#617,#616,#274,.T.);
#779=ADVANCED_FACE('',(#778),#771,.F.);
#785=EDGE_CURVE('',#661,#663,#278,.T.);
#787=EDGE_CURVE('',#639,#661,#282,.T.);
#789=EDGE_CURVE('',#637,#639,#287,.T.);
#791=EDGE_CURVE('',#635,#637,#291,.T.);
#793=EDGE_CURVE('',#627,#635,#295,.T.);
#795=EDGE_CURVE('',#626,#627,#299,.T.);
#797=EDGE_CURVE('',#647,#626,#304,.T.);
#799=EDGE_CURVE('',#645,#647,#308,.T.);
#801=EDGE_CURVE('',#623,#645,#313,.T.);
#803=EDGE_CURVE('',#599,#623,#317,.T.);
#805=EDGE_CURVE('',#597,#599,#321,.T.);
#807=EDGE_CURVE('',#595,#597,#325,.T.);
#809=EDGE_CURVE('',#594,#595,#329,.T.);
#811=EDGE_CURVE('',#621,#594,#333,.T.);
#813=EDGE_CURVE('',#591,#621,#338,.T.);
#815=EDGE_CURVE('',#590,#591,#342,.T.);
#817=EDGE_CURVE('',#619,#590,#347,.T.);
#819=EDGE_CURVE('',#587,#619,#351,.T.);
#821=EDGE_CURVE('',#585,#587,#355,.T.);
#823=EDGE_CURVE('',#583,#585,#359,.T.);
#825=EDGE_CURVE('',#581,#583,#363,.T.);
#827=EDGE_CURVE('',#579,#581,#367,.T.);
#829=EDGE_CURVE('',#578,#579,#371,.T.);
#831=EDGE_CURVE('',#674,#578,#375,.T.);
#833=EDGE_CURVE('',#671,#674,#379,.T.);
#835=EDGE_CURVE('',#670,#671,#383,.T.);
#837=EDGE_CURVE('',#663,#670,#387,.T.);
#845=ADVANCED_FACE('',(#840,#844),#784,.T.);
#851=EDGE_CURVE('',#658,#659,#399,.T.);
#853=EDGE_CURVE('',#658,#661,#411,.T.);
#856=EDGE_CURVE('',#663,#659,#551,.T.);
#860=ADVANCED_FACE('',(#859),#850,.T.);
#866=EDGE_CURVE('',#653,#651,#391,.T.);
#868=EDGE_CURVE('',#651,#658,#395,.T.);
#871=EDGE_CURVE('',#653,#659,#547,.T.);
#875=ADVANCED_FACE('',(#874),#865,.T.);
#881=EDGE_CURVE('',#650,#651,#403,.T.);
#884=EDGE_CURVE('',#653,#655,#543,.T.);
#889=ADVANCED_FACE('',(#888),#880,.T.);
#897=EDGE_CURVE('',#633,#639,#407,.T.);
#904=ADVANCED_FACE('',(#903),#894,.T.);
#911=EDGE_CURVE('',#631,#637,#415,.T.);
#917=ADVANCED_FACE('',(#916),#909,.F.);
#924=EDGE_CURVE('',#629,#635,#419,.T.);
#930=ADVANCED_FACE('',(#929),#922,.T.);
#937=EDGE_CURVE('',#613,#627,#423,.T.);
#943=ADVANCED_FACE('',(#942),#935,.T.);
#950=EDGE_CURVE('',#612,#626,#427,.T.);
#956=ADVANCED_FACE('',(#955),#948,.T.);
#963=EDGE_CURVE('',#643,#647,#431,.T.);
#969=ADVANCED_FACE('',(#968),#961,.T.);
#976=EDGE_CURVE('',#641,#645,#435,.T.);
#982=ADVANCED_FACE('',(#981),#974,.T.);
#989=EDGE_CURVE('',#609,#623,#439,.T.);
#995=ADVANCED_FACE('',(#994),#987,.T.);
#1002=EDGE_CURVE('',#575,#599,#443,.T.);
#1008=ADVANCED_FACE('',(#1007),#1000,.T.);
#1015=EDGE_CURVE('',#573,#597,#447,.T.);
#1021=ADVANCED_FACE('',(#1020),#1013,.T.);
#1028=EDGE_CURVE('',#571,#595,#451,.T.);
#1034=ADVANCED_FACE('',(#1033),#1026,.T.);
#1041=EDGE_CURVE('',#570,#594,#455,.T.);
#1047=ADVANCED_FACE('',(#1046),#1039,.T.);
#1054=EDGE_CURVE('',#607,#621,#459,.T.);
#1060=ADVANCED_FACE('',(#1059),#1052,.T.);
#1067=EDGE_CURVE('',#567,#591,#463,.T.);
#1073=ADVANCED_FACE('',(#1072),#1065,.T.);
#1080=EDGE_CURVE('',#566,#590,#467,.T.);
#1086=ADVANCED_FACE('',(#1085),#1078,.T.);
#1093=EDGE_CURVE('',#605,#619,#471,.T.);
#1099=ADVANCED_FACE('',(#1098),#1091,.T.);
#1106=EDGE_CURVE('',#563,#587,#475,.T.);
#1112=ADVANCED_FACE('',(#1111),#1104,.T.);
#1119=EDGE_CURVE('',#561,#585,#479,.T.);
#1125=ADVANCED_FACE('',(#1124),#1117,.T.);
#1132=EDGE_CURVE('',#559,#583,#483,.T.);
#1138=ADVANCED_FACE('',(#1137),#1130,.T.);
#1145=EDGE_CURVE('',#557,#581,#487,.T.);
#1151=ADVANCED_FACE('',(#1150),#1143,.T.);
#1158=EDGE_CURVE('',#555,#579,#491,.T.);
#1164=ADVANCED_FACE('',(#1163),#1156,.T.);
#1171=EDGE_CURVE('',#554,#578,#495,.T.);
#1177=ADVANCED_FACE('',(#1176),#1169,.T.);
#1184=EDGE_CURVE('',#683,#674,#499,.T.);
#1190=ADVANCED_FACE('',(#1189),#1182,.T.);
#1196=EDGE_CURVE('',#674,#675,#503,.T.);
#1199=EDGE_CURVE('',#681,#683,#507,.T.);
#1201=EDGE_CURVE('',#681,#675,#511,.T.);
#1205=ADVANCED_FACE('',(#1204),#1195,.T.);
#1212=EDGE_CURVE('',#677,#675,#515,.T.);
#1214=EDGE_CURVE('',#677,#671,#527,.T.);
#1219=ADVANCED_FACE('',(#1218),#1210,.T.);
#1227=EDGE_CURVE('',#681,#679,#519,.T.);
#1229=EDGE_CURVE('',#679,#677,#523,.T.);
#1233=ADVANCED_FACE('',(#1232),#1224,.T.);
#1239=EDGE_CURVE('',#667,#679,#531,.T.);
#1246=ADVANCED_FACE('',(#1245),#1238,.T.);
#1255=EDGE_CURVE('',#667,#671,#535,.T.);
#1259=ADVANCED_FACE('',(#1258),#1251,.T.);
#1266=EDGE_CURVE('',#666,#670,#539,.T.);
#1272=ADVANCED_FACE('',(#1271),#1264,.T.);
#1286=ADVANCED_FACE('',(#1285),#1277,.T.);
#1289=(LENGTH_UNIT()NAMED_UNIT(*)SI_UNIT(.MILLI.,.METRE.));
#1290=(NAMED_UNIT(*)PLANE_ANGLE_UNIT()SI_UNIT($,.RADIAN.));
#1293=(NAMED_UNIT(*)SI_UNIT($,.STERADIAN.)SOLID_ANGLE_UNIT());
#1295=(GEOMETRIC_REPRESENTATION_CONTEXT(3)GLOBAL_UNCERTAINTY_ASSIGNED_CONTEXT((
#1294))GLOBAL_UNIT_ASSIGNED_CONTEXT((#1289,#1292,#1293))REPRESENTATION_CONTEXT(
'ID1','3'));
#1296=ADVANCED_BREP_SHAPE_REPRESENTATION('',(#1288),#1295);
#1303=PRODUCT_DEFINITION('part definition','',#1302,#1299);
#1304=PRODUCT_DEFINITION_SHAPE('','SHAPE FOR C-1217754-1.',#1303);
#1305=SHAPE_ASPECT('','solid data associated with C-1217754-1',#1304,.F.);
#1306=PROPERTY_DEFINITION('',
'shape for solid data with which properties are associated',#1305);
#1307=SHAPE_REPRESENTATION('',(#1288),#1295);
#1308=SHAPE_DEFINITION_REPRESENTATION(#1306,#1307);
#1309=(LENGTH_UNIT()NAMED_UNIT(*)SI_UNIT(.MILLI.,.METRE.));
#1313=PROPERTY_DEFINITION('geometric validation property','area of C-1217754-1',
#1305);
#1314=REPRESENTATION('surface area',(#1312),#1295);
#1315=PROPERTY_DEFINITION_REPRESENTATION(#1313,#1314);
#1316=(LENGTH_UNIT()NAMED_UNIT(*)SI_UNIT(.MILLI.,.METRE.));
#1320=PROPERTY_DEFINITION('geometric validation property',
'volume of C-1217754-1',#1305);
#1321=REPRESENTATION('volume',(#1319),#1295);
#1322=PROPERTY_DEFINITION_REPRESENTATION(#1320,#1321);
#1324=PROPERTY_DEFINITION('geometric validation property',
'centroid of C-1217754-1',#1305);
#1325=REPRESENTATION('centroid',(#1323),#1295);
#1326=PROPERTY_DEFINITION_REPRESENTATION(#1324,#1325);
#1327=(LENGTH_UNIT()NAMED_UNIT(*)SI_UNIT(.MILLI.,.METRE.));
#1331=PROPERTY_DEFINITION('geometric validation property','area of C-1217754-1',
#1304);
#1332=REPRESENTATION('surface area',(#1330),#1295);
#1333=PROPERTY_DEFINITION_REPRESENTATION(#1331,#1332);
#1334=(LENGTH_UNIT()NAMED_UNIT(*)SI_UNIT(.MILLI.,.METRE.));
#1338=PROPERTY_DEFINITION('geometric validation property',
'volume of C-1217754-1',#1304);
#1339=REPRESENTATION('volume',(#1337),#1295);
#1340=PROPERTY_DEFINITION_REPRESENTATION(#1338,#1339);
#1342=PROPERTY_DEFINITION('geometric validation property',
'centroid of C-1217754-1',#1304);
#1343=REPRESENTATION('centroid',(#1341),#1295);
#1344=PROPERTY_DEFINITION_REPRESENTATION(#1342,#1343);
#1345=SHAPE_DEFINITION_REPRESENTATION(#1304,#1296);
ENDSEC;
END-ISO-10303-21;
