ISO-10303-21;
HEADER;
FILE_DESCRIPTION (( 'STEP AP214' ),
    '1' );
FILE_NAME ('506D6085-CDB1-45D3-B841-217DDE184418.STEP',
    '2025-05-10T22:02:01',
    ( '' ),
    ( '' ),
    'SwSTEP 2.0',
    'SolidWorks 2022',
    '' );
FILE_SCHEMA (( 'AUTOMOTIVE_DESIGN' ));
ENDSEC;

DATA;
#1 = ORIENTED_EDGE ( 'NONE', *, *, #963, .T. ) ;
#2 = FACE_OUTER_BOUND ( 'NONE', #685, .T. ) ;
#3 = DIRECTION ( 'NONE',  ( -0.0000000000000000000, -0.0000000000000000000, 1.000000000000000000 ) ) ;
#4 = DIRECTION ( 'NONE',  ( 1.000000000000000000, -0.0000000000000000000, -0.0000000000000000000 ) ) ;
#5 = EDGE_CURVE ( 'NONE', #1007, #599, #454, .T. ) ;
#6 = CARTESIAN_POINT ( 'NONE',  ( 1.625000000000000444, -2.220000000000000195, 2.034999999999999698 ) ) ;
#7 = FACE_OUTER_BOUND ( 'NONE', #155, .T. ) ;
#8 = UNCERTAINTY_MEASURE_WITH_UNIT (LENGTH_MEASURE( 1.000000000000000082E-05 ), #854, 'distance_accuracy_value', 'NONE');
#9 = AXIS2_PLACEMENT_3D ( 'NONE', #1115, #389, #188 ) ;
#10 = SURFACE_SIDE_STYLE ('',( #623 ) ) ;
#11 = COLOUR_RGB ( '',0.7529411764705882248, 0.7529411764705882248, 0.7529411764705882248 ) ;
#12 = ORIENTED_EDGE ( 'NONE', *, *, #531, .T. ) ;
#13 = DIRECTION ( 'NONE',  ( 9.767587139509049799E-17, -1.000000000000000000, 0.0000000000000000000 ) ) ;
#14 = STYLED_ITEM ( 'NONE', ( #153 ), #945 ) ;
#15 =( GEOMETRIC_REPRESENTATION_CONTEXT ( 3 ) GLOBAL_UNCERTAINTY_ASSIGNED_CONTEXT ( ( #895 ) ) GLOBAL_UNIT_ASSIGNED_CONTEXT ( ( #252, #529, #702 ) ) REPRESENTATION_CONTEXT ( 'NONE', 'WORKASPACE' ) );
#16 =( LENGTH_UNIT ( ) NAMED_UNIT ( * ) SI_UNIT ( .MILLI., .METRE. ) );
#17 = ORIENTED_EDGE ( 'NONE', *, *, #673, .T. ) ;
#18 = FACE_OUTER_BOUND ( 'NONE', #137, .T. ) ;
#19 = LINE ( 'NONE', #139, #791 ) ;
#20 = PLANE ( 'NONE',  #790 ) ;
#21 =( LENGTH_UNIT ( ) NAMED_UNIT ( * ) SI_UNIT ( .MILLI., .METRE. ) );
#22 = CARTESIAN_POINT ( 'NONE',  ( -1.624999999999999334, 2.219999999999999751, -1.359313052742838392E-16 ) ) ;
#23 = SURFACE_STYLE_USAGE ( .BOTH. , #10 ) ;
#24 = CARTESIAN_POINT ( 'NONE',  ( -1.624999999999999778, -2.254999999999999893, 0.03500000000000014211 ) ) ;
#25 = CYLINDRICAL_SURFACE ( 'NONE', #712, 0.5028517505437577473 ) ;
#26 = CARTESIAN_POINT ( 'NONE',  ( -2.720000000000000195, -2.220000000000000195, 0.0000000000000000000 ) ) ;
#27 = VERTEX_POINT ( 'NONE', #22 ) ;
#28 = SURFACE_STYLE_USAGE ( .BOTH. , #596 ) ;
#29 = AXIS2_PLACEMENT_3D ( 'NONE', #979, #1162, #703 ) ;
#30 = LINE ( 'NONE', #666, #888 ) ;
#31 =( GEOMETRIC_REPRESENTATION_CONTEXT ( 3 ) GLOBAL_UNCERTAINTY_ASSIGNED_CONTEXT ( ( #683 ) ) GLOBAL_UNIT_ASSIGNED_CONTEXT ( ( #465, #457, #1096 ) ) REPRESENTATION_CONTEXT ( 'NONE', 'WORKASPACE' ) );
#32 = EDGE_LOOP ( 'NONE', ( #84, #1032, #926, #1135 ) ) ;
#33 = EDGE_CURVE ( 'NONE', #1054, #664, #1098, .T. ) ;
#34 =( GEOMETRIC_REPRESENTATION_CONTEXT ( 3 ) GLOBAL_UNCERTAINTY_ASSIGNED_CONTEXT ( ( #110 ) ) GLOBAL_UNIT_ASSIGNED_CONTEXT ( ( #1044, #1128, #210 ) ) REPRESENTATION_CONTEXT ( 'NONE', 'WORKASPACE' ) );
#35 = CARTESIAN_POINT ( 'NONE',  ( -1.625000000000000000, 2.220000000000000195, 2.000000000000000000 ) ) ;
#36 = ORIENTED_EDGE ( 'NONE', *, *, #388, .F. ) ;
#37 = FACE_OUTER_BOUND ( 'NONE', #304, .T. ) ;
#38 = UNCERTAINTY_MEASURE_WITH_UNIT (LENGTH_MEASURE( 1.000000000000000082E-05 ), #433, 'distance_accuracy_value', 'NONE');
#39 = ORIENTED_EDGE ( 'NONE', *, *, #843, .F. ) ;
#40 = DIRECTION ( 'NONE',  ( -9.767587139509048566E-17, 1.000000000000000000, -0.0000000000000000000 ) ) ;
#41 = DIRECTION ( 'NONE',  ( -9.615983791445715177E-17, -1.000000000000000000, 6.123031769111886291E-17 ) ) ;
#42 = DIRECTION ( 'NONE',  ( -1.000000000000000000, -0.0000000000000000000, -0.0000000000000000000 ) ) ;
#43 = CARTESIAN_POINT ( 'NONE',  ( -2.720000000000000195, -2.220000000000000195, 0.0000000000000000000 ) ) ;
#44 = ORIENTED_EDGE ( 'NONE', *, *, #228, .F. ) ;
#45 =( LENGTH_UNIT ( ) NAMED_UNIT ( * ) SI_UNIT ( .MILLI., .METRE. ) );
#46 = FILL_AREA_STYLE ('',( #774 ) ) ;
#47 = FILL_AREA_STYLE ('',( #315 ) ) ;
#48 = VECTOR ( 'NONE', #54, 1000.000000000000000 ) ;
#49 = ORIENTED_EDGE ( 'NONE', *, *, #1083, .F. ) ;
#50 =( GEOMETRIC_REPRESENTATION_CONTEXT ( 3 ) GLOBAL_UNCERTAINTY_ASSIGNED_CONTEXT ( ( #38 ) ) GLOBAL_UNIT_ASSIGNED_CONTEXT ( ( #433, #992, #173 ) ) REPRESENTATION_CONTEXT ( 'NONE', 'WORKASPACE' ) );
#51 = VECTOR ( 'NONE', #795, 1000.000000000000000 ) ;
#52 = DIRECTION ( 'NONE',  ( -1.000000000000000000, 0.0000000000000000000, -0.0000000000000000000 ) ) ;
#53 = STYLED_ITEM ( 'NONE', ( #98 ), #1031 ) ;
#54 = DIRECTION ( 'NONE',  ( -1.000000000000000000, 0.0000000000000000000, 0.0000000000000000000 ) ) ;
#55 = FACE_OUTER_BOUND ( 'NONE', #115, .T. ) ;
#56 = EDGE_LOOP ( 'NONE', ( #936, #393, #464, #1037 ) ) ;
#57 = CARTESIAN_POINT ( 'NONE',  ( 2.719999999999999751, 2.220000000000000195, 2.000000000000000000 ) ) ;
#58 = SURFACE_STYLE_USAGE ( .BOTH. , #954 ) ;
#59 = UNCERTAINTY_MEASURE_WITH_UNIT (LENGTH_MEASURE( 1.000000000000000082E-05 ), #407, 'distance_accuracy_value', 'NONE');
#60 =( LENGTH_UNIT ( ) NAMED_UNIT ( * ) SI_UNIT ( .MILLI., .METRE. ) );
#61 = ORIENTED_EDGE ( 'NONE', *, *, #1086, .F. ) ;
#62 = CARTESIAN_POINT ( 'NONE',  ( 1.624999999999999334, 2.220000000000000195, 2.000000000000000000 ) ) ;
#63 = CARTESIAN_POINT ( 'NONE',  ( -2.720000000000000639, 2.220000000000000195, 0.0000000000000000000 ) ) ;
#64 = LINE ( 'NONE', #970, #615 ) ;
#65 = CARTESIAN_POINT ( 'NONE',  ( 1.624999999999999334, -2.254999999999999893, 0.03500000000000014211 ) ) ;
#66 = CARTESIAN_POINT ( 'NONE',  ( 2.719999999999999751, 2.220000000000000195, 0.0000000000000000000 ) ) ;
#67 = ORIENTED_EDGE ( 'NONE', *, *, #697, .F. ) ;
#68 = CARTESIAN_POINT ( 'NONE',  ( -2.720000000000000639, 2.220000000000000195, 2.000000000000000000 ) ) ;
#69 = SURFACE_STYLE_USAGE ( .BOTH. , #994 ) ;
#70 = EDGE_CURVE ( 'NONE', #544, #515, #669, .T. ) ;
#71 = DIRECTION ( 'NONE',  ( 0.0000000000000000000, -1.000000000000000000, 0.0000000000000000000 ) ) ;
#72 = VECTOR ( 'NONE', #706, 1000.000000000000000 ) ;
#73 = FILL_AREA_STYLE ('',( #267 ) ) ;
#74 = AXIS2_PLACEMENT_3D ( 'NONE', #385, #94, #551 ) ;
#75 = DIRECTION ( 'NONE',  ( -1.000000000000000000, 0.0000000000000000000, 0.0000000000000000000 ) ) ;
#76 =( GEOMETRIC_REPRESENTATION_CONTEXT ( 3 ) GLOBAL_UNCERTAINTY_ASSIGNED_CONTEXT ( ( #122 ) ) GLOBAL_UNIT_ASSIGNED_CONTEXT ( ( #191, #540, #632 ) ) REPRESENTATION_CONTEXT ( 'NONE', 'WORKASPACE' ) );
#77 = AXIS2_PLACEMENT_3D ( 'NONE', #903, #92, #547 ) ;
#78 = ORIENTED_EDGE ( 'NONE', *, *, #748, .T. ) ;
#79 = CARTESIAN_POINT ( 'NONE',  ( -2.720000000000000195, -1.224606353822377258E-16, 2.000000000000000000 ) ) ;
#80 = DIRECTION ( 'NONE',  ( -0.0000000000000000000, -0.0000000000000000000, -1.000000000000000000 ) ) ;
#81 = SURFACE_SIDE_STYLE ('',( #808 ) ) ;
#82 = EDGE_CURVE ( 'NONE', #180, #255, #161, .T. ) ;
#83 = SURFACE_SIDE_STYLE ('',( #158 ) ) ;
#84 = ORIENTED_EDGE ( 'NONE', *, *, #400, .T. ) ;
#85 = CARTESIAN_POINT ( 'NONE',  ( -1.625000000000000222, 2.220000000000000195, 2.034999999999999698 ) ) ;
#86 =( NAMED_UNIT ( * ) PLANE_ANGLE_UNIT ( ) SI_UNIT ( $, .RADIAN. ) );
#87 = CARTESIAN_POINT ( 'NONE',  ( -1.624999999999999334, 2.219999999999999751, 0.03499999999999987149 ) ) ;
#88 = LINE ( 'NONE', #776, #133 ) ;
#89 = ADVANCED_FACE ( 'NONE', ( #136 ), #971, .F. ) ;
#90 = DIRECTION ( 'NONE',  ( -0.0000000000000000000, -0.0000000000000000000, -1.000000000000000000 ) ) ;
#91 = LINE ( 'NONE', #536, #51 ) ;
#92 = DIRECTION ( 'NONE',  ( 1.000000000000000000, 9.767587139509049799E-17, -0.0000000000000000000 ) ) ;
#93 = PRESENTATION_LAYER_ASSIGNMENT (  '', '', ( #423 ) ) ;
#94 = DIRECTION ( 'NONE',  ( 0.0000000000000000000, -6.123031769111886291E-17, -1.000000000000000000 ) ) ;
#95 = PRESENTATION_LAYER_ASSIGNMENT (  '', '', ( #815 ) ) ;
#96 = EDGE_CURVE ( 'NONE', #664, #862, #861, .T. ) ;
#97 =( LENGTH_UNIT ( ) NAMED_UNIT ( * ) SI_UNIT ( .MILLI., .METRE. ) );
#98 = PRESENTATION_STYLE_ASSIGNMENT (( #530 ) ) ;
#99 = DIRECTION ( 'NONE',  ( -0.0000000000000000000, -0.0000000000000000000, 1.000000000000000000 ) ) ;
#100 = SURFACE_STYLE_FILL_AREA ( #1106 ) ;
#101 = SURFACE_SIDE_STYLE ('',( #657 ) ) ;
#102 = SURFACE_STYLE_FILL_AREA ( #840 ) ;
#103 = ORIENTED_EDGE ( 'NONE', *, *, #878, .T. ) ;
#104 = FILL_AREA_STYLE_COLOUR ( '', #144 ) ;
#105 = PLANE ( 'NONE',  #238 ) ;
#106 =( LENGTH_UNIT ( ) NAMED_UNIT ( * ) SI_UNIT ( .MILLI., .METRE. ) );
#107 = UNCERTAINTY_MEASURE_WITH_UNIT (LENGTH_MEASURE( 1.000000000000000082E-05 ), #21, 'distance_accuracy_value', 'NONE');
#108 = EDGE_CURVE ( 'NONE', #211, #290, #863, .T. ) ;
#109 = DIRECTION ( 'NONE',  ( -9.615983791445715177E-17, 1.000000000000000000, -0.0000000000000000000 ) ) ;
#110 = UNCERTAINTY_MEASURE_WITH_UNIT (LENGTH_MEASURE( 1.000000000000000082E-05 ), #1044, 'distance_accuracy_value', 'NONE');
#111 = CARTESIAN_POINT ( 'NONE',  ( 1.236867777919314904, 2.254999999999999893, 2.034899999999999931 ) ) ;
#112 = VECTOR ( 'NONE', #793, 1000.000000000000000 ) ;
#113 =( NAMED_UNIT ( * ) SI_UNIT ( $, .STERADIAN. ) SOLID_ANGLE_UNIT ( ) );
#114 =( GEOMETRIC_REPRESENTATION_CONTEXT ( 3 ) GLOBAL_UNCERTAINTY_ASSIGNED_CONTEXT ( ( #607 ) ) GLOBAL_UNIT_ASSIGNED_CONTEXT ( ( #577, #857, #249 ) ) REPRESENTATION_CONTEXT ( 'NONE', 'WORKASPACE' ) );
#115 = EDGE_LOOP ( 'NONE', ( #430, #1123, #772, #1120, #1030, #413, #36 ) ) ;
#116 = CARTESIAN_POINT ( 'NONE',  ( -2.720000000000000195, -2.220000000000000195, 0.0000000000000000000 ) ) ;
#117 = DIRECTION ( 'NONE',  ( 1.000000000000000000, 0.0000000000000000000, 0.0000000000000000000 ) ) ;
#118 = LINE ( 'NONE', #24, #651 ) ;
#119 = DIRECTION ( 'NONE',  ( 0.0000000000000000000, -0.0000000000000000000, -1.000000000000000000 ) ) ;
#120 = DIRECTION ( 'NONE',  ( 9.767587139509048566E-17, -1.000000000000000000, 0.0000000000000000000 ) ) ;
#121 = ORIENTED_EDGE ( 'NONE', *, *, #957, .F. ) ;
#122 = UNCERTAINTY_MEASURE_WITH_UNIT (LENGTH_MEASURE( 1.000000000000000082E-05 ), #191, 'distance_accuracy_value', 'NONE');
#123 = ORIENTED_EDGE ( 'NONE', *, *, #96, .F. ) ;
#124 = PLANE ( 'NONE',  #395 ) ;
#125 = ORIENTED_EDGE ( 'NONE', *, *, #415, .T. ) ;
#126 = CARTESIAN_POINT ( 'NONE',  ( 2.719999999999999751, 2.220000000000000195, 2.000000000000000000 ) ) ;
#127 = SURFACE_STYLE_FILL_AREA ( #47 ) ;
#128 =( GEOMETRIC_REPRESENTATION_CONTEXT ( 3 ) GLOBAL_UNCERTAINTY_ASSIGNED_CONTEXT ( ( #781 ) ) GLOBAL_UNIT_ASSIGNED_CONTEXT ( ( #451, #820, #194 ) ) REPRESENTATION_CONTEXT ( 'NONE', 'WORKASPACE' ) );
#129 = MECHANICAL_DESIGN_GEOMETRIC_PRESENTATION_REPRESENTATION (  '', ( #671 ), #31 ) ;
#130 = ORIENTED_EDGE ( 'NONE', *, *, #819, .T. ) ;
#131 = PRESENTATION_STYLE_ASSIGNMENT (( #877 ) ) ;
#132 = VECTOR ( 'NONE', #745, 1000.000000000000000 ) ;
#133 = VECTOR ( 'NONE', #358, 1000.000000000000000 ) ;
#134 =( LENGTH_UNIT ( ) NAMED_UNIT ( * ) SI_UNIT ( .MILLI., .METRE. ) );
#135 = ORIENTED_EDGE ( 'NONE', *, *, #756, .F. ) ;
#136 = FACE_OUTER_BOUND ( 'NONE', #231, .T. ) ;
#137 = EDGE_LOOP ( 'NONE', ( #1050, #39, #653, #740, #398 ) ) ;
#138 = LINE ( 'NONE', #494, #348 ) ;
#139 = CARTESIAN_POINT ( 'NONE',  ( -1.624999999999999778, -2.254999999999999893, 2.034999999999999698 ) ) ;
#140 = COLOUR_RGB ( '',0.0000000000000000000, 0.7529411764705882248, 0.0000000000000000000 ) ;
#141 = VERTEX_POINT ( 'NONE', #880 ) ;
#142 = CIRCLE ( 'NONE', #948, 0.5000000000000001110 ) ;
#143 = DIRECTION ( 'NONE',  ( 0.0000000000000000000, 0.0000000000000000000, -1.000000000000000000 ) ) ;
#144 = COLOUR_RGB ( '',0.0000000000000000000, 0.7529411764705882248, 0.0000000000000000000 ) ;
#145 = AXIS2_PLACEMENT_3D ( 'NONE', #733, #996, #826 ) ;
#146 = CARTESIAN_POINT ( 'NONE',  ( 2.720000000000000195, -0.5000000000000002220, 0.0000000000000000000 ) ) ;
#147 = DIRECTION ( 'NONE',  ( 0.0000000000000000000, 6.123031769111886291E-17, 1.000000000000000000 ) ) ;
#148 = ORIENTED_EDGE ( 'NONE', *, *, #82, .F. ) ;
#149 = DIRECTION ( 'NONE',  ( 1.000000000000000000, 0.0000000000000000000, 0.0000000000000000000 ) ) ;
#150 = CARTESIAN_POINT ( 'NONE',  ( 1.624999999999999778, 2.220000000000000195, 2.034999999999999698 ) ) ;
#151 = PRESENTATION_STYLE_ASSIGNMENT (( #28 ) ) ;
#152 = CARTESIAN_POINT ( 'NONE',  ( 1.624999999999999334, -2.254999999999999893, 0.03500000000000014211 ) ) ;
#153 = PRESENTATION_STYLE_ASSIGNMENT (( #802 ) ) ;
#154 = EDGE_CURVE ( 'NONE', #1007, #371, #312, .T. ) ;
#155 = EDGE_LOOP ( 'NONE', ( #197, #342, #967, #704 ) ) ;
#156 = EDGE_CURVE ( 'NONE', #955, #849, #696, .T. ) ;
#157 = FILL_AREA_STYLE_COLOUR ( '', #186 ) ;
#158 = SURFACE_STYLE_FILL_AREA ( #346 ) ;
#159 = EDGE_LOOP ( 'NONE', ( #939, #472, #436, #1004 ) ) ;
#160 = PRESENTATION_STYLE_ASSIGNMENT (( #256 ) ) ;
#161 = CIRCLE ( 'NONE', #313, 0.5000000000000000000 ) ;
#162 = CYLINDRICAL_SURFACE ( 'NONE', #350, 0.5028517505437577473 ) ;
#163 =( NAMED_UNIT ( * ) SI_UNIT ( $, .STERADIAN. ) SOLID_ANGLE_UNIT ( ) );
#164 =( GEOMETRIC_REPRESENTATION_CONTEXT ( 3 ) GLOBAL_UNCERTAINTY_ASSIGNED_CONTEXT ( ( #330 ) ) GLOBAL_UNIT_ASSIGNED_CONTEXT ( ( #16, #565, #273 ) ) REPRESENTATION_CONTEXT ( 'NONE', 'WORKASPACE' ) );
#165 = CARTESIAN_POINT ( 'NONE',  ( 2.720000000000000195, -2.220000000000000195, 2.000000000000000000 ) ) ;
#166 = COLOUR_RGB ( '',0.7529411764705882248, 0.7529411764705882248, 0.7529411764705882248 ) ;
#167 = STYLED_ITEM ( 'NONE', ( #641 ), #785 ) ;
#168 =( NAMED_UNIT ( * ) SI_UNIT ( $, .STERADIAN. ) SOLID_ANGLE_UNIT ( ) );
#169 = VECTOR ( 'NONE', #1154, 1000.000000000000000 ) ;
#170 = LINE ( 'NONE', #68, #1114 ) ;
#171 = DIRECTION ( 'NONE',  ( 9.767587139509049799E-17, -1.000000000000000000, 0.0000000000000000000 ) ) ;
#172 = EDGE_CURVE ( 'NONE', #371, #326, #682, .T. ) ;
#173 =( NAMED_UNIT ( * ) SI_UNIT ( $, .STERADIAN. ) SOLID_ANGLE_UNIT ( ) );
#174 = PRODUCT ( '506D6085-CDB1-45D3-B841-217DDE184418', '506D6085-CDB1-45D3-B841-217DDE184418', '', ( #766 ) ) ;
#175 = DIRECTION ( 'NONE',  ( -0.0000000000000000000, -0.0000000000000000000, -1.000000000000000000 ) ) ;
#176 = LINE ( 'NONE', #891, #1022 ) ;
#177 = SURFACE_SIDE_STYLE ('',( #850 ) ) ;
#178 = CARTESIAN_POINT ( 'NONE',  ( -1.624999999999999778, -2.254999999999999893, 2.034999999999999698 ) ) ;
#179 = VECTOR ( 'NONE', #834, 1000.000000000000000 ) ;
#180 = VERTEX_POINT ( 'NONE', #146 ) ;
#181 =( LENGTH_UNIT ( ) NAMED_UNIT ( * ) SI_UNIT ( .MILLI., .METRE. ) );
#182 = CARTESIAN_POINT ( 'NONE',  ( 1.625000000000000444, -2.220000000000000195, 2.034999999999999698 ) ) ;
#183 = VECTOR ( 'NONE', #417, 1000.000000000000000 ) ;
#184 = CYLINDRICAL_SURFACE ( 'NONE', #9, 0.5000000000000001110 ) ;
#185 = COLOUR_RGB ( '',0.7529411764705882248, 0.7529411764705882248, 0.7529411764705882248 ) ;
#186 = COLOUR_RGB ( '',0.7529411764705882248, 0.7529411764705882248, 0.7529411764705882248 ) ;
#187 = DIRECTION ( 'NONE',  ( -0.0000000000000000000, -0.0000000000000000000, 1.000000000000000000 ) ) ;
#188 = DIRECTION ( 'NONE',  ( 0.0000000000000000000, -1.000000000000000000, 6.123031769111886291E-17 ) ) ;
#189 = UNCERTAINTY_MEASURE_WITH_UNIT (LENGTH_MEASURE( 1.000000000000000082E-05 ), #340, 'distance_accuracy_value', 'NONE');
#190 = ORIENTED_EDGE ( 'NONE', *, *, #860, .T. ) ;
#191 =( LENGTH_UNIT ( ) NAMED_UNIT ( * ) SI_UNIT ( .MILLI., .METRE. ) );
#192 = DIRECTION ( 'NONE',  ( -0.0000000000000000000, -0.0000000000000000000, 1.000000000000000000 ) ) ;
#193 = DIRECTION ( 'NONE',  ( 0.0000000000000000000, 0.0000000000000000000, -1.000000000000000000 ) ) ;
#194 =( NAMED_UNIT ( * ) SI_UNIT ( $, .STERADIAN. ) SOLID_ANGLE_UNIT ( ) );
#195 = ORIENTED_EDGE ( 'NONE', *, *, #997, .T. ) ;
#196 = FILL_AREA_STYLE ('',( #461 ) ) ;
#197 = ORIENTED_EDGE ( 'NONE', *, *, #427, .T. ) ;
#198 = AXIS2_PLACEMENT_3D ( 'NONE', #940, #928, #120 ) ;
#199 = CARTESIAN_POINT ( 'NONE',  ( -2.720000000000000195, -0.5028517505437577473, 0.0000000000000000000 ) ) ;
#200 = PRESENTATION_LAYER_ASSIGNMENT (  '', '', ( #591 ) ) ;
#201 = VECTOR ( 'NONE', #90, 1000.000000000000000 ) ;
#202 = VECTOR ( 'NONE', #308, 1000.000000000000000 ) ;
#203 = FACE_OUTER_BOUND ( 'NONE', #1090, .T. ) ;
#204 = SURFACE_STYLE_USAGE ( .BOTH. , #853 ) ;
#205 = STYLED_ITEM ( 'NONE', ( #847 ), #1122 ) ;
#206 = EDGE_CURVE ( 'NONE', #250, #310, #763, .T. ) ;
#207 = VERTEX_POINT ( 'NONE', #1140 ) ;
#208 =( NAMED_UNIT ( * ) PLANE_ANGLE_UNIT ( ) SI_UNIT ( $, .RADIAN. ) );
#209 = ADVANCED_FACE ( 'NONE', ( #1147 ), #329, .T. ) ;
#210 =( NAMED_UNIT ( * ) SI_UNIT ( $, .STERADIAN. ) SOLID_ANGLE_UNIT ( ) );
#211 = VERTEX_POINT ( 'NONE', #995 ) ;
#212 = CARTESIAN_POINT ( 'NONE',  ( 1.624999999999999778, 2.219999999999999751, -1.359313052742838392E-16 ) ) ;
#213 = ORIENTED_EDGE ( 'NONE', *, *, #388, .T. ) ;
#214 = DIRECTION ( 'NONE',  ( 0.0000000000000000000, -0.0000000000000000000, 1.000000000000000000 ) ) ;
#215 = EDGE_CURVE ( 'NONE', #290, #582, #717, .T. ) ;
#216 = ORIENTED_EDGE ( 'NONE', *, *, #1100, .T. ) ;
#217 = LINE ( 'NONE', #575, #908 ) ;
#218 = ORIENTED_EDGE ( 'NONE', *, *, #172, .T. ) ;
#219 = STYLED_ITEM ( 'NONE', ( #643 ), #303 ) ;
#220 = EDGE_CURVE ( 'NONE', #255, #1142, #974, .T. ) ;
#221 = EDGE_LOOP ( 'NONE', ( #679, #288, #913, #386, #699, #1034 ) ) ;
#222 = VECTOR ( 'NONE', #817, 1000.000000000000000 ) ;
#223 = PRESENTATION_LAYER_ASSIGNMENT (  '', '', ( #205 ) ) ;
#224 =( NAMED_UNIT ( * ) SI_UNIT ( $, .STERADIAN. ) SOLID_ANGLE_UNIT ( ) );
#225 = FACE_OUTER_BOUND ( 'NONE', #636, .T. ) ;
#226 = VERTEX_POINT ( 'NONE', #514 ) ;
#227 =( NAMED_UNIT ( * ) PLANE_ANGLE_UNIT ( ) SI_UNIT ( $, .RADIAN. ) );
#228 = EDGE_CURVE ( 'NONE', #856, #1088, #616, .T. ) ;
#229 = CARTESIAN_POINT ( 'NONE',  ( 1.625000000000000000, 2.254999999999999893, 2.034899999999999931 ) ) ;
#230 = DIRECTION ( 'NONE',  ( -0.0000000000000000000, 0.0000000000000000000, 1.000000000000000000 ) ) ;
#231 = EDGE_LOOP ( 'NONE', ( #838, #859, #563, #1158 ) ) ;
#232 = DIRECTION ( 'NONE',  ( 0.0000000000000000000, 0.0000000000000000000, 1.000000000000000000 ) ) ;
#233 =( NAMED_UNIT ( * ) SI_UNIT ( $, .STERADIAN. ) SOLID_ANGLE_UNIT ( ) );
#234 = UNCERTAINTY_MEASURE_WITH_UNIT (LENGTH_MEASURE( 1.000000000000000082E-05 ), #181, 'distance_accuracy_value', 'NONE');
#235 = VERTEX_POINT ( 'NONE', #165 ) ;
#236 = VECTOR ( 'NONE', #40, 1000.000000000000000 ) ;
#237 = APPLICATION_PROTOCOL_DEFINITION ( 'draft international standard', 'automotive_design', 1998, #910 ) ;
#238 = AXIS2_PLACEMENT_3D ( 'NONE', #569, #1014, #552 ) ;
#239 = DIRECTION ( 'NONE',  ( 1.000000000000000000, 0.0000000000000000000, 0.0000000000000000000 ) ) ;
#240 = SURFACE_STYLE_FILL_AREA ( #752 ) ;
#241 = MECHANICAL_DESIGN_GEOMETRIC_PRESENTATION_REPRESENTATION (  '', ( #336 ), #76 ) ;
#242 = DIRECTION ( 'NONE',  ( 1.000000000000000000, 0.0000000000000000000, 0.0000000000000000000 ) ) ;
#243 =( GEOMETRIC_REPRESENTATION_CONTEXT ( 3 ) GLOBAL_UNCERTAINTY_ASSIGNED_CONTEXT ( ( #548 ) ) GLOBAL_UNIT_ASSIGNED_CONTEXT ( ( #458, #642, #113 ) ) REPRESENTATION_CONTEXT ( 'NONE', 'WORKASPACE' ) );
#244 = EDGE_CURVE ( 'NONE', #751, #290, #1084, .T. ) ;
#245 = ADVANCED_FACE ( 'NONE', ( #271 ), #801, .F. ) ;
#246 = ORIENTED_EDGE ( 'NONE', *, *, #803, .T. ) ;
#247 = DIRECTION ( 'NONE',  ( -0.0000000000000000000, 0.0000000000000000000, 1.000000000000000000 ) ) ;
#248 = CARTESIAN_POINT ( 'NONE',  ( 1.625000000000000000, 2.254999999999999893, 2.034999999999999698 ) ) ;
#249 =( NAMED_UNIT ( * ) SI_UNIT ( $, .STERADIAN. ) SOLID_ANGLE_UNIT ( ) );
#250 = VERTEX_POINT ( 'NONE', #87 ) ;
#251 = FILL_AREA_STYLE ('',( #1067 ) ) ;
#252 =( LENGTH_UNIT ( ) NAMED_UNIT ( * ) SI_UNIT ( .MILLI., .METRE. ) );
#253 = PRESENTATION_STYLE_ASSIGNMENT (( #1153 ) ) ;
#254 = FILL_AREA_STYLE_COLOUR ( '', #462 ) ;
#255 = VERTEX_POINT ( 'NONE', #357 ) ;
#256 = SURFACE_STYLE_USAGE ( .BOTH. , #611 ) ;
#257 = ADVANCED_FACE ( 'NONE', ( #521 ), #184, .F. ) ;
#258 = COLOUR_RGB ( '',0.0000000000000000000, 0.5019607843137254832, 0.0000000000000000000 ) ;
#259 = CARTESIAN_POINT ( 'NONE',  ( -1.625000000000000222, 2.219999999999999751, 2.000000000000000000 ) ) ;
#260 = AXIS2_PLACEMENT_3D ( 'NONE', #985, #334, #784 ) ;
#261 = CARTESIAN_POINT ( 'NONE',  ( -2.720000000000000639, 2.220000000000000195, 2.000000000000000000 ) ) ;
#262 = VECTOR ( 'NONE', #1101, 1000.000000000000000 ) ;
#263 = DIRECTION ( 'NONE',  ( 9.615983791445715177E-17, 1.000000000000000000, -6.123031769111886291E-17 ) ) ;
#264 = MECHANICAL_DESIGN_GEOMETRIC_PRESENTATION_REPRESENTATION (  '', ( #691 ), #950 ) ;
#265 = STYLED_ITEM ( 'NONE', ( #131 ), #1045 ) ;
#266 = CARTESIAN_POINT ( 'NONE',  ( -2.217148249456242670, -1.224606353822377258E-16, 0.0000000000000000000 ) ) ;
#267 = FILL_AREA_STYLE_COLOUR ( '', #441 ) ;
#268 = EDGE_CURVE ( 'NONE', #211, #1054, #475, .T. ) ;
#269 = PRESENTATION_STYLE_ASSIGNMENT (( #69 ) ) ;
#270 = PRESENTATION_STYLE_ASSIGNMENT (( #884 ) ) ;
#271 = FACE_OUTER_BOUND ( 'NONE', #852, .T. ) ;
#272 = LINE ( 'NONE', #907, #1000 ) ;
#273 =( NAMED_UNIT ( * ) SI_UNIT ( $, .STERADIAN. ) SOLID_ANGLE_UNIT ( ) );
#274 = COLOUR_RGB ( '',0.7529411764705882248, 0.7529411764705882248, 0.7529411764705882248 ) ;
#275 = VECTOR ( 'NONE', #13, 1000.000000000000000 ) ;
#276 = VERTEX_POINT ( 'NONE', #543 ) ;
#277 = FILL_AREA_STYLE_COLOUR ( '', #1116 ) ;
#278 = COLOUR_RGB ( '',0.0000000000000000000, 0.7529411764705882248, 0.0000000000000000000 ) ;
#279 = CARTESIAN_POINT ( 'NONE',  ( -1.625000000000000222, 2.219999999999999751, 2.034999999999999698 ) ) ;
#280 = FILL_AREA_STYLE_COLOUR ( '', #1168 ) ;
#281 = FACE_OUTER_BOUND ( 'NONE', #56, .T. ) ;
#282 = ORIENTED_EDGE ( 'NONE', *, *, #756, .T. ) ;
#283 = CARTESIAN_POINT ( 'NONE',  ( 1.624999999999999334, -2.220000000000000195, 0.03500000000000014211 ) ) ;
#284 = UNCERTAINTY_MEASURE_WITH_UNIT (LENGTH_MEASURE( 1.000000000000000082E-05 ), #97, 'distance_accuracy_value', 'NONE');
#285 = SURFACE_STYLE_USAGE ( .BOTH. , #470 ) ;
#286 = DIRECTION ( 'NONE',  ( 0.0000000000000000000, 0.0000000000000000000, 1.000000000000000000 ) ) ;
#287 = CARTESIAN_POINT ( 'NONE',  ( 1.625000000000000444, -2.254999999999999893, 2.034899999999999931 ) ) ;
#288 = ORIENTED_EDGE ( 'NONE', *, *, #215, .T. ) ;
#289 = DIRECTION ( 'NONE',  ( -1.000000000000000000, -9.767587139509049799E-17, 0.0000000000000000000 ) ) ;
#290 = VERTEX_POINT ( 'NONE', #302 ) ;
#291 = CARTESIAN_POINT ( 'NONE',  ( -2.720000000000000639, 2.220000000000000195, 2.000000000000000000 ) ) ;
#292 = EDGE_CURVE ( 'NONE', #483, #307, #1010, .T. ) ;
#293 = SURFACE_SIDE_STYLE ('',( #102 ) ) ;
#294 = STYLED_ITEM ( 'NONE', ( #404 ), #209 ) ;
#295 = ORIENTED_EDGE ( 'NONE', *, *, #156, .T. ) ;
#296 = STYLED_ITEM ( 'NONE', ( #323 ), #341 ) ;
#297 = PLANE ( 'NONE',  #446 ) ;
#298 = SURFACE_STYLE_FILL_AREA ( #492 ) ;
#299 = VECTOR ( 'NONE', #117, 1000.000000000000000 ) ;
#300 = STYLED_ITEM ( 'NONE', ( #151 ), #1085 ) ;
#301 = ORIENTED_EDGE ( 'NONE', *, *, #688, .T. ) ;
#302 = CARTESIAN_POINT ( 'NONE',  ( 1.236867777919315348, -2.254999999999999893, 2.034999999999999698 ) ) ;
#303 = ADVANCED_FACE ( 'NONE', ( #281 ), #570, .F. ) ;
#304 = EDGE_LOOP ( 'NONE', ( #418, #841, #123, #777, #946, #364 ) ) ;
#305 = ORIENTED_EDGE ( 'NONE', *, *, #661, .T. ) ;
#306 =( NAMED_UNIT ( * ) PLANE_ANGLE_UNIT ( ) SI_UNIT ( $, .RADIAN. ) );
#307 = VERTEX_POINT ( 'NONE', #831 ) ;
#308 = DIRECTION ( 'NONE',  ( 1.000000000000000000, 0.0000000000000000000, 0.0000000000000000000 ) ) ;
#309 = UNCERTAINTY_MEASURE_WITH_UNIT (LENGTH_MEASURE( 1.000000000000000082E-05 ), #339, 'distance_accuracy_value', 'NONE');
#310 = VERTEX_POINT ( 'NONE', #35 ) ;
#311 =( LENGTH_UNIT ( ) NAMED_UNIT ( * ) SI_UNIT ( .MILLI., .METRE. ) );
#312 = LINE ( 'NONE', #65, #865 ) ;
#313 = AXIS2_PLACEMENT_3D ( 'NONE', #324, #962, #242 ) ;
#314 = AXIS2_PLACEMENT_3D ( 'NONE', #378, #738, #1104 ) ;
#315 = FILL_AREA_STYLE_COLOUR ( '', #592 ) ;
#316 = AXIS2_PLACEMENT_3D ( 'NONE', #1131, #1056, #239 ) ;
#317 = STYLED_ITEM ( 'NONE', ( #160 ), #718 ) ;
#318 = ORIENTED_EDGE ( 'NONE', *, *, #845, .F. ) ;
#319 = STYLED_ITEM ( 'NONE', ( #1119 ), #906 ) ;
#320 = FILL_AREA_STYLE_COLOUR ( '', #828 ) ;
#321 =( NAMED_UNIT ( * ) SI_UNIT ( $, .STERADIAN. ) SOLID_ANGLE_UNIT ( ) );
#322 = ORIENTED_EDGE ( 'NONE', *, *, #708, .F. ) ;
#323 = PRESENTATION_STYLE_ASSIGNMENT (( #773 ) ) ;
#324 = CARTESIAN_POINT ( 'NONE',  ( 2.720000000000000195, -1.224606353822377258E-16, 0.0000000000000000000 ) ) ;
#325 = SURFACE_STYLE_USAGE ( .BOTH. , #83 ) ;
#326 = VERTEX_POINT ( 'NONE', #466 ) ;
#327 = DIRECTION ( 'NONE',  ( 0.0000000000000000000, -0.0000000000000000000, -1.000000000000000000 ) ) ;
#328 = EDGE_CURVE ( 'NONE', #1109, #568, #737, .T. ) ;
#329 = PLANE ( 'NONE',  #29 ) ;
#330 = UNCERTAINTY_MEASURE_WITH_UNIT (LENGTH_MEASURE( 1.000000000000000082E-05 ), #16, 'distance_accuracy_value', 'NONE');
#331 = CARTESIAN_POINT ( 'NONE',  ( 1.624999999999999778, 2.254999999999999893, 0.03499999999999987149 ) ) ;
#332 = ORIENTED_EDGE ( 'NONE', *, *, #1174, .F. ) ;
#333 = CARTESIAN_POINT ( 'NONE',  ( -2.720000000000000195, -2.220000000000000195, 2.000000000000000000 ) ) ;
#334 = DIRECTION ( 'NONE',  ( 0.0000000000000000000, 0.0000000000000000000, 1.000000000000000000 ) ) ;
#335 = PRESENTATION_LAYER_ASSIGNMENT (  '', '', ( #408 ) ) ;
#336 = STYLED_ITEM ( 'NONE', ( #622 ), #1015 ) ;
#337 = CARTESIAN_POINT ( 'NONE',  ( 1.236867777919314904, 2.254999999999999893, 2.034899999999999931 ) ) ;
#338 = ADVANCED_FACE ( 'NONE', ( #396 ), #1097, .T. ) ;
#339 =( LENGTH_UNIT ( ) NAMED_UNIT ( * ) SI_UNIT ( .MILLI., .METRE. ) );
#340 =( LENGTH_UNIT ( ) NAMED_UNIT ( * ) SI_UNIT ( .MILLI., .METRE. ) );
#341 = ADVANCED_FACE ( 'NONE', ( #583 ), #1139, .F. ) ;
#342 = ORIENTED_EDGE ( 'NONE', *, *, #764, .T. ) ;
#343 =( NAMED_UNIT ( * ) PLANE_ANGLE_UNIT ( ) SI_UNIT ( $, .RADIAN. ) );
#344 =( NAMED_UNIT ( * ) SI_UNIT ( $, .STERADIAN. ) SOLID_ANGLE_UNIT ( ) );
#345 = FILL_AREA_STYLE_COLOUR ( '', #580 ) ;
#346 = FILL_AREA_STYLE ('',( #254 ) ) ;
#347 = SURFACE_STYLE_USAGE ( .BOTH. , #1159 ) ;
#348 = VECTOR ( 'NONE', #668, 1000.000000000000000 ) ;
#349 = CARTESIAN_POINT ( 'NONE',  ( 1.624999999999999334, -2.220000000000000195, 1.359313052742838885E-16 ) ) ;
#350 = AXIS2_PLACEMENT_3D ( 'NONE', #518, #705, #715 ) ;
#351 = VECTOR ( 'NONE', #837, 1000.000000000000000 ) ;
#352 = MECHANICAL_DESIGN_GEOMETRIC_PRESENTATION_REPRESENTATION (  '', ( #300 ), #114 ) ;
#353 =( NAMED_UNIT ( * ) SI_UNIT ( $, .STERADIAN. ) SOLID_ANGLE_UNIT ( ) );
#354 =( GEOMETRIC_REPRESENTATION_CONTEXT ( 3 ) GLOBAL_UNCERTAINTY_ASSIGNED_CONTEXT ( ( #566 ) ) GLOBAL_UNIT_ASSIGNED_CONTEXT ( ( #106, #935, #1029 ) ) REPRESENTATION_CONTEXT ( 'NONE', 'WORKASPACE' ) );
#355 = FACE_OUTER_BOUND ( 'NONE', #1150, .T. ) ;
#356 = LINE ( 'NONE', #800, #499 ) ;
#357 = CARTESIAN_POINT ( 'NONE',  ( 2.720000000000000195, 0.5000000000000000000, -3.061515884555943762E-17 ) ) ;
#358 = DIRECTION ( 'NONE',  ( -9.615983791445715177E-17, -1.000000000000000000, 6.123031769111886291E-17 ) ) ;
#359 = CARTESIAN_POINT ( 'NONE',  ( -2.720000000000000195, -0.5028517505437578583, 2.000000000000000000 ) ) ;
#360 = SURFACE_STYLE_USAGE ( .BOTH. , #893 ) ;
#361 = EDGE_CURVE ( 'NONE', #1105, #568, #138, .T. ) ;
#362 = CARTESIAN_POINT ( 'NONE',  ( 1.236867777919314904, 2.254999999999999893, 2.034999999999999698 ) ) ;
#363 = EDGE_CURVE ( 'NONE', #825, #141, #762, .T. ) ;
#364 = ORIENTED_EDGE ( 'NONE', *, *, #902, .T. ) ;
#365 =( LENGTH_UNIT ( ) NAMED_UNIT ( * ) SI_UNIT ( .MILLI., .METRE. ) );
#366 = CARTESIAN_POINT ( 'NONE',  ( 2.720000000000000195, 0.5000000000000001110, 2.000000000000000000 ) ) ;
#367 = ORIENTED_EDGE ( 'NONE', *, *, #533, .T. ) ;
#368 = PRESENTATION_STYLE_ASSIGNMENT (( #285 ) ) ;
#369 = SURFACE_STYLE_USAGE ( .BOTH. , #101 ) ;
#370 = VECTOR ( 'NONE', #175, 1000.000000000000000 ) ;
#371 = VERTEX_POINT ( 'NONE', #866 ) ;
#372 = SURFACE_SIDE_STYLE ('',( #922 ) ) ;
#373 = PRESENTATION_LAYER_ASSIGNMENT (  '', '', ( #1059 ) ) ;
#374 = MECHANICAL_DESIGN_GEOMETRIC_PRESENTATION_REPRESENTATION (  '', ( #53 ), #984 ) ;
#375 = CARTESIAN_POINT ( 'NONE',  ( -2.720000000000000639, 2.220000000000000195, 2.000000000000000000 ) ) ;
#376 = VECTOR ( 'NONE', #839, 1000.000000000000000 ) ;
#377 = DIRECTION ( 'NONE',  ( 9.615983791445715177E-17, 1.000000000000000000, -6.123031769111886291E-17 ) ) ;
#378 = CARTESIAN_POINT ( 'NONE',  ( -2.720000000000000195, -1.224606353822377258E-16, 0.0000000000000000000 ) ) ;
#379 = ADVANCED_FACE ( 'NONE', ( #680 ), #969, .F. ) ;
#380 = LINE ( 'NONE', #918, #351 ) ;
#381 = DIRECTION ( 'NONE',  ( 1.000000000000000000, 9.767587139509048566E-17, -0.0000000000000000000 ) ) ;
#382 = FILL_AREA_STYLE_COLOUR ( '', #1093 ) ;
#383 = ORIENTED_EDGE ( 'NONE', *, *, #154, .F. ) ;
#384 = DIRECTION ( 'NONE',  ( 9.767587139509048566E-17, -1.000000000000000000, 0.0000000000000000000 ) ) ;
#385 = CARTESIAN_POINT ( 'NONE',  ( -1.624999999999999334, 2.254999999999999893, 0.03499999999999987149 ) ) ;
#386 = ORIENTED_EDGE ( 'NONE', *, *, #172, .F. ) ;
#387 = SURFACE_STYLE_FILL_AREA ( #564 ) ;
#388 = EDGE_CURVE ( 'NONE', #276, #515, #507, .T. ) ;
#389 = DIRECTION ( 'NONE',  ( 0.0000000000000000000, 6.123031769111886291E-17, 1.000000000000000000 ) ) ;
#390 = ORIENTED_EDGE ( 'NONE', *, *, #497, .F. ) ;
#391 = DIRECTION ( 'NONE',  ( -0.0000000000000000000, -0.0000000000000000000, 1.000000000000000000 ) ) ;
#392 = AXIS2_PLACEMENT_3D ( 'NONE', #43, #230, #586 ) ;
#393 = ORIENTED_EDGE ( 'NONE', *, *, #220, .T. ) ;
#394 = CARTESIAN_POINT ( 'NONE',  ( -2.720000000000000195, -1.224606353822377258E-16, 0.0000000000000000000 ) ) ;
#395 = AXIS2_PLACEMENT_3D ( 'NONE', #291, #736, #119 ) ;
#396 = FACE_OUTER_BOUND ( 'NONE', #976, .T. ) ;
#397 = FILL_AREA_STYLE ('',( #1027 ) ) ;
#398 = ORIENTED_EDGE ( 'NONE', *, *, #328, .T. ) ;
#399 =( LENGTH_UNIT ( ) NAMED_UNIT ( * ) SI_UNIT ( .MILLI., .METRE. ) );
#400 = EDGE_CURVE ( 'NONE', #226, #180, #217, .T. ) ;
#401 = SURFACE_SIDE_STYLE ('',( #127 ) ) ;
#402 = ORIENTED_EDGE ( 'NONE', *, *, #486, .T. ) ;
#403 = SURFACE_STYLE_USAGE ( .BOTH. , #1126 ) ;
#404 = PRESENTATION_STYLE_ASSIGNMENT (( #58 ) ) ;
#405 = AXIS2_PLACEMENT_3D ( 'NONE', #337, #867, #495 ) ;
#406 = VECTOR ( 'NONE', #900, 1000.000000000000000 ) ;
#407 =( LENGTH_UNIT ( ) NAMED_UNIT ( * ) SI_UNIT ( .MILLI., .METRE. ) );
#408 = STYLED_ITEM ( 'NONE', ( #422 ), #775 ) ;
#409 = ORIENTED_EDGE ( 'NONE', *, *, #688, .F. ) ;
#410 = MECHANICAL_DESIGN_GEOMETRIC_PRESENTATION_REPRESENTATION (  '', ( #753 ), #1132 ) ;
#411 = COLOUR_RGB ( '',0.0000000000000000000, 0.7529411764705882248, 0.0000000000000000000 ) ;
#412 = MECHANICAL_DESIGN_GEOMETRIC_PRESENTATION_REPRESENTATION (  '', ( #265 ), #987 ) ;
#413 = ORIENTED_EDGE ( 'NONE', *, *, #70, .T. ) ;
#414 = CARTESIAN_POINT ( 'NONE',  ( 0.0000000000000000000, 0.0000000000000000000, 0.0000000000000000000 ) ) ;
#415 = EDGE_CURVE ( 'NONE', #599, #501, #91, .T. ) ;
#416 = FILL_AREA_STYLE_COLOUR ( '', #258 ) ;
#417 = DIRECTION ( 'NONE',  ( -0.0000000000000000000, -0.0000000000000000000, 1.000000000000000000 ) ) ;
#418 = ORIENTED_EDGE ( 'NONE', *, *, #1052, .T. ) ;
#419 = CARTESIAN_POINT ( 'NONE',  ( -1.624999999999999778, -2.254999999999999893, 1.380743663934730378E-16 ) ) ;
#420 = MECHANICAL_DESIGN_GEOMETRIC_PRESENTATION_REPRESENTATION (  '', ( #294 ), #534 ) ;
#421 = ORIENTED_EDGE ( 'NONE', *, *, #902, .F. ) ;
#422 = PRESENTATION_STYLE_ASSIGNMENT (( #347 ) ) ;
#423 = STYLED_ITEM ( 'NONE', ( #988 ), #245 ) ;
#424 = STYLED_ITEM ( 'NONE', ( #1008 ), #681 ) ;
#425 = AXIS2_PLACEMENT_3D ( 'NONE', #333, #247, #149 ) ;
#426 = AXIS2_PLACEMENT_3D ( 'NONE', #598, #972, #608 ) ;
#427 = EDGE_CURVE ( 'NONE', #1109, #27, #806, .T. ) ;
#428 = SURFACE_STYLE_FILL_AREA ( #1156 ) ;
#429 = CARTESIAN_POINT ( 'NONE',  ( -1.624999999999999778, -2.254999999999999893, 0.03500000000000014211 ) ) ;
#430 = ORIENTED_EDGE ( 'NONE', *, *, #874, .F. ) ;
#431 =( NAMED_UNIT ( * ) SI_UNIT ( $, .STERADIAN. ) SOLID_ANGLE_UNIT ( ) );
#432 = DIRECTION ( 'NONE',  ( -0.0000000000000000000, -6.123031769111886291E-17, -1.000000000000000000 ) ) ;
#433 =( LENGTH_UNIT ( ) NAMED_UNIT ( * ) SI_UNIT ( .MILLI., .METRE. ) );
#434 = FACE_OUTER_BOUND ( 'NONE', #667, .T. ) ;
#435 = EDGE_CURVE ( 'NONE', #664, #955, #1160, .T. ) ;
#436 = ORIENTED_EDGE ( 'NONE', *, *, #697, .T. ) ;
#437 = PLANE ( 'NONE',  #74 ) ;
#438 = DIRECTION ( 'NONE',  ( -1.065554960673714748E-16, 0.0000000000000000000, -1.000000000000000000 ) ) ;
#439 = CARTESIAN_POINT ( 'NONE',  ( 2.719999999999999751, 2.220000000000000195, 0.0000000000000000000 ) ) ;
#440 = PRESENTATION_LAYER_ASSIGNMENT (  '', '', ( #294 ) ) ;
#441 = COLOUR_RGB ( '',0.0000000000000000000, 0.7529411764705882248, 0.0000000000000000000 ) ;
#442 = CARTESIAN_POINT ( 'NONE',  ( 2.719999999999999751, 2.220000000000000195, 2.000000000000000000 ) ) ;
#443 =( NAMED_UNIT ( * ) PLANE_ANGLE_UNIT ( ) SI_UNIT ( $, .RADIAN. ) );
#444 = MECHANICAL_DESIGN_GEOMETRIC_PRESENTATION_REPRESENTATION (  '', ( #319 ), #34 ) ;
#445 = SURFACE_STYLE_USAGE ( .BOTH. , #559 ) ;
#446 = AXIS2_PLACEMENT_3D ( 'NONE', #605, #71, #807 ) ;
#447 = CARTESIAN_POINT ( 'NONE',  ( -2.720000000000000639, 2.220000000000000195, 2.000000000000000000 ) ) ;
#448 = CARTESIAN_POINT ( 'NONE',  ( 1.236867777919314904, 2.254999999999999893, 2.034899999999999931 ) ) ;
#449 = FACE_OUTER_BOUND ( 'NONE', #1155, .T. ) ;
#450 = PRODUCT_RELATED_PRODUCT_CATEGORY ( 'part', '', ( #174 ) ) ;
#451 =( LENGTH_UNIT ( ) NAMED_UNIT ( * ) SI_UNIT ( .MILLI., .METRE. ) );
#452 =( NAMED_UNIT ( * ) PLANE_ANGLE_UNIT ( ) SI_UNIT ( $, .RADIAN. ) );
#453 = FILL_AREA_STYLE_COLOUR ( '', #11 ) ;
#454 = LINE ( 'NONE', #6, #179 ) ;
#455 = FACE_OUTER_BOUND ( 'NONE', #489, .T. ) ;
#456 = ORIENTED_EDGE ( 'NONE', *, *, #1169, .T. ) ;
#457 =( NAMED_UNIT ( * ) PLANE_ANGLE_UNIT ( ) SI_UNIT ( $, .RADIAN. ) );
#458 =( LENGTH_UNIT ( ) NAMED_UNIT ( * ) SI_UNIT ( .MILLI., .METRE. ) );
#459 = PRESENTATION_LAYER_ASSIGNMENT (  '', '', ( #424 ) ) ;
#460 = ORIENTED_EDGE ( 'NONE', *, *, #154, .T. ) ;
#461 = FILL_AREA_STYLE_COLOUR ( '', #814 ) ;
#462 = COLOUR_RGB ( '',0.7529411764705882248, 0.7529411764705882248, 0.7529411764705882248 ) ;
#463 = COLOUR_RGB ( '',0.7960784313725489669, 0.8235294117647058432, 0.9372549019607843146 ) ;
#464 = ORIENTED_EDGE ( 'NONE', *, *, #572, .F. ) ;
#465 =( LENGTH_UNIT ( ) NAMED_UNIT ( * ) SI_UNIT ( .MILLI., .METRE. ) );
#466 = CARTESIAN_POINT ( 'NONE',  ( -1.624999999999999778, -2.254999999999999893, 0.03500000000000014211 ) ) ;
#467 = EDGE_LOOP ( 'NONE', ( #390, #942, #765, #761, #567 ) ) ;
#468 = UNCERTAINTY_MEASURE_WITH_UNIT (LENGTH_MEASURE( 1.000000000000000082E-05 ), #510, 'distance_accuracy_value', 'NONE');
#469 = FILL_AREA_STYLE ('',( #104 ) ) ;
#470 = SURFACE_SIDE_STYLE ('',( #100 ) ) ;
#471 = FILL_AREA_STYLE ('',( #741 ) ) ;
#472 = ORIENTED_EDGE ( 'NONE', *, *, #788, .F. ) ;
#473 = EDGE_LOOP ( 'NONE', ( #1069, #511, #631, #135, #1138 ) ) ;
#474 = CARTESIAN_POINT ( 'NONE',  ( 2.719999999999999751, 2.220000000000000195, 0.0000000000000000000 ) ) ;
#475 = LINE ( 'NONE', #287, #670 ) ;
#476 = ORIENTED_EDGE ( 'NONE', *, *, #819, .F. ) ;
#477 =( GEOMETRIC_REPRESENTATION_CONTEXT ( 3 ) GLOBAL_UNCERTAINTY_ASSIGNED_CONTEXT ( ( #933 ) ) GLOBAL_UNIT_ASSIGNED_CONTEXT ( ( #399, #227, #873 ) ) REPRESENTATION_CONTEXT ( 'NONE', 'WORKASPACE' ) );
#478 = PLANE ( 'NONE',  #771 ) ;
#479 =( GEOMETRIC_REPRESENTATION_CONTEXT ( 3 ) GLOBAL_UNCERTAINTY_ASSIGNED_CONTEXT ( ( #234 ) ) GLOBAL_UNIT_ASSIGNED_CONTEXT ( ( #181, #86, #344 ) ) REPRESENTATION_CONTEXT ( 'NONE', 'WORKASPACE' ) );
#480 = PRESENTATION_STYLE_ASSIGNMENT (( #581 ) ) ;
#481 = PRESENTATION_LAYER_ASSIGNMENT (  '', '', ( #317 ) ) ;
#482 = COLOUR_RGB ( '',0.7529411764705882248, 0.7529411764705882248, 0.7529411764705882248 ) ;
#483 = VERTEX_POINT ( 'NONE', #349 ) ;
#484 = FILL_AREA_STYLE ('',( #1038 ) ) ;
#485 =( GEOMETRIC_REPRESENTATION_CONTEXT ( 3 ) GLOBAL_UNCERTAINTY_ASSIGNED_CONTEXT ( ( #107 ) ) GLOBAL_UNIT_ASSIGNED_CONTEXT ( ( #21, #686, #506 ) ) REPRESENTATION_CONTEXT ( 'NONE', 'WORKASPACE' ) );
#486 = EDGE_CURVE ( 'NONE', #310, #1105, #513, .T. ) ;
#487 = CARTESIAN_POINT ( 'NONE',  ( -1.624999999999999778, -2.254999999999999893, 0.03500000000000014211 ) ) ;
#488 = LINE ( 'NONE', #116, #202 ) ;
#489 = EDGE_LOOP ( 'NONE', ( #574, #799, #587, #383, #871, #125, #656, #916 ) ) ;
#490 = DIRECTION ( 'NONE',  ( 1.000000000000000000, 0.0000000000000000000, 0.0000000000000000000 ) ) ;
#491 =( LENGTH_UNIT ( ) NAMED_UNIT ( * ) SI_UNIT ( .MILLI., .METRE. ) );
#492 = FILL_AREA_STYLE ('',( #672 ) ) ;
#493 = EDGE_LOOP ( 'NONE', ( #1011, #757, #61, #1130, #148, #121 ) ) ;
#494 = CARTESIAN_POINT ( 'NONE',  ( -1.624999999999999778, -2.220000000000000195, 2.034999999999999698 ) ) ;
#495 = DIRECTION ( 'NONE',  ( 9.615983791445715177E-17, -1.000000000000000000, 0.0000000000000000000 ) ) ;
#496 = VECTOR ( 'NONE', #1053, 1000.000000000000000 ) ;
#497 = EDGE_CURVE ( 'NONE', #501, #849, #624, .T. ) ;
#498 = SURFACE_SIDE_STYLE ('',( #298 ) ) ;
#499 = VECTOR ( 'NONE', #899, 1000.000000000000000 ) ;
#500 = AXIS2_PLACEMENT_3D ( 'NONE', #1124, #760, #214 ) ;
#501 = VERTEX_POINT ( 'NONE', #973 ) ;
#502 =( NAMED_UNIT ( * ) SI_UNIT ( $, .STERADIAN. ) SOLID_ANGLE_UNIT ( ) );
#503 = MECHANICAL_DESIGN_GEOMETRIC_PRESENTATION_REPRESENTATION (  '', ( #815 ), #243 ) ;
#504 = PRESENTATION_STYLE_ASSIGNMENT (( #325 ) ) ;
#505 = ORIENTED_EDGE ( 'NONE', *, *, #361, .T. ) ;
#506 =( NAMED_UNIT ( * ) SI_UNIT ( $, .STERADIAN. ) SOLID_ANGLE_UNIT ( ) );
#507 = LINE ( 'NONE', #63, #855 ) ;
#508 =( NAMED_UNIT ( * ) SI_UNIT ( $, .STERADIAN. ) SOLID_ANGLE_UNIT ( ) );
#509 = CARTESIAN_POINT ( 'NONE',  ( 1.236867777919315348, -2.254999999999999893, 2.034899999999999931 ) ) ;
#510 =( LENGTH_UNIT ( ) NAMED_UNIT ( * ) SI_UNIT ( .MILLI., .METRE. ) );
#511 = ORIENTED_EDGE ( 'NONE', *, *, #874, .T. ) ;
#512 = SURFACE_STYLE_FILL_AREA ( #251 ) ;
#513 = LINE ( 'NONE', #259, #612 ) ;
#514 = CARTESIAN_POINT ( 'NONE',  ( 2.720000000000000195, -0.5000000000000001110, 2.000000000000000000 ) ) ;
#515 = VERTEX_POINT ( 'NONE', #991 ) ;
#516 = PRESENTATION_LAYER_ASSIGNMENT (  '', '', ( #1058 ) ) ;
#517 = VECTOR ( 'NONE', #80, 1000.000000000000000 ) ;
#518 = CARTESIAN_POINT ( 'NONE',  ( -2.720000000000000195, -1.224606353822377258E-16, 0.0000000000000000000 ) ) ;
#519 = PRESENTATION_LAYER_ASSIGNMENT (  '', '', ( #167 ) ) ;
#520 = PRESENTATION_LAYER_ASSIGNMENT (  '', '', ( #753 ) ) ;
#521 = FACE_OUTER_BOUND ( 'NONE', #32, .T. ) ;
#522 = EDGE_CURVE ( 'NONE', #856, #725, #556, .T. ) ;
#523 = LINE ( 'NONE', #617, #169 ) ;
#524 = ORIENTED_EDGE ( 'NONE', *, *, #1083, .T. ) ;
#525 = DIRECTION ( 'NONE',  ( -1.000000000000000000, -0.0000000000000000000, -0.0000000000000000000 ) ) ;
#526 = DIRECTION ( 'NONE',  ( 9.767587139509048566E-17, -1.000000000000000000, 0.0000000000000000000 ) ) ;
#527 = DIRECTION ( 'NONE',  ( 9.615983791445715177E-17, 1.000000000000000000, 0.0000000000000000000 ) ) ;
#528 = CARTESIAN_POINT ( 'NONE',  ( -1.624999999999999778, -2.219999999999999751, 0.03500000000000014211 ) ) ;
#529 =( NAMED_UNIT ( * ) PLANE_ANGLE_UNIT ( ) SI_UNIT ( $, .RADIAN. ) );
#530 = SURFACE_STYLE_USAGE ( .BOTH. , #835 ) ;
#531 = EDGE_CURVE ( 'NONE', #1028, #207, #176, .T. ) ;
#532 =( NAMED_UNIT ( * ) SI_UNIT ( $, .STERADIAN. ) SOLID_ANGLE_UNIT ( ) );
#533 = EDGE_CURVE ( 'NONE', #544, #725, #710, .T. ) ;
#534 =( GEOMETRIC_REPRESENTATION_CONTEXT ( 3 ) GLOBAL_UNCERTAINTY_ASSIGNED_CONTEXT ( ( #734 ) ) GLOBAL_UNIT_ASSIGNED_CONTEXT ( ( #134, #588, #1049 ) ) REPRESENTATION_CONTEXT ( 'NONE', 'WORKASPACE' ) );
#535 = AXIS2_PLACEMENT_3D ( 'NONE', #625, #724, #527 ) ;
#536 = CARTESIAN_POINT ( 'NONE',  ( 1.624999999999999778, 2.220000000000000195, 2.000000000000000000 ) ) ;
#537 = MECHANICAL_DESIGN_GEOMETRIC_PRESENTATION_REPRESENTATION (  '', ( #591 ), #479 ) ;
#538 =( GEOMETRIC_REPRESENTATION_CONTEXT ( 3 ) GLOBAL_UNCERTAINTY_ASSIGNED_CONTEXT ( ( #59 ) ) GLOBAL_UNIT_ASSIGNED_CONTEXT ( ( #407, #1133, #321 ) ) REPRESENTATION_CONTEXT ( 'NONE', 'WORKASPACE' ) );
#539 = PRESENTATION_LAYER_ASSIGNMENT (  '', '', ( #300 ) ) ;
#540 =( NAMED_UNIT ( * ) PLANE_ANGLE_UNIT ( ) SI_UNIT ( $, .RADIAN. ) );
#541 = LINE ( 'NONE', #914, #887 ) ;
#542 = FACE_OUTER_BOUND ( 'NONE', #659, .T. ) ;
#543 = CARTESIAN_POINT ( 'NONE',  ( -2.720000000000000639, 2.220000000000000195, 0.0000000000000000000 ) ) ;
#544 = VERTEX_POINT ( 'NONE', #266 ) ;
#545 = CARTESIAN_POINT ( 'NONE',  ( 1.624999999999999334, -2.254999999999999893, 1.380743663934730378E-16 ) ) ;
#546 = SURFACE_STYLE_USAGE ( .BOTH. , #747 ) ;
#547 = DIRECTION ( 'NONE',  ( -9.767587139509049799E-17, 1.000000000000000000, 0.0000000000000000000 ) ) ;
#548 = UNCERTAINTY_MEASURE_WITH_UNIT (LENGTH_MEASURE( 1.000000000000000082E-05 ), #458, 'distance_accuracy_value', 'NONE');
#549 = ORIENTED_EDGE ( 'NONE', *, *, #228, .T. ) ;
#550 = FILL_AREA_STYLE ('',( #277 ) ) ;
#551 = DIRECTION ( 'NONE',  ( 0.0000000000000000000, 1.000000000000000000, -6.123031769111886291E-17 ) ) ;
#552 = DIRECTION ( 'NONE',  ( -9.767587139509048566E-17, 1.000000000000000000, 0.0000000000000000000 ) ) ;
#553 =( GEOMETRIC_REPRESENTATION_CONTEXT ( 3 ) GLOBAL_UNCERTAINTY_ASSIGNED_CONTEXT ( ( #1137 ) ) GLOBAL_UNIT_ASSIGNED_CONTEXT ( ( #491, #597, #224 ) ) REPRESENTATION_CONTEXT ( 'NONE', 'WORKASPACE' ) );
#554 = CARTESIAN_POINT ( 'NONE',  ( -1.624999999999999778, -2.219999999999999751, 1.359313052742838638E-16 ) ) ;
#555 = VECTOR ( 'NONE', #606, 1000.000000000000000 ) ;
#556 = CIRCLE ( 'NONE', #260, 0.5028517505437577473 ) ;
#557 = CIRCLE ( 'NONE', #630, 0.5028517505437577473 ) ;
#558 = ORIENTED_EDGE ( 'NONE', *, *, #522, .T. ) ;
#559 = SURFACE_SIDE_STYLE ('',( #1018 ) ) ;
#560 = MECHANICAL_DESIGN_GEOMETRIC_PRESENTATION_REPRESENTATION (  '', ( #794 ), #15 ) ;
#561 =( GEOMETRIC_REPRESENTATION_CONTEXT ( 3 ) GLOBAL_UNCERTAINTY_ASSIGNED_CONTEXT ( ( #189 ) ) GLOBAL_UNIT_ASSIGNED_CONTEXT ( ( #340, #443, #163 ) ) REPRESENTATION_CONTEXT ( 'NONE', 'WORKASPACE' ) );
#562 = CARTESIAN_POINT ( 'NONE',  ( -2.720000000000000195, -2.220000000000000195, 2.000000000000000000 ) ) ;
#563 = ORIENTED_EDGE ( 'NONE', *, *, #584, .F. ) ;
#564 = FILL_AREA_STYLE ('',( #637 ) ) ;
#565 =( NAMED_UNIT ( * ) PLANE_ANGLE_UNIT ( ) SI_UNIT ( $, .RADIAN. ) );
#566 = UNCERTAINTY_MEASURE_WITH_UNIT (LENGTH_MEASURE( 1.000000000000000082E-05 ), #106, 'distance_accuracy_value', 'NONE');
#567 = ORIENTED_EDGE ( 'NONE', *, *, #708, .T. ) ;
#568 = VERTEX_POINT ( 'NONE', #528 ) ;
#569 = CARTESIAN_POINT ( 'NONE',  ( -2.720000000000000639, 2.220000000000000195, 2.000000000000000000 ) ) ;
#570 = PLANE ( 'NONE',  #198 ) ;
#571 = ORIENTED_EDGE ( 'NONE', *, *, #997, .F. ) ;
#572 = EDGE_CURVE ( 'NONE', #141, #1142, #701, .T. ) ;
#573 = PLANE ( 'NONE',  #500 ) ;
#574 = ORIENTED_EDGE ( 'NONE', *, *, #435, .F. ) ;
#575 = CARTESIAN_POINT ( 'NONE',  ( 2.720000000000000195, -0.5000000000000002220, 3.061515884555943762E-17 ) ) ;
#576 = MECHANICAL_DESIGN_GEOMETRIC_PRESENTATION_REPRESENTATION (  '', ( #1146 ), #164 ) ;
#577 =( LENGTH_UNIT ( ) NAMED_UNIT ( * ) SI_UNIT ( .MILLI., .METRE. ) );
#578 = VECTOR ( 'NONE', #1020, 1000.000000000000000 ) ;
#579 = ORIENTED_EDGE ( 'NONE', *, *, #5, .F. ) ;
#580 = COLOUR_RGB ( '',0.0000000000000000000, 0.7529411764705882248, 0.0000000000000000000 ) ;
#581 = SURFACE_STYLE_USAGE ( .BOTH. , #401 ) ;
#582 = VERTEX_POINT ( 'NONE', #813 ) ;
#583 = FACE_OUTER_BOUND ( 'NONE', #467, .T. ) ;
#584 = EDGE_CURVE ( 'NONE', #862, #211, #356, .T. ) ;
#585 = PRESENTATION_STYLE_ASSIGNMENT (( #780 ) ) ;
#586 = DIRECTION ( 'NONE',  ( 1.000000000000000000, 0.0000000000000000000, 0.0000000000000000000 ) ) ;
#587 = ORIENTED_EDGE ( 'NONE', *, *, #870, .F. ) ;
#588 =( NAMED_UNIT ( * ) PLANE_ANGLE_UNIT ( ) SI_UNIT ( $, .RADIAN. ) );
#589 = VECTOR ( 'NONE', #915, 1000.000000000000000 ) ;
#590 = CARTESIAN_POINT ( 'NONE',  ( 1.625000000000000444, -2.254999999999999893, 2.034899999999999931 ) ) ;
#591 = STYLED_ITEM ( 'NONE', ( #269 ), #620 ) ;
#592 = COLOUR_RGB ( '',0.7529411764705882248, 0.7529411764705882248, 0.7529411764705882248 ) ;
#593 = VECTOR ( 'NONE', #684, 1000.000000000000000 ) ;
#594 = SURFACE_STYLE_FILL_AREA ( #676 ) ;
#595 = COLOUR_RGB ( '',0.7529411764705882248, 0.7529411764705882248, 0.7529411764705882248 ) ;
#596 = SURFACE_SIDE_STYLE ('',( #240 ) ) ;
#597 =( NAMED_UNIT ( * ) PLANE_ANGLE_UNIT ( ) SI_UNIT ( $, .RADIAN. ) );
#598 = CARTESIAN_POINT ( 'NONE',  ( -2.720000000000000195, -2.220000000000000195, 0.0000000000000000000 ) ) ;
#599 = VERTEX_POINT ( 'NONE', #1152 ) ;
#600 = LINE ( 'NONE', #85, #112 ) ;
#601 = PRODUCT_DEFINITION_SHAPE ( 'NONE', 'NONE',  #989 ) ;
#602 = CARTESIAN_POINT ( 'NONE',  ( 1.625000000000000000, 2.220000000000000195, 2.034999999999999698 ) ) ;
#603 = ORIENTED_EDGE ( 'NONE', *, *, #658, .T. ) ;
#604 = FACE_OUTER_BOUND ( 'NONE', #746, .T. ) ;
#605 = CARTESIAN_POINT ( 'NONE',  ( -1.625000000000000222, 2.254999999999999893, -2.143061119189160525E-18 ) ) ;
#606 = DIRECTION ( 'NONE',  ( 9.615983791445715177E-17, -1.000000000000000000, 0.0000000000000000000 ) ) ;
#607 = UNCERTAINTY_MEASURE_WITH_UNIT (LENGTH_MEASURE( 1.000000000000000082E-05 ), #577, 'distance_accuracy_value', 'NONE');
#608 = DIRECTION ( 'NONE',  ( 1.000000000000000000, 0.0000000000000000000, 0.0000000000000000000 ) ) ;
#609 = MECHANICAL_DESIGN_GEOMETRIC_PRESENTATION_REPRESENTATION (  '', ( #296 ), #477 ) ;
#610 = ORIENTED_EDGE ( 'NONE', *, *, #292, .T. ) ;
#611 = SURFACE_SIDE_STYLE ('',( #512 ) ) ;
#612 = VECTOR ( 'NONE', #171, 1000.000000000000000 ) ;
#613 = PRESENTATION_LAYER_ASSIGNMENT (  '', '', ( #671 ) ) ;
#614 = DIRECTION ( 'NONE',  ( 9.615983791445715177E-17, 1.000000000000000000, -6.123031769111886291E-17 ) ) ;
#615 = VECTOR ( 'NONE', #654, 1000.000000000000000 ) ;
#616 = LINE ( 'NONE', #261, #1072 ) ;
#617 = CARTESIAN_POINT ( 'NONE',  ( -1.624999999999999778, -2.254999999999999893, 0.03500000000000014211 ) ) ;
#618 =( NAMED_UNIT ( * ) PLANE_ANGLE_UNIT ( ) SI_UNIT ( $, .RADIAN. ) );
#619 = CARTESIAN_POINT ( 'NONE',  ( -2.217148249456242670, -1.224606353822377258E-16, 0.0000000000000000000 ) ) ;
#620 = ADVANCED_FACE ( 'NONE', ( #604 ), #162, .F. ) ;
#621 = EDGE_CURVE ( 'NONE', #862, #751, #1173, .T. ) ;
#622 = PRESENTATION_STYLE_ASSIGNMENT (( #1171 ) ) ;
#623 = SURFACE_STYLE_FILL_AREA ( #469 ) ;
#624 = LINE ( 'NONE', #602, #1112 ) ;
#625 = CARTESIAN_POINT ( 'NONE',  ( 1.624999999999999334, -2.254999999999999893, 0.03500000000000014211 ) ) ;
#626 = LINE ( 'NONE', #562, #299 ) ;
#627 =( NAMED_UNIT ( * ) PLANE_ANGLE_UNIT ( ) SI_UNIT ( $, .RADIAN. ) );
#628 = CARTESIAN_POINT ( 'NONE',  ( -1.624999999999999334, 2.254999999999999893, 0.03499999999999987149 ) ) ;
#629 =( NAMED_UNIT ( * ) SI_UNIT ( $, .STERADIAN. ) SOLID_ANGLE_UNIT ( ) );
#630 = AXIS2_PLACEMENT_3D ( 'NONE', #79, #707, #882 ) ;
#631 = ORIENTED_EDGE ( 'NONE', *, *, #739, .F. ) ;
#632 =( NAMED_UNIT ( * ) SI_UNIT ( $, .STERADIAN. ) SOLID_ANGLE_UNIT ( ) );
#633 = STYLED_ITEM ( 'NONE', ( #796 ), #1107 ) ;
#634 = ADVANCED_FACE ( 'NONE', ( #2 ), #20, .F. ) ;
#635 = LINE ( 'NONE', #998, #832 ) ;
#636 = EDGE_LOOP ( 'NONE', ( #792, #610, #67, #476, #579 ) ) ;
#637 = FILL_AREA_STYLE_COLOUR ( '', #166 ) ;
#638 = CARTESIAN_POINT ( 'NONE',  ( -2.720000000000000195, -1.224606353822377258E-16, 0.0000000000000000000 ) ) ;
#639 = PRESENTATION_STYLE_ASSIGNMENT (( #1108 ) ) ;
#640 = VERTEX_POINT ( 'NONE', #830 ) ;
#641 = PRESENTATION_STYLE_ASSIGNMENT (( #23 ) ) ;
#642 =( NAMED_UNIT ( * ) PLANE_ANGLE_UNIT ( ) SI_UNIT ( $, .RADIAN. ) );
#643 = PRESENTATION_STYLE_ASSIGNMENT (( #920 ) ) ;
#644 = ORIENTED_EDGE ( 'NONE', *, *, #843, .T. ) ;
#645 = FILL_AREA_STYLE ('',( #1012 ) ) ;
#646 =( LENGTH_UNIT ( ) NAMED_UNIT ( * ) SI_UNIT ( .MILLI., .METRE. ) );
#647 = CARTESIAN_POINT ( 'NONE',  ( 1.625000000000000000, 2.254999999999999893, 2.034899999999999931 ) ) ;
#648 = SURFACE_STYLE_FILL_AREA ( #471 ) ;
#649 = VECTOR ( 'NONE', #729, 1000.000000000000000 ) ;
#650 = FILL_AREA_STYLE ('',( #382 ) ) ;
#651 = VECTOR ( 'NONE', #377, 1000.000000000000000 ) ;
#652 = MECHANICAL_DESIGN_GEOMETRIC_PRESENTATION_REPRESENTATION (  '', ( #167 ), #709 ) ;
#653 = ORIENTED_EDGE ( 'NONE', *, *, #845, .T. ) ;
#654 = DIRECTION ( 'NONE',  ( 1.000000000000000000, 0.0000000000000000000, -1.334402673828313093E-16 ) ) ;
#655 = MECHANICAL_DESIGN_GEOMETRIC_PRESENTATION_REPRESENTATION (  '', ( #633 ), #561 ) ;
#656 = ORIENTED_EDGE ( 'NONE', *, *, #497, .T. ) ;
#657 = SURFACE_STYLE_FILL_AREA ( #755 ) ;
#658 = EDGE_CURVE ( 'NONE', #250, #640, #118, .T. ) ;
#659 = EDGE_LOOP ( 'NONE', ( #732, #367, #78, #743 ) ) ;
#660 = LINE ( 'NONE', #1057, #869 ) ;
#661 = EDGE_CURVE ( 'NONE', #931, #582, #919, .T. ) ;
#662 = ORIENTED_EDGE ( 'NONE', *, *, #584, .T. ) ;
#663 = DIRECTION ( 'NONE',  ( 9.767587139509048566E-17, -1.000000000000000000, 0.0000000000000000000 ) ) ;
#664 = VERTEX_POINT ( 'NONE', #647 ) ;
#665 = DIRECTION ( 'NONE',  ( -1.000000000000000000, -9.767587139509048566E-17, 0.0000000000000000000 ) ) ;
#666 = CARTESIAN_POINT ( 'NONE',  ( -1.625000000000000222, 2.254999999999999893, 2.034999999999999698 ) ) ;
#667 = EDGE_LOOP ( 'NONE', ( #897, #1095, #662, #714 ) ) ;
#668 = DIRECTION ( 'NONE',  ( 0.0000000000000000000, 0.0000000000000000000, -1.000000000000000000 ) ) ;
#669 = CIRCLE ( 'NONE', #314, 0.5028517505437577473 ) ;
#670 = VECTOR ( 'NONE', #4, 1000.000000000000000 ) ;
#671 = STYLED_ITEM ( 'NONE', ( #368 ), #634 ) ;
#672 = FILL_AREA_STYLE_COLOUR ( '', #1165 ) ;
#673 = EDGE_CURVE ( 'NONE', #226, #825, #142, .T. ) ;
#674 = ORIENTED_EDGE ( 'NONE', *, *, #486, .F. ) ;
#675 = VECTOR ( 'NONE', #1079, 1000.000000000000000 ) ;
#676 = FILL_AREA_STYLE ('',( #320 ) ) ;
#677 = SURFACE_STYLE_FILL_AREA ( #949 ) ;
#678 = PLANE ( 'NONE',  #392 ) ;
#679 = ORIENTED_EDGE ( 'NONE', *, *, #108, .T. ) ;
#680 = FACE_OUTER_BOUND ( 'NONE', #1017, .T. ) ;
#681 = ADVANCED_FACE ( 'NONE', ( #203 ), #105, .F. ) ;
#682 = LINE ( 'NONE', #487, #1055 ) ;
#683 = UNCERTAINTY_MEASURE_WITH_UNIT (LENGTH_MEASURE( 1.000000000000000082E-05 ), #465, 'distance_accuracy_value', 'NONE');
#684 = DIRECTION ( 'NONE',  ( -9.767587139509048566E-17, 1.000000000000000000, -0.0000000000000000000 ) ) ;
#685 = EDGE_LOOP ( 'NONE', ( #213, #246, #49, #1062 ) ) ;
#686 =( NAMED_UNIT ( * ) PLANE_ANGLE_UNIT ( ) SI_UNIT ( $, .RADIAN. ) );
#687 =( NAMED_UNIT ( * ) PLANE_ANGLE_UNIT ( ) SI_UNIT ( $, .RADIAN. ) );
#688 = EDGE_CURVE ( 'NONE', #856, #1028, #541, .T. ) ;
#689 = AXIS2_PLACEMENT_3D ( 'NONE', #1039, #879, #327 ) ;
#690 = VECTOR ( 'NONE', #438, 1000.000000000000000 ) ;
#691 = STYLED_ITEM ( 'NONE', ( #504 ), #938 ) ;
#692 = ORIENTED_EDGE ( 'NONE', *, *, #1052, .F. ) ;
#693 = CARTESIAN_POINT ( 'NONE',  ( 1.236867777919314904, 2.254999999999999893, 2.034999999999999698 ) ) ;
#694 =( GEOMETRIC_REPRESENTATION_CONTEXT ( 3 ) GLOBAL_UNCERTAINTY_ASSIGNED_CONTEXT ( ( #468 ) ) GLOBAL_UNIT_ASSIGNED_CONTEXT ( ( #510, #886, #168 ) ) REPRESENTATION_CONTEXT ( 'NONE', 'WORKASPACE' ) );
#695 = DIRECTION ( 'NONE',  ( 9.767587139509048566E-17, -1.000000000000000000, 0.0000000000000000000 ) ) ;
#696 = LINE ( 'NONE', #152, #1019 ) ;
#697 = EDGE_CURVE ( 'NONE', #235, #307, #1143, .T. ) ;
#698 = UNCERTAINTY_MEASURE_WITH_UNIT (LENGTH_MEASURE( 1.000000000000000082E-05 ), #45, 'distance_accuracy_value', 'NONE');
#699 = ORIENTED_EDGE ( 'NONE', *, *, #870, .T. ) ;
#700 = LINE ( 'NONE', #62, #925 ) ;
#701 = LINE ( 'NONE', #442, #517 ) ;
#702 =( NAMED_UNIT ( * ) SI_UNIT ( $, .STERADIAN. ) SOLID_ANGLE_UNIT ( ) );
#703 = DIRECTION ( 'NONE',  ( 0.0000000000000000000, -0.0000000000000000000, -1.000000000000000000 ) ) ;
#704 = ORIENTED_EDGE ( 'NONE', *, *, #328, .F. ) ;
#705 = DIRECTION ( 'NONE',  ( -0.0000000000000000000, -0.0000000000000000000, 1.000000000000000000 ) ) ;
#706 = DIRECTION ( 'NONE',  ( -9.767587139509048566E-17, 1.000000000000000000, -0.0000000000000000000 ) ) ;
#707 = DIRECTION ( 'NONE',  ( 0.0000000000000000000, 0.0000000000000000000, 1.000000000000000000 ) ) ;
#708 = EDGE_CURVE ( 'NONE', #1113, #849, #700, .T. ) ;
#709 =( GEOMETRIC_REPRESENTATION_CONTEXT ( 3 ) GLOBAL_UNCERTAINTY_ASSIGNED_CONTEXT ( ( #759 ) ) GLOBAL_UNIT_ASSIGNED_CONTEXT ( ( #646, #452, #532 ) ) REPRESENTATION_CONTEXT ( 'NONE', 'WORKASPACE' ) );
#710 = LINE ( 'NONE', #619, #999 ) ;
#711 = VECTOR ( 'NONE', #42, 1000.000000000000000 ) ;
#712 = AXIS2_PLACEMENT_3D ( 'NONE', #394, #3, #728 ) ;
#713 =( NAMED_UNIT ( * ) SI_UNIT ( $, .STERADIAN. ) SOLID_ANGLE_UNIT ( ) );
#714 = ORIENTED_EDGE ( 'NONE', *, *, #268, .T. ) ;
#715 = DIRECTION ( 'NONE',  ( 1.000000000000000000, 0.0000000000000000000, 0.0000000000000000000 ) ) ;
#716 = CARTESIAN_POINT ( 'NONE',  ( -1.624999999999999778, -2.220000000000000195, 2.000000000000000000 ) ) ;
#717 = LINE ( 'NONE', #178, #406 ) ;
#718 = ADVANCED_FACE ( 'NONE', ( #355 ), #1070, .T. ) ;
#719 = PRODUCT_DEFINITION_CONTEXT ( 'detailed design', #910, 'design' ) ;
#720 = SURFACE_STYLE_FILL_AREA ( #196 ) ;
#721 = APPLICATION_CONTEXT ( 'automotive_design' ) ;
#722 = LINE ( 'NONE', #545, #964 ) ;
#723 = ORIENTED_EDGE ( 'NONE', *, *, #533, .F. ) ;
#724 = DIRECTION ( 'NONE',  ( 1.000000000000000000, -9.615983791445715177E-17, 5.887897424628707795E-33 ) ) ;
#725 = VERTEX_POINT ( 'NONE', #898 ) ;
#726 = FACE_OUTER_BOUND ( 'NONE', #881, .T. ) ;
#727 = MECHANICAL_DESIGN_GEOMETRIC_PRESENTATION_REPRESENTATION (  '', ( #423 ), #50 ) ;
#728 = DIRECTION ( 'NONE',  ( 1.000000000000000000, 0.0000000000000000000, 0.0000000000000000000 ) ) ;
#729 = DIRECTION ( 'NONE',  ( -5.887897424628707795E-33, 0.0000000000000000000, 1.000000000000000000 ) ) ;
#730 = COLOUR_RGB ( '',0.0000000000000000000, 0.5019607843137254832, 0.0000000000000000000 ) ;
#731 = COLOUR_RGB ( '',0.0000000000000000000, 0.7529411764705882248, 0.0000000000000000000 ) ;
#732 = ORIENTED_EDGE ( 'NONE', *, *, #70, .F. ) ;
#733 = CARTESIAN_POINT ( 'NONE',  ( -2.720000000000000195, -2.220000000000000195, 2.000000000000000000 ) ) ;
#734 = UNCERTAINTY_MEASURE_WITH_UNIT (LENGTH_MEASURE( 1.000000000000000082E-05 ), #134, 'distance_accuracy_value', 'NONE');
#735 = DIRECTION ( 'NONE',  ( 0.0000000000000000000, -6.123031769111886291E-17, -1.000000000000000000 ) ) ;
#736 = DIRECTION ( 'NONE',  ( 0.0000000000000000000, -1.000000000000000000, 0.0000000000000000000 ) ) ;
#737 = LINE ( 'NONE', #824, #649 ) ;
#738 = DIRECTION ( 'NONE',  ( 0.0000000000000000000, 0.0000000000000000000, 1.000000000000000000 ) ) ;
#739 = EDGE_CURVE ( 'NONE', #804, #276, #968, .T. ) ;
#740 = ORIENTED_EDGE ( 'NONE', *, *, #1065, .T. ) ;
#741 = FILL_AREA_STYLE_COLOUR ( '', #595 ) ;
#742 = SURFACE_SIDE_STYLE ('',( #1089 ) ) ;
#743 = ORIENTED_EDGE ( 'NONE', *, *, #803, .F. ) ;
#744 = DIRECTION ( 'NONE',  ( -9.615983791445715177E-17, -1.000000000000000000, 0.0000000000000000000 ) ) ;
#745 = DIRECTION ( 'NONE',  ( 1.000000000000000000, 0.0000000000000000000, 0.0000000000000000000 ) ) ;
#746 = EDGE_LOOP ( 'NONE', ( #723, #332, #409, #558 ) ) ;
#747 = SURFACE_SIDE_STYLE ('',( #387 ) ) ;
#748 = EDGE_CURVE ( 'NONE', #725, #864, #557, .T. ) ;
#749 = PRESENTATION_LAYER_ASSIGNMENT (  '', '', ( #219 ) ) ;
#750 =( GEOMETRIC_REPRESENTATION_CONTEXT ( 3 ) GLOBAL_UNCERTAINTY_ASSIGNED_CONTEXT ( ( #284 ) ) GLOBAL_UNIT_ASSIGNED_CONTEXT ( ( #97, #627, #1001 ) ) REPRESENTATION_CONTEXT ( 'NONE', 'WORKASPACE' ) );
#751 = VERTEX_POINT ( 'NONE', #693 ) ;
#752 = FILL_AREA_STYLE ('',( #758 ) ) ;
#753 = STYLED_ITEM ( 'NONE', ( #1080 ), #1035 ) ;
#754 = ORIENTED_EDGE ( 'NONE', *, *, #748, .F. ) ;
#755 = FILL_AREA_STYLE ('',( #280 ) ) ;
#756 = EDGE_CURVE ( 'NONE', #310, #804, #170, .T. ) ;
#757 = ORIENTED_EDGE ( 'NONE', *, *, #860, .F. ) ;
#758 = FILL_AREA_STYLE_COLOUR ( '', #482 ) ;
#759 = UNCERTAINTY_MEASURE_WITH_UNIT (LENGTH_MEASURE( 1.000000000000000082E-05 ), #646, 'distance_accuracy_value', 'NONE');
#760 = DIRECTION ( 'NONE',  ( 0.0000000000000000000, 1.000000000000000000, 0.0000000000000000000 ) ) ;
#761 = ORIENTED_EDGE ( 'NONE', *, *, #1086, .T. ) ;
#762 = LINE ( 'NONE', #57, #236 ) ;
#763 = LINE ( 'NONE', #1136, #496 ) ;
#764 = EDGE_CURVE ( 'NONE', #27, #250, #600, .T. ) ;
#765 = ORIENTED_EDGE ( 'NONE', *, *, #572, .T. ) ;
#766 = PRODUCT_CONTEXT ( 'NONE', #721, 'mechanical' ) ;
#767 = PRESENTATION_LAYER_ASSIGNMENT (  '', '', ( #1129 ) ) ;
#768 =( GEOMETRIC_REPRESENTATION_CONTEXT ( 3 ) GLOBAL_UNCERTAINTY_ASSIGNED_CONTEXT ( ( #698 ) ) GLOBAL_UNIT_ASSIGNED_CONTEXT ( ( #45, #687, #233 ) ) REPRESENTATION_CONTEXT ( 'NONE', 'WORKASPACE' ) );
#769 = MECHANICAL_DESIGN_GEOMETRIC_PRESENTATION_REPRESENTATION (  '', ( #408 ), #770 ) ;
#770 =( GEOMETRIC_REPRESENTATION_CONTEXT ( 3 ) GLOBAL_UNCERTAINTY_ASSIGNED_CONTEXT ( ( #309 ) ) GLOBAL_UNIT_ASSIGNED_CONTEXT ( ( #339, #618, #431 ) ) REPRESENTATION_CONTEXT ( 'NONE', 'WORKASPACE' ) );
#771 = AXIS2_PLACEMENT_3D ( 'NONE', #126, #665, #695 ) ;
#772 = ORIENTED_EDGE ( 'NONE', *, *, #1065, .F. ) ;
#773 = SURFACE_STYLE_USAGE ( .BOTH. , #1048 ) ;
#774 = FILL_AREA_STYLE_COLOUR ( '', #980 ) ;
#775 = MANIFOLD_SOLID_BREP ( 'Enlèv. mat.-Extru.7', #848 ) ;
#776 = CARTESIAN_POINT ( 'NONE',  ( 1.624999999999999334, -2.254999999999999893, 0.03500000000000014211 ) ) ;
#777 = ORIENTED_EDGE ( 'NONE', *, *, #435, .T. ) ;
#778 = SURFACE_SIDE_STYLE ('',( #956 ) ) ;
#779 = SURFACE_STYLE_FILL_AREA ( #953 ) ;
#780 = SURFACE_STYLE_USAGE ( .BOTH. , #958 ) ;
#781 = UNCERTAINTY_MEASURE_WITH_UNIT (LENGTH_MEASURE( 1.000000000000000082E-05 ), #451, 'distance_accuracy_value', 'NONE');
#782 = PLANE ( 'NONE',  #426 ) ;
#783 = ORIENTED_EDGE ( 'NONE', *, *, #522, .F. ) ;
#784 = DIRECTION ( 'NONE',  ( 1.000000000000000000, 0.0000000000000000000, 0.0000000000000000000 ) ) ;
#785 = ADVANCED_FACE ( 'NONE', ( #726 ), #437, .T. ) ;
#786 = DIRECTION ( 'NONE',  ( -1.000000000000000000, 9.615983791445715177E-17, -5.887897424628707795E-33 ) ) ;
#787 = DIRECTION ( 'NONE',  ( -1.000000000000000000, -0.0000000000000000000, -0.0000000000000000000 ) ) ;
#788 = EDGE_CURVE ( 'NONE', #235, #226, #1006, .T. ) ;
#789 =( NAMED_UNIT ( * ) SI_UNIT ( $, .STERADIAN. ) SOLID_ANGLE_UNIT ( ) );
#790 = AXIS2_PLACEMENT_3D ( 'NONE', #934, #381, #927 ) ;
#791 = VECTOR ( 'NONE', #868, 1000.000000000000000 ) ;
#792 = ORIENTED_EDGE ( 'NONE', *, *, #1100, .F. ) ;
#793 = DIRECTION ( 'NONE',  ( -0.0000000000000000000, -0.0000000000000000000, 1.000000000000000000 ) ) ;
#794 = STYLED_ITEM ( 'NONE', ( #270 ), #1092 ) ;
#795 = DIRECTION ( 'NONE',  ( -9.767587139509048566E-17, 1.000000000000000000, -0.0000000000000000000 ) ) ;
#796 = PRESENTATION_STYLE_ASSIGNMENT (( #360 ) ) ;
#797 = SURFACE_STYLE_USAGE ( .BOTH. , #81 ) ;
#798 = LINE ( 'NONE', #66, #593 ) ;
#799 = ORIENTED_EDGE ( 'NONE', *, *, #33, .F. ) ;
#800 = CARTESIAN_POINT ( 'NONE',  ( 1.236867777919314904, 2.254999999999999893, 2.034899999999999931 ) ) ;
#801 = PLANE ( 'NONE',  #535 ) ;
#802 = SURFACE_STYLE_USAGE ( .BOTH. , #1074 ) ;
#803 = EDGE_CURVE ( 'NONE', #515, #864, #272, .T. ) ;
#804 = VERTEX_POINT ( 'NONE', #447 ) ;
#805 = FILL_AREA_STYLE_COLOUR ( '', #730 ) ;
#806 = LINE ( 'NONE', #419, #1073 ) ;
#807 = DIRECTION ( 'NONE',  ( 0.0000000000000000000, -0.0000000000000000000, -1.000000000000000000 ) ) ;
#808 = SURFACE_STYLE_FILL_AREA ( #73 ) ;
#809 = PRESENTATION_LAYER_ASSIGNMENT (  '', '', ( #1146 ) ) ;
#810 = FILL_AREA_STYLE ('',( #805 ) ) ;
#811 = MECHANICAL_DESIGN_GEOMETRIC_PRESENTATION_REPRESENTATION (  '', ( #424 ), #750 ) ;
#812 = MECHANICAL_DESIGN_GEOMETRIC_PRESENTATION_REPRESENTATION (  '', ( #317 ), #1148 ) ;
#813 = CARTESIAN_POINT ( 'NONE',  ( -1.624999999999999778, -2.254999999999999893, 2.034999999999999698 ) ) ;
#814 = COLOUR_RGB ( '',0.0000000000000000000, 0.7529411764705882248, 0.0000000000000000000 ) ;
#815 = STYLED_ITEM ( 'NONE', ( #1121 ), #1134 ) ;
#816 =( LENGTH_UNIT ( ) NAMED_UNIT ( * ) SI_UNIT ( .MILLI., .METRE. ) );
#817 = DIRECTION ( 'NONE',  ( -0.0000000000000000000, -0.0000000000000000000, -1.000000000000000000 ) ) ;
#818 = SURFACE_STYLE_FILL_AREA ( #1082 ) ;
#819 = EDGE_CURVE ( 'NONE', #599, #235, #626, .T. ) ;
#820 =( NAMED_UNIT ( * ) PLANE_ANGLE_UNIT ( ) SI_UNIT ( $, .RADIAN. ) );
#821 = PLANE ( 'NONE',  #1042 ) ;
#822 = CARTESIAN_POINT ( 'NONE',  ( -2.720000000000000195, 0.5028517505437577473, 2.000000000000000000 ) ) ;
#823 = ORIENTED_EDGE ( 'NONE', *, *, #661, .F. ) ;
#824 = CARTESIAN_POINT ( 'NONE',  ( -1.624999999999999778, -2.220000000000000195, 2.000000000000000000 ) ) ;
#825 = VERTEX_POINT ( 'NONE', #366 ) ;
#826 = DIRECTION ( 'NONE',  ( 0.0000000000000000000, -0.0000000000000000000, 1.000000000000000000 ) ) ;
#827 = LINE ( 'NONE', #375, #262 ) ;
#828 = COLOUR_RGB ( '',0.7529411764705882248, 0.7529411764705882248, 0.7529411764705882248 ) ;
#829 = ORIENTED_EDGE ( 'NONE', *, *, #215, .F. ) ;
#830 = CARTESIAN_POINT ( 'NONE',  ( -1.624999999999999334, 2.254999999999999893, 0.03499999999999987149 ) ) ;
#831 = CARTESIAN_POINT ( 'NONE',  ( 2.720000000000000195, -2.220000000000000195, 0.0000000000000000000 ) ) ;
#832 = VECTOR ( 'NONE', #192, 1000.000000000000000 ) ;
#833 = PRESENTATION_LAYER_ASSIGNMENT (  '', '', ( #336 ) ) ;
#834 = DIRECTION ( 'NONE',  ( -0.0000000000000000000, -0.0000000000000000000, 1.000000000000000000 ) ) ;
#835 = SURFACE_SIDE_STYLE ('',( #720 ) ) ;
#836 = UNCERTAINTY_MEASURE_WITH_UNIT (LENGTH_MEASURE( 1.000000000000000082E-05 ), #60, 'distance_accuracy_value', 'NONE');
#837 = DIRECTION ( 'NONE',  ( -1.000000000000000000, -0.0000000000000000000, -0.0000000000000000000 ) ) ;
#838 = ORIENTED_EDGE ( 'NONE', *, *, #244, .T. ) ;
#839 = DIRECTION ( 'NONE',  ( 1.000000000000000000, 0.0000000000000000000, 0.0000000000000000000 ) ) ;
#840 = FILL_AREA_STYLE ('',( #1103 ) ) ;
#841 = ORIENTED_EDGE ( 'NONE', *, *, #621, .F. ) ;
#842 = CARTESIAN_POINT ( 'NONE',  ( -2.720000000000000639, 2.220000000000000195, 0.0000000000000000000 ) ) ;
#843 = EDGE_CURVE ( 'NONE', #1088, #1105, #844, .T. ) ;
#844 = LINE ( 'NONE', #924, #132 ) ;
#845 = EDGE_CURVE ( 'NONE', #1088, #207, #993, .T. ) ;
#846 = CARTESIAN_POINT ( 'NONE',  ( 2.720000000000000195, 0.0000000000000000000, 2.000000000000000000 ) ) ;
#847 = PRESENTATION_STYLE_ASSIGNMENT (( #204 ) ) ;
#848 = CLOSED_SHELL ( 'NONE', ( #1122, #938, #1031, #1107, #1092, #209, #1015, #906, #1134, #341, #338, #634, #1085, #303, #718, #930, #681, #257, #620, #379, #1035, #245, #785, #89, #945 ) ) ;
#849 = VERTEX_POINT ( 'NONE', #1172 ) ;
#850 = SURFACE_STYLE_FILL_AREA ( #397 ) ;
#851 = UNCERTAINTY_MEASURE_WITH_UNIT (LENGTH_MEASURE( 1.000000000000000082E-05 ), #365, 'distance_accuracy_value', 'NONE');
#852 = EDGE_LOOP ( 'NONE', ( #571, #322, #190, #216 ) ) ;
#853 = SURFACE_SIDE_STYLE ('',( #648 ) ) ;
#854 =( LENGTH_UNIT ( ) NAMED_UNIT ( * ) SI_UNIT ( .MILLI., .METRE. ) );
#855 = VECTOR ( 'NONE', #663, 1000.000000000000000 ) ;
#856 = VERTEX_POINT ( 'NONE', #359 ) ;
#857 =( NAMED_UNIT ( * ) PLANE_ANGLE_UNIT ( ) SI_UNIT ( $, .RADIAN. ) );
#858 = AXIS2_PLACEMENT_3D ( 'NONE', #590, #975, #75 ) ;
#859 = ORIENTED_EDGE ( 'NONE', *, *, #108, .F. ) ;
#860 = EDGE_CURVE ( 'NONE', #1113, #483, #722, .T. ) ;
#861 = LINE ( 'NONE', #229, #48 ) ;
#862 = VERTEX_POINT ( 'NONE', #111 ) ;
#863 = LINE ( 'NONE', #509, #183 ) ;
#864 = VERTEX_POINT ( 'NONE', #822 ) ;
#865 = VECTOR ( 'NONE', #41, 1000.000000000000000 ) ;
#866 = CARTESIAN_POINT ( 'NONE',  ( 1.625000000000000444, -2.254999999999999893, 0.03500000000000030864 ) ) ;
#867 = DIRECTION ( 'NONE',  ( -1.000000000000000000, -9.615983791445715177E-17, 0.0000000000000000000 ) ) ;
#868 = DIRECTION ( 'NONE',  ( 0.0000000000000000000, 0.0000000000000000000, -1.000000000000000000 ) ) ;
#869 = VECTOR ( 'NONE', #384, 1000.000000000000000 ) ;
#870 = EDGE_CURVE ( 'NONE', #371, #1054, #635, .T. ) ;
#871 = ORIENTED_EDGE ( 'NONE', *, *, #5, .T. ) ;
#872 = APPLICATION_PROTOCOL_DEFINITION ( 'draft international standard', 'automotive_design', 1998, #721 ) ;
#873 =( NAMED_UNIT ( * ) SI_UNIT ( $, .STERADIAN. ) SOLID_ANGLE_UNIT ( ) );
#874 = EDGE_CURVE ( 'NONE', #27, #276, #380, .T. ) ;
#875 = ORIENTED_EDGE ( 'NONE', *, *, #965, .T. ) ;
#876 =( LENGTH_UNIT ( ) NAMED_UNIT ( * ) SI_UNIT ( .MILLI., .METRE. ) );
#877 = SURFACE_STYLE_USAGE ( .BOTH. , #778 ) ;
#878 = EDGE_CURVE ( 'NONE', #141, #501, #827, .T. ) ;
#879 = DIRECTION ( 'NONE',  ( 0.0000000000000000000, -1.000000000000000000, 0.0000000000000000000 ) ) ;
#880 = CARTESIAN_POINT ( 'NONE',  ( 2.719999999999999751, 2.220000000000000195, 2.000000000000000000 ) ) ;
#881 = EDGE_LOOP ( 'NONE', ( #875, #1, #603, #456, #295, #195, #460, #218 ) ) ;
#882 = DIRECTION ( 'NONE',  ( 1.000000000000000000, 0.0000000000000000000, 0.0000000000000000000 ) ) ;
#883 = DIRECTION ( 'NONE',  ( -1.065554960673714748E-16, 0.0000000000000000000, -1.000000000000000000 ) ) ;
#884 = SURFACE_STYLE_USAGE ( .BOTH. , #177 ) ;
#885 = MECHANICAL_DESIGN_GEOMETRIC_PRESENTATION_REPRESENTATION (  '', ( #219 ), #947 ) ;
#886 =( NAMED_UNIT ( * ) PLANE_ANGLE_UNIT ( ) SI_UNIT ( $, .RADIAN. ) );
#887 = VECTOR ( 'NONE', #193, 1000.000000000000000 ) ;
#888 = VECTOR ( 'NONE', #391, 1000.000000000000000 ) ;
#889 = ORIENTED_EDGE ( 'NONE', *, *, #965, .F. ) ;
#890 = VECTOR ( 'NONE', #147, 1000.000000000000000 ) ;
#891 = CARTESIAN_POINT ( 'NONE',  ( -2.720000000000000639, 2.220000000000000195, 0.0000000000000000000 ) ) ;
#892 = MECHANICAL_DESIGN_GEOMETRIC_PRESENTATION_REPRESENTATION (  '', ( #205 ), #354 ) ;
#893 = SURFACE_SIDE_STYLE ('',( #818 ) ) ;
#894 = EDGE_CURVE ( 'NONE', #582, #326, #19, .T. ) ;
#895 = UNCERTAINTY_MEASURE_WITH_UNIT (LENGTH_MEASURE( 1.000000000000000082E-05 ), #252, 'distance_accuracy_value', 'NONE');
#896 =( NAMED_UNIT ( * ) PLANE_ANGLE_UNIT ( ) SI_UNIT ( $, .RADIAN. ) );
#897 = ORIENTED_EDGE ( 'NONE', *, *, #33, .T. ) ;
#898 = CARTESIAN_POINT ( 'NONE',  ( -2.217148249456242670, -1.224606353822377258E-16, 2.000000000000000000 ) ) ;
#899 = DIRECTION ( 'NONE',  ( 9.615983791445715177E-17, -1.000000000000000000, 0.0000000000000000000 ) ) ;
#900 = DIRECTION ( 'NONE',  ( -1.000000000000000000, -0.0000000000000000000, -0.0000000000000000000 ) ) ;
#901 = CARTESIAN_POINT ( 'NONE',  ( 2.720000000000000195, 0.5000000000000000000, -3.061515884555943762E-17 ) ) ;
#902 = EDGE_CURVE ( 'NONE', #640, #931, #30, .T. ) ;
#903 = CARTESIAN_POINT ( 'NONE',  ( -1.625000000000000222, 2.219999999999999751, 2.034999999999999698 ) ) ;
#904 = SURFACE_SIDE_STYLE ('',( #428 ) ) ;
#905 = STYLED_ITEM ( 'NONE', ( #1033 ), #379 ) ;
#906 = ADVANCED_FACE ( 'NONE', ( #225 ), #573, .F. ) ;
#907 = CARTESIAN_POINT ( 'NONE',  ( -2.720000000000000195, 0.5028517505437577473, 0.0000000000000000000 ) ) ;
#908 = VECTOR ( 'NONE', #432, 1000.000000000000000 ) ;
#909 = FILL_AREA_STYLE_COLOUR ( '', #185 ) ;
#910 = APPLICATION_CONTEXT ( 'automotive_design' ) ;
#911 = PLANE ( 'NONE',  #145 ) ;
#912 = CARTESIAN_POINT ( 'NONE',  ( 2.719999999999999751, 2.220000000000000195, 2.000000000000000000 ) ) ;
#913 = ORIENTED_EDGE ( 'NONE', *, *, #894, .T. ) ;
#914 = CARTESIAN_POINT ( 'NONE',  ( -2.720000000000000195, -0.5028517505437578583, 0.0000000000000000000 ) ) ;
#915 = DIRECTION ( 'NONE',  ( 1.000000000000000000, 0.0000000000000000000, 0.0000000000000000000 ) ) ;
#916 = ORIENTED_EDGE ( 'NONE', *, *, #156, .F. ) ;
#917 =( NAMED_UNIT ( * ) PLANE_ANGLE_UNIT ( ) SI_UNIT ( $, .RADIAN. ) );
#918 = CARTESIAN_POINT ( 'NONE',  ( -2.720000000000000639, 2.220000000000000195, 0.0000000000000000000 ) ) ;
#919 = LINE ( 'NONE', #279, #275 ) ;
#920 = SURFACE_STYLE_USAGE ( .BOTH. , #293 ) ;
#921 = CARTESIAN_POINT ( 'NONE',  ( 1.625000000000000000, 2.254999999999999893, 2.034899999999999931 ) ) ;
#922 = SURFACE_STYLE_FILL_AREA ( #550 ) ;
#923 = MECHANICAL_DESIGN_GEOMETRIC_PRESENTATION_REPRESENTATION (  '', ( #1129 ), #553 ) ;
#924 = CARTESIAN_POINT ( 'NONE',  ( -2.720000000000000195, -2.220000000000000195, 2.000000000000000000 ) ) ;
#925 = VECTOR ( 'NONE', #1077, 1000.000000000000000 ) ;
#926 = ORIENTED_EDGE ( 'NONE', *, *, #978, .T. ) ;
#927 = DIRECTION ( 'NONE',  ( -9.767587139509048566E-17, 1.000000000000000000, 0.0000000000000000000 ) ) ;
#928 = DIRECTION ( 'NONE',  ( -1.000000000000000000, -9.767587139509048566E-17, 0.0000000000000000000 ) ) ;
#929 = MECHANICAL_DESIGN_GEOMETRIC_PRESENTATION_REPRESENTATION (  '', ( #14 ), #694 ) ;
#930 = ADVANCED_FACE ( 'NONE', ( #944 ), #678, .F. ) ;
#931 = VERTEX_POINT ( 'NONE', #959 ) ;
#932 = PRESENTATION_LAYER_ASSIGNMENT (  '', '', ( #265 ) ) ;
#933 = UNCERTAINTY_MEASURE_WITH_UNIT (LENGTH_MEASURE( 1.000000000000000082E-05 ), #399, 'distance_accuracy_value', 'NONE');
#934 = CARTESIAN_POINT ( 'NONE',  ( -2.720000000000000639, 2.220000000000000195, 2.000000000000000000 ) ) ;
#935 =( NAMED_UNIT ( * ) PLANE_ANGLE_UNIT ( ) SI_UNIT ( $, .RADIAN. ) );
#936 = ORIENTED_EDGE ( 'NONE', *, *, #978, .F. ) ;
#937 = CARTESIAN_POINT ( 'NONE',  ( -1.624999999999999778, -2.254999999999999893, 0.03500000000000014211 ) ) ;
#938 = ADVANCED_FACE ( 'NONE', ( #55 ), #782, .F. ) ;
#939 = ORIENTED_EDGE ( 'NONE', *, *, #400, .F. ) ;
#940 = CARTESIAN_POINT ( 'NONE',  ( 2.719999999999999751, 2.220000000000000195, 2.000000000000000000 ) ) ;
#941 = UNCERTAINTY_MEASURE_WITH_UNIT (LENGTH_MEASURE( 1.000000000000000082E-05 ), #816, 'distance_accuracy_value', 'NONE');
#942 = ORIENTED_EDGE ( 'NONE', *, *, #878, .F. ) ;
#943 = CARTESIAN_POINT ( 'NONE',  ( 1.625000000000000444, -2.254999999999999893, 2.034899999999999931 ) ) ;
#944 = FACE_OUTER_BOUND ( 'NONE', #493, .T. ) ;
#945 = ADVANCED_FACE ( 'NONE', ( #434 ), #1141, .F. ) ;
#946 = ORIENTED_EDGE ( 'NONE', *, *, #1169, .F. ) ;
#947 =( GEOMETRIC_REPRESENTATION_CONTEXT ( 3 ) GLOBAL_UNCERTAINTY_ASSIGNED_CONTEXT ( ( #8 ) ) GLOBAL_UNIT_ASSIGNED_CONTEXT ( ( #854, #1016, #629 ) ) REPRESENTATION_CONTEXT ( 'NONE', 'WORKASPACE' ) );
#948 = AXIS2_PLACEMENT_3D ( 'NONE', #846, #735, #1023 ) ;
#949 = FILL_AREA_STYLE ('',( #1041 ) ) ;
#950 =( GEOMETRIC_REPRESENTATION_CONTEXT ( 3 ) GLOBAL_UNCERTAINTY_ASSIGNED_CONTEXT ( ( #836 ) ) GLOBAL_UNIT_ASSIGNED_CONTEXT ( ( #60, #896, #789 ) ) REPRESENTATION_CONTEXT ( 'NONE', 'WORKASPACE' ) );
#951 = AXIS2_PLACEMENT_3D ( 'NONE', #414, #232, #490 ) ;
#952 = ORIENTED_EDGE ( 'NONE', *, *, #894, .F. ) ;
#953 = FILL_AREA_STYLE ('',( #416 ) ) ;
#954 = SURFACE_SIDE_STYLE ('',( #677 ) ) ;
#955 = VERTEX_POINT ( 'NONE', #331 ) ;
#956 = SURFACE_STYLE_FILL_AREA ( #484 ) ;
#957 = EDGE_CURVE ( 'NONE', #307, #180, #798, .T. ) ;
#958 = SURFACE_SIDE_STYLE ('',( #1127 ) ) ;
#959 = CARTESIAN_POINT ( 'NONE',  ( -1.625000000000000222, 2.254999999999999893, 2.034999999999999698 ) ) ;
#960 = ORIENTED_EDGE ( 'NONE', *, *, #658, .F. ) ;
#961 = PRESENTATION_LAYER_ASSIGNMENT (  '', '', ( #905 ) ) ;
#962 = DIRECTION ( 'NONE',  ( 0.0000000000000000000, -0.0000000000000000000, -1.000000000000000000 ) ) ;
#963 = EDGE_CURVE ( 'NONE', #568, #250, #1157, .T. ) ;
#964 = VECTOR ( 'NONE', #1087, 1000.000000000000000 ) ;
#965 = EDGE_CURVE ( 'NONE', #326, #568, #523, .T. ) ;
#966 = PRESENTATION_LAYER_ASSIGNMENT (  '', '', ( #633 ) ) ;
#967 = ORIENTED_EDGE ( 'NONE', *, *, #963, .F. ) ;
#968 = LINE ( 'NONE', #1167, #201 ) ;
#969 = PLANE ( 'NONE',  #1163 ) ;
#970 = CARTESIAN_POINT ( 'NONE',  ( -1.625000000000000222, 2.254999999999999893, 2.034999999999999698 ) ) ;
#971 = PLANE ( 'NONE',  #405 ) ;
#972 = DIRECTION ( 'NONE',  ( -0.0000000000000000000, 0.0000000000000000000, 1.000000000000000000 ) ) ;
#973 = CARTESIAN_POINT ( 'NONE',  ( 1.625000000000000222, 2.220000000000000195, 2.000000000000000000 ) ) ;
#974 = LINE ( 'NONE', #439, #72 ) ;
#975 = DIRECTION ( 'NONE',  ( -0.0000000000000000000, 0.0000000000000000000, -1.000000000000000000 ) ) ;
#976 = EDGE_LOOP ( 'NONE', ( #1117, #130, #1026, #17, #1066, #103 ) ) ;
#977 = CARTESIAN_POINT ( 'NONE',  ( 2.720000000000000195, -2.220000000000000195, 2.000000000000000000 ) ) ;
#978 = EDGE_CURVE ( 'NONE', #255, #825, #990, .T. ) ;
#979 = CARTESIAN_POINT ( 'NONE',  ( -1.624999999999999778, -2.254999999999999893, 2.566577592816310695E-18 ) ) ;
#980 = COLOUR_RGB ( '',0.0000000000000000000, 0.7529411764705882248, 0.0000000000000000000 ) ;
#981 = PRESENTATION_LAYER_ASSIGNMENT (  '', '', ( #296 ) ) ;
#982 = FILL_AREA_STYLE ('',( #1149 ) ) ;
#983 = PRESENTATION_LAYER_ASSIGNMENT (  '', '', ( #691 ) ) ;
#984 =( GEOMETRIC_REPRESENTATION_CONTEXT ( 3 ) GLOBAL_UNCERTAINTY_ASSIGNED_CONTEXT ( ( #851 ) ) GLOBAL_UNIT_ASSIGNED_CONTEXT ( ( #365, #917, #353 ) ) REPRESENTATION_CONTEXT ( 'NONE', 'WORKASPACE' ) );
#985 = CARTESIAN_POINT ( 'NONE',  ( -2.720000000000000195, -1.224606353822377258E-16, 2.000000000000000000 ) ) ;
#986 = PLANE ( 'NONE',  #77 ) ;
#987 =( GEOMETRIC_REPRESENTATION_CONTEXT ( 3 ) GLOBAL_UNCERTAINTY_ASSIGNED_CONTEXT ( ( #1170 ) ) GLOBAL_UNIT_ASSIGNED_CONTEXT ( ( #311, #306, #502 ) ) REPRESENTATION_CONTEXT ( 'NONE', 'WORKASPACE' ) );
#988 = PRESENTATION_STYLE_ASSIGNMENT (( #797 ) ) ;
#989 = PRODUCT_DEFINITION ( 'UNKNOWN', '', #1046, #719 ) ;
#990 = LINE ( 'NONE', #901, #890 ) ;
#991 = CARTESIAN_POINT ( 'NONE',  ( -2.720000000000000195, 0.5028517505437577473, 0.0000000000000000000 ) ) ;
#992 =( NAMED_UNIT ( * ) PLANE_ANGLE_UNIT ( ) SI_UNIT ( $, .RADIAN. ) );
#993 = LINE ( 'NONE', #1094, #222 ) ;
#994 = SURFACE_SIDE_STYLE ('',( #1081 ) ) ;
#995 = CARTESIAN_POINT ( 'NONE',  ( 1.236867777919315348, -2.254999999999999893, 2.034899999999999931 ) ) ;
#996 = DIRECTION ( 'NONE',  ( 0.0000000000000000000, 1.000000000000000000, 0.0000000000000000000 ) ) ;
#997 = EDGE_CURVE ( 'NONE', #849, #1007, #88, .T. ) ;
#998 = CARTESIAN_POINT ( 'NONE',  ( 1.625000000000000444, -2.254999999999999893, 2.034999999999999698 ) ) ;
#999 = VECTOR ( 'NONE', #1078, 1000.000000000000000 ) ;
#1000 = VECTOR ( 'NONE', #99, 1000.000000000000000 ) ;
#1001 =( NAMED_UNIT ( * ) SI_UNIT ( $, .STERADIAN. ) SOLID_ANGLE_UNIT ( ) );
#1002 = FACE_OUTER_BOUND ( 'NONE', #473, .T. ) ;
#1003 = VECTOR ( 'NONE', #263, 1000.000000000000000 ) ;
#1004 = ORIENTED_EDGE ( 'NONE', *, *, #957, .T. ) ;
#1005 = CARTESIAN_POINT ( 'NONE',  ( 1.624999999999999778, 2.220000000000000195, 2.034999999999999698 ) ) ;
#1006 = LINE ( 'NONE', #912, #578 ) ;
#1007 = VERTEX_POINT ( 'NONE', #283 ) ;
#1008 = PRESENTATION_STYLE_ASSIGNMENT (( #546 ) ) ;
#1009 = DIRECTION ( 'NONE',  ( 1.000000000000000000, 0.0000000000000000000, 0.0000000000000000000 ) ) ;
#1010 = LINE ( 'NONE', #26, #589 ) ;
#1011 = ORIENTED_EDGE ( 'NONE', *, *, #292, .F. ) ;
#1012 = FILL_AREA_STYLE_COLOUR ( '', #731 ) ;
#1013 = UNCERTAINTY_MEASURE_WITH_UNIT (LENGTH_MEASURE( 1.000000000000000082E-05 ), #876, 'distance_accuracy_value', 'NONE');
#1014 = DIRECTION ( 'NONE',  ( 1.000000000000000000, 9.767587139509048566E-17, -0.0000000000000000000 ) ) ;
#1015 = ADVANCED_FACE ( 'NONE', ( #18 ), #911, .F. ) ;
#1016 =( NAMED_UNIT ( * ) PLANE_ANGLE_UNIT ( ) SI_UNIT ( $, .RADIAN. ) );
#1017 = EDGE_LOOP ( 'NONE', ( #829, #1125, #692, #305 ) ) ;
#1018 = SURFACE_STYLE_FILL_AREA ( #645 ) ;
#1019 = VECTOR ( 'NONE', #1063, 1000.000000000000000 ) ;
#1020 = DIRECTION ( 'NONE',  ( -9.767587139509048566E-17, 1.000000000000000000, -0.0000000000000000000 ) ) ;
#1021 = MECHANICAL_DESIGN_GEOMETRIC_PRESENTATION_REPRESENTATION (  '', ( #1058 ), #128 ) ;
#1022 = VECTOR ( 'NONE', #526, 1000.000000000000000 ) ;
#1023 = DIRECTION ( 'NONE',  ( 0.0000000000000000000, 1.000000000000000000, 0.0000000000000000000 ) ) ;
#1024 = PRESENTATION_LAYER_ASSIGNMENT (  '', '', ( #319 ) ) ;
#1025 = PRESENTATION_LAYER_ASSIGNMENT (  '', '', ( #14 ) ) ;
#1026 = ORIENTED_EDGE ( 'NONE', *, *, #788, .T. ) ;
#1027 = FILL_AREA_STYLE_COLOUR ( '', #411 ) ;
#1028 = VERTEX_POINT ( 'NONE', #199 ) ;
#1029 =( NAMED_UNIT ( * ) SI_UNIT ( $, .STERADIAN. ) SOLID_ANGLE_UNIT ( ) );
#1030 = ORIENTED_EDGE ( 'NONE', *, *, #1174, .T. ) ;
#1031 = ADVANCED_FACE ( 'NONE', ( #455 ), #821, .F. ) ;
#1032 = ORIENTED_EDGE ( 'NONE', *, *, #82, .T. ) ;
#1033 = PRESENTATION_STYLE_ASSIGNMENT (( #403 ) ) ;
#1034 = ORIENTED_EDGE ( 'NONE', *, *, #268, .F. ) ;
#1035 = ADVANCED_FACE ( 'NONE', ( #7 ), #1099, .F. ) ;
#1036 = SURFACE_STYLE_USAGE ( .BOTH. , #498 ) ;
#1037 = ORIENTED_EDGE ( 'NONE', *, *, #363, .F. ) ;
#1038 = FILL_AREA_STYLE_COLOUR ( '', #463 ) ;
#1039 = CARTESIAN_POINT ( 'NONE',  ( -2.720000000000000639, 2.220000000000000195, 2.000000000000000000 ) ) ;
#1040 = COLOUR_RGB ( '',0.7529411764705882248, 0.7529411764705882248, 0.7529411764705882248 ) ;
#1041 = FILL_AREA_STYLE_COLOUR ( '', #140 ) ;
#1042 = AXIS2_PLACEMENT_3D ( 'NONE', #1005, #289, #1091 ) ;
#1043 = CIRCLE ( 'NONE', #1061, 0.5028517505437577473 ) ;
#1044 =( LENGTH_UNIT ( ) NAMED_UNIT ( * ) SI_UNIT ( .MILLI., .METRE. ) );
#1045 = ADVANCED_BREP_SHAPE_REPRESENTATION ( '506D6085-CDB1-45D3-B841-217DDE184418', ( #775, #951 ), #485 ) ;
#1046 = PRODUCT_DEFINITION_FORMATION_WITH_SPECIFIED_SOURCE ( 'ANY', '', #174, .NOT_KNOWN. ) ;
#1047 = ORIENTED_EDGE ( 'NONE', *, *, #206, .T. ) ;
#1048 = SURFACE_SIDE_STYLE ('',( #594 ) ) ;
#1049 =( NAMED_UNIT ( * ) SI_UNIT ( $, .STERADIAN. ) SOLID_ANGLE_UNIT ( ) );
#1050 = ORIENTED_EDGE ( 'NONE', *, *, #361, .F. ) ;
#1051 = SHAPE_DEFINITION_REPRESENTATION ( #601, #1045 ) ;
#1052 = EDGE_CURVE ( 'NONE', #931, #751, #64, .T. ) ;
#1053 = DIRECTION ( 'NONE',  ( -0.0000000000000000000, -0.0000000000000000000, 1.000000000000000000 ) ) ;
#1054 = VERTEX_POINT ( 'NONE', #943 ) ;
#1055 = VECTOR ( 'NONE', #787, 1000.000000000000000 ) ;
#1056 = DIRECTION ( 'NONE',  ( -0.0000000000000000000, 0.0000000000000000000, 1.000000000000000000 ) ) ;
#1057 = CARTESIAN_POINT ( 'NONE',  ( -2.720000000000000639, 2.220000000000000195, 2.000000000000000000 ) ) ;
#1058 = STYLED_ITEM ( 'NONE', ( #253 ), #257 ) ;
#1059 = STYLED_ITEM ( 'NONE', ( #480 ), #930 ) ;
#1060 = PRESENTATION_LAYER_ASSIGNMENT (  '', '', ( #53 ) ) ;
#1061 = AXIS2_PLACEMENT_3D ( 'NONE', #638, #286, #1009 ) ;
#1062 = ORIENTED_EDGE ( 'NONE', *, *, #739, .T. ) ;
#1063 = DIRECTION ( 'NONE',  ( -9.615983791445715177E-17, -1.000000000000000000, 6.123031769111886291E-17 ) ) ;
#1064 = SURFACE_STYLE_FILL_AREA ( #982 ) ;
#1065 = EDGE_CURVE ( 'NONE', #207, #1109, #488, .T. ) ;
#1066 = ORIENTED_EDGE ( 'NONE', *, *, #363, .T. ) ;
#1067 = FILL_AREA_STYLE_COLOUR ( '', #1040 ) ;
#1068 = DIRECTION ( 'NONE',  ( 9.767587139509048566E-17, -1.000000000000000000, 0.0000000000000000000 ) ) ;
#1069 = ORIENTED_EDGE ( 'NONE', *, *, #764, .F. ) ;
#1070 = PLANE ( 'NONE',  #425 ) ;
#1071 = FILL_AREA_STYLE ('',( #157 ) ) ;
#1072 = VECTOR ( 'NONE', #1068, 1000.000000000000000 ) ;
#1073 = VECTOR ( 'NONE', #614, 1000.000000000000000 ) ;
#1074 = SURFACE_SIDE_STYLE ('',( #1064 ) ) ;
#1075 = MECHANICAL_DESIGN_GEOMETRIC_PRESENTATION_REPRESENTATION (  '', ( #1059 ), #538 ) ;
#1076 = PRESENTATION_LAYER_ASSIGNMENT (  '', '', ( #794 ) ) ;
#1077 = DIRECTION ( 'NONE',  ( -5.887897424628707795E-33, 0.0000000000000000000, 1.000000000000000000 ) ) ;
#1078 = DIRECTION ( 'NONE',  ( -0.0000000000000000000, -0.0000000000000000000, 1.000000000000000000 ) ) ;
#1079 = DIRECTION ( 'NONE',  ( -0.0000000000000000000, -0.0000000000000000000, 1.000000000000000000 ) ) ;
#1080 = PRESENTATION_STYLE_ASSIGNMENT (( #445 ) ) ;
#1081 = SURFACE_STYLE_FILL_AREA ( #1071 ) ;
#1082 = FILL_AREA_STYLE ('',( #345 ) ) ;
#1083 = EDGE_CURVE ( 'NONE', #804, #864, #660, .T. ) ;
#1084 = LINE ( 'NONE', #362, #555 ) ;
#1085 = ADVANCED_FACE ( 'NONE', ( #1145 ), #478, .F. ) ;
#1086 = EDGE_CURVE ( 'NONE', #1142, #1113, #1118, .T. ) ;
#1087 = DIRECTION ( 'NONE',  ( -9.615983791445715177E-17, -1.000000000000000000, 6.123031769111886291E-17 ) ) ;
#1088 = VERTEX_POINT ( 'NONE', #1110 ) ;
#1089 = SURFACE_STYLE_FILL_AREA ( #650 ) ;
#1090 = EDGE_LOOP ( 'NONE', ( #44, #301, #12, #318 ) ) ;
#1091 = DIRECTION ( 'NONE',  ( 9.767587139509049799E-17, -1.000000000000000000, 0.0000000000000000000 ) ) ;
#1092 = ADVANCED_FACE ( 'NONE', ( #37 ), #297, .F. ) ;
#1093 = COLOUR_RGB ( '',0.7529411764705882248, 0.7529411764705882248, 0.7529411764705882248 ) ;
#1094 = CARTESIAN_POINT ( 'NONE',  ( -2.720000000000000195, -2.220000000000000195, 2.000000000000000000 ) ) ;
#1095 = ORIENTED_EDGE ( 'NONE', *, *, #96, .T. ) ;
#1096 =( NAMED_UNIT ( * ) SI_UNIT ( $, .STERADIAN. ) SOLID_ANGLE_UNIT ( ) );
#1097 = PLANE ( 'NONE',  #316 ) ;
#1098 = LINE ( 'NONE', #921, #1144 ) ;
#1099 = PLANE ( 'NONE',  #1166 ) ;
#1100 = EDGE_CURVE ( 'NONE', #483, #1007, #1161, .T. ) ;
#1101 = DIRECTION ( 'NONE',  ( -1.000000000000000000, -0.0000000000000000000, -0.0000000000000000000 ) ) ;
#1102 = LINE ( 'NONE', #628, #376 ) ;
#1103 = FILL_AREA_STYLE_COLOUR ( '', #274 ) ;
#1104 = DIRECTION ( 'NONE',  ( 1.000000000000000000, 0.0000000000000000000, 0.0000000000000000000 ) ) ;
#1105 = VERTEX_POINT ( 'NONE', #716 ) ;
#1106 = FILL_AREA_STYLE ('',( #453 ) ) ;
#1107 = ADVANCED_FACE ( 'NONE', ( #449 ), #986, .F. ) ;
#1108 = SURFACE_STYLE_USAGE ( .BOTH. , #742 ) ;
#1109 = VERTEX_POINT ( 'NONE', #554 ) ;
#1110 = CARTESIAN_POINT ( 'NONE',  ( -2.720000000000000195, -2.220000000000000195, 2.000000000000000000 ) ) ;
#1111 = MECHANICAL_DESIGN_GEOMETRIC_PRESENTATION_REPRESENTATION (  '', ( #905 ), #768 ) ;
#1112 = VECTOR ( 'NONE', #883, 1000.000000000000000 ) ;
#1113 = VERTEX_POINT ( 'NONE', #212 ) ;
#1114 = VECTOR ( 'NONE', #525, 1000.000000000000000 ) ;
#1115 = CARTESIAN_POINT ( 'NONE',  ( 2.720000000000000195, -1.224606353822377258E-16, 0.0000000000000000000 ) ) ;
#1116 = COLOUR_RGB ( '',0.7529411764705882248, 0.7529411764705882248, 0.7529411764705882248 ) ;
#1117 = ORIENTED_EDGE ( 'NONE', *, *, #415, .F. ) ;
#1118 = LINE ( 'NONE', #842, #711 ) ;
#1119 = PRESENTATION_STYLE_ASSIGNMENT (( #1036 ) ) ;
#1120 = ORIENTED_EDGE ( 'NONE', *, *, #531, .F. ) ;
#1121 = PRESENTATION_STYLE_ASSIGNMENT (( #369 ) ) ;
#1122 = ADVANCED_FACE ( 'NONE', ( #542 ), #25, .F. ) ;
#1123 = ORIENTED_EDGE ( 'NONE', *, *, #427, .F. ) ;
#1124 = CARTESIAN_POINT ( 'NONE',  ( -2.720000000000000195, -2.220000000000000195, 2.000000000000000000 ) ) ;
#1125 = ORIENTED_EDGE ( 'NONE', *, *, #244, .F. ) ;
#1126 = SURFACE_SIDE_STYLE ('',( #779 ) ) ;
#1127 = SURFACE_STYLE_FILL_AREA ( #46 ) ;
#1128 =( NAMED_UNIT ( * ) PLANE_ANGLE_UNIT ( ) SI_UNIT ( $, .RADIAN. ) );
#1129 = STYLED_ITEM ( 'NONE', ( #585 ), #89 ) ;
#1130 = ORIENTED_EDGE ( 'NONE', *, *, #220, .F. ) ;
#1131 = CARTESIAN_POINT ( 'NONE',  ( -2.720000000000000195, -2.220000000000000195, 2.000000000000000000 ) ) ;
#1132 =( GEOMETRIC_REPRESENTATION_CONTEXT ( 3 ) GLOBAL_UNCERTAINTY_ASSIGNED_CONTEXT ( ( #941 ) ) GLOBAL_UNIT_ASSIGNED_CONTEXT ( ( #816, #208, #508 ) ) REPRESENTATION_CONTEXT ( 'NONE', 'WORKASPACE' ) );
#1133 =( NAMED_UNIT ( * ) PLANE_ANGLE_UNIT ( ) SI_UNIT ( $, .RADIAN. ) );
#1134 = ADVANCED_FACE ( 'NONE', ( #1002 ), #124, .F. ) ;
#1135 = ORIENTED_EDGE ( 'NONE', *, *, #673, .F. ) ;
#1136 = CARTESIAN_POINT ( 'NONE',  ( -1.625000000000000222, 2.220000000000000195, 2.034999999999999698 ) ) ;
#1137 = UNCERTAINTY_MEASURE_WITH_UNIT (LENGTH_MEASURE( 1.000000000000000082E-05 ), #491, 'distance_accuracy_value', 'NONE');
#1138 = ORIENTED_EDGE ( 'NONE', *, *, #206, .F. ) ;
#1139 = PLANE ( 'NONE',  #689 ) ;
#1140 = CARTESIAN_POINT ( 'NONE',  ( -2.720000000000000195, -2.220000000000000195, 0.0000000000000000000 ) ) ;
#1141 = PLANE ( 'NONE',  #858 ) ;
#1142 = VERTEX_POINT ( 'NONE', #474 ) ;
#1143 = LINE ( 'NONE', #977, #370 ) ;
#1144 = VECTOR ( 'NONE', #109, 1000.000000000000000 ) ;
#1145 = FACE_OUTER_BOUND ( 'NONE', #159, .T. ) ;
#1146 = STYLED_ITEM ( 'NONE', ( #639 ), #338 ) ;
#1147 = FACE_OUTER_BOUND ( 'NONE', #221, .T. ) ;
#1148 =( GEOMETRIC_REPRESENTATION_CONTEXT ( 3 ) GLOBAL_UNCERTAINTY_ASSIGNED_CONTEXT ( ( #1013 ) ) GLOBAL_UNIT_ASSIGNED_CONTEXT ( ( #876, #343, #713 ) ) REPRESENTATION_CONTEXT ( 'NONE', 'WORKASPACE' ) );
#1149 = FILL_AREA_STYLE_COLOUR ( '', #278 ) ;
#1150 = EDGE_LOOP ( 'NONE', ( #674, #282, #524, #754, #783, #549, #644 ) ) ;
#1151 = SURFACE_STYLE_FILL_AREA ( #810 ) ;
#1152 = CARTESIAN_POINT ( 'NONE',  ( 1.624999999999999778, -2.220000000000000195, 2.000000000000000000 ) ) ;
#1153 = SURFACE_STYLE_USAGE ( .BOTH. , #904 ) ;
#1154 = DIRECTION ( 'NONE',  ( 9.615983791445715177E-17, 1.000000000000000000, -6.123031769111886291E-17 ) ) ;
#1155 = EDGE_LOOP ( 'NONE', ( #889, #952, #823, #421, #960, #1047, #402, #505 ) ) ;
#1156 = FILL_AREA_STYLE ('',( #909 ) ) ;
#1157 = LINE ( 'NONE', #429, #1003 ) ;
#1158 = ORIENTED_EDGE ( 'NONE', *, *, #621, .T. ) ;
#1159 = SURFACE_SIDE_STYLE ('',( #1151 ) ) ;
#1160 = LINE ( 'NONE', #248, #690 ) ;
#1161 = LINE ( 'NONE', #182, #675 ) ;
#1162 = DIRECTION ( 'NONE',  ( 0.0000000000000000000, -1.000000000000000000, 0.0000000000000000000 ) ) ;
#1163 = AXIS2_PLACEMENT_3D ( 'NONE', #150, #143, #52 ) ;
#1164 = VECTOR ( 'NONE', #187, 1000.000000000000000 ) ;
#1165 = COLOUR_RGB ( '',0.7529411764705882248, 0.7529411764705882248, 0.7529411764705882248 ) ;
#1166 = AXIS2_PLACEMENT_3D ( 'NONE', #937, #786, #744 ) ;
#1167 = CARTESIAN_POINT ( 'NONE',  ( -2.720000000000000639, 2.220000000000000195, 2.000000000000000000 ) ) ;
#1168 = COLOUR_RGB ( '',0.7529411764705882248, 0.7529411764705882248, 0.7529411764705882248 ) ;
#1169 = EDGE_CURVE ( 'NONE', #640, #955, #1102, .T. ) ;
#1170 = UNCERTAINTY_MEASURE_WITH_UNIT (LENGTH_MEASURE( 1.000000000000000082E-05 ), #311, 'distance_accuracy_value', 'NONE');
#1171 = SURFACE_STYLE_USAGE ( .BOTH. , #372 ) ;
#1172 = CARTESIAN_POINT ( 'NONE',  ( 1.624999999999999778, 2.219999999999999751, 0.03499999999999987149 ) ) ;
#1173 = LINE ( 'NONE', #448, #1164 ) ;
#1174 = EDGE_CURVE ( 'NONE', #1028, #544, #1043, .T. ) ;
ENDSEC;
END-ISO-10303-21;
