ISO-10303-21;
HEADER;
/* Generated by software containing ST-Developer
 * from STEP Tools, Inc. (www.steptools.com) 
 */

FILE_DESCRIPTION(
/* description */ (''),
/* implementation_level */ '2;1');

FILE_NAME(
/* name */ 'reed_mk33.step',
/* time_stamp */ '2025-05-22T22:17:52+02:00',
/* author */ (''),
/* organization */ (''),
/* preprocessor_version */ 'ST-DEVELOPER v20.1',
/* originating_system */ 'Autodesk Translation Framework v14.4.0.0',
/* authorisation */ '');

FILE_SCHEMA (('AUTOMOTIVE_DESIGN { 1 0 10303 214 3 1 1 }'));
ENDSEC;

DATA;
#10=MECHANICAL_DESIGN_GEOMETRIC_PRESENTATION_REPRESENTATION('',(#13,#14,
#15,#16,#17),#342);
#11=SHAPE_REPRESENTATION_RELATIONSHIP('SRR','None',#349,#12);
#12=ADVANCED_BREP_SHAPE_REPRESENTATION('',(#18,#19,#20,#21,#22),#341);
#13=STYLED_ITEM('',(#359),#18);
#14=STYLED_ITEM('',(#359),#19);
#15=STYLED_ITEM('',(#360),#20);
#16=STYLED_ITEM('',(#359),#21);
#17=STYLED_ITEM('',(#359),#22);
#18=MANIFOLD_SOLID_BREP('Body1',#178);
#19=MANIFOLD_SOLID_BREP('Body2',#179);
#20=MANIFOLD_SOLID_BREP('Body3',#180);
#21=MANIFOLD_SOLID_BREP('Body4',#181);
#22=MANIFOLD_SOLID_BREP('Body5',#182);
#23=PLANE('',#200);
#24=PLANE('',#205);
#25=PLANE('',#215);
#26=PLANE('',#219);
#27=PLANE('',#220);
#28=PLANE('',#224);
#29=LINE('',#297,#34);
#30=LINE('',#303,#35);
#31=LINE('',#318,#36);
#32=LINE('',#329,#37);
#33=LINE('',#337,#38);
#34=VECTOR('',#235,0.3);
#35=VECTOR('',#242,0.3);
#36=VECTOR('',#261,1.1);
#37=VECTOR('',#276,0.45);
#38=VECTOR('',#287,0.449999999999999);
#39=CYLINDRICAL_SURFACE('',#198,0.3);
#40=CYLINDRICAL_SURFACE('',#201,0.3);
#41=CYLINDRICAL_SURFACE('',#210,1.1);
#42=CYLINDRICAL_SURFACE('',#217,0.45);
#43=CYLINDRICAL_SURFACE('',#222,0.449999999999999);
#44=FACE_OUTER_BOUND('',#59,.T.);
#45=FACE_OUTER_BOUND('',#60,.T.);
#46=FACE_OUTER_BOUND('',#61,.T.);
#47=FACE_OUTER_BOUND('',#62,.T.);
#48=FACE_OUTER_BOUND('',#63,.T.);
#49=FACE_OUTER_BOUND('',#64,.T.);
#50=FACE_OUTER_BOUND('',#65,.T.);
#51=FACE_OUTER_BOUND('',#66,.T.);
#52=FACE_OUTER_BOUND('',#67,.T.);
#53=FACE_OUTER_BOUND('',#68,.T.);
#54=FACE_OUTER_BOUND('',#69,.T.);
#55=FACE_OUTER_BOUND('',#70,.T.);
#56=FACE_OUTER_BOUND('',#71,.T.);
#57=FACE_OUTER_BOUND('',#72,.T.);
#58=FACE_OUTER_BOUND('',#73,.T.);
#59=EDGE_LOOP('',(#121));
#60=EDGE_LOOP('',(#122,#123,#124,#125));
#61=EDGE_LOOP('',(#126));
#62=EDGE_LOOP('',(#127,#128,#129,#130));
#63=EDGE_LOOP('',(#131));
#64=EDGE_LOOP('',(#132));
#65=EDGE_LOOP('',(#133,#134,#135,#136));
#66=EDGE_LOOP('',(#137,#138,#139,#140,#141,#142));
#67=EDGE_LOOP('',(#143,#144,#145,#146));
#68=EDGE_LOOP('',(#147));
#69=EDGE_LOOP('',(#148,#149,#150,#151));
#70=EDGE_LOOP('',(#152));
#71=EDGE_LOOP('',(#153));
#72=EDGE_LOOP('',(#154,#155,#156,#157));
#73=EDGE_LOOP('',(#158));
#74=CIRCLE('',#197,0.3);
#75=CIRCLE('',#199,0.3);
#76=CIRCLE('',#202,0.3);
#77=CIRCLE('',#203,0.3);
#78=CIRCLE('',#207,1.1);
#79=CIRCLE('',#208,1.1);
#80=CIRCLE('',#209,1.1);
#81=CIRCLE('',#211,1.1);
#82=CIRCLE('',#212,1.1);
#83=CIRCLE('',#214,1.1);
#84=CIRCLE('',#216,0.45);
#85=CIRCLE('',#218,0.45);
#86=CIRCLE('',#221,0.449999999999999);
#87=CIRCLE('',#223,0.449999999999999);
#88=VERTEX_POINT('',#292);
#89=VERTEX_POINT('',#295);
#90=VERTEX_POINT('',#300);
#91=VERTEX_POINT('',#302);
#92=VERTEX_POINT('',#308);
#93=VERTEX_POINT('',#309);
#94=VERTEX_POINT('',#312);
#95=VERTEX_POINT('',#315);
#96=VERTEX_POINT('',#316);
#97=VERTEX_POINT('',#321);
#98=VERTEX_POINT('',#324);
#99=VERTEX_POINT('',#327);
#100=VERTEX_POINT('',#332);
#101=VERTEX_POINT('',#335);
#102=EDGE_CURVE('',#88,#88,#74,.T.);
#103=EDGE_CURVE('',#89,#89,#75,.T.);
#104=EDGE_CURVE('',#89,#88,#29,.T.);
#105=EDGE_CURVE('',#90,#90,#76,.T.);
#106=EDGE_CURVE('',#90,#91,#30,.T.);
#107=EDGE_CURVE('',#91,#91,#77,.T.);
#108=EDGE_CURVE('',#92,#93,#78,.T.);
#109=EDGE_CURVE('',#93,#92,#79,.T.);
#110=EDGE_CURVE('',#94,#93,#80,.T.);
#111=EDGE_CURVE('',#95,#96,#81,.T.);
#112=EDGE_CURVE('',#95,#92,#31,.T.);
#113=EDGE_CURVE('',#96,#95,#82,.T.);
#114=EDGE_CURVE('',#96,#97,#83,.T.);
#115=EDGE_CURVE('',#98,#98,#84,.T.);
#116=EDGE_CURVE('',#99,#99,#85,.T.);
#117=EDGE_CURVE('',#99,#98,#32,.T.);
#118=EDGE_CURVE('',#100,#100,#86,.T.);
#119=EDGE_CURVE('',#101,#101,#87,.T.);
#120=EDGE_CURVE('',#101,#100,#33,.T.);
#121=ORIENTED_EDGE('',*,*,#102,.F.);
#122=ORIENTED_EDGE('',*,*,#103,.F.);
#123=ORIENTED_EDGE('',*,*,#104,.T.);
#124=ORIENTED_EDGE('',*,*,#102,.T.);
#125=ORIENTED_EDGE('',*,*,#104,.F.);
#126=ORIENTED_EDGE('',*,*,#103,.T.);
#127=ORIENTED_EDGE('',*,*,#105,.F.);
#128=ORIENTED_EDGE('',*,*,#106,.T.);
#129=ORIENTED_EDGE('',*,*,#107,.T.);
#130=ORIENTED_EDGE('',*,*,#106,.F.);
#131=ORIENTED_EDGE('',*,*,#105,.T.);
#132=ORIENTED_EDGE('',*,*,#107,.F.);
#133=ORIENTED_EDGE('',*,*,#108,.F.);
#134=ORIENTED_EDGE('',*,*,#109,.F.);
#135=ORIENTED_EDGE('',*,*,#110,.F.);
#136=ORIENTED_EDGE('',*,*,#110,.T.);
#137=ORIENTED_EDGE('',*,*,#111,.F.);
#138=ORIENTED_EDGE('',*,*,#112,.T.);
#139=ORIENTED_EDGE('',*,*,#108,.T.);
#140=ORIENTED_EDGE('',*,*,#109,.T.);
#141=ORIENTED_EDGE('',*,*,#112,.F.);
#142=ORIENTED_EDGE('',*,*,#113,.F.);
#143=ORIENTED_EDGE('',*,*,#111,.T.);
#144=ORIENTED_EDGE('',*,*,#114,.T.);
#145=ORIENTED_EDGE('',*,*,#114,.F.);
#146=ORIENTED_EDGE('',*,*,#113,.T.);
#147=ORIENTED_EDGE('',*,*,#115,.T.);
#148=ORIENTED_EDGE('',*,*,#116,.F.);
#149=ORIENTED_EDGE('',*,*,#117,.T.);
#150=ORIENTED_EDGE('',*,*,#115,.F.);
#151=ORIENTED_EDGE('',*,*,#117,.F.);
#152=ORIENTED_EDGE('',*,*,#116,.T.);
#153=ORIENTED_EDGE('',*,*,#118,.T.);
#154=ORIENTED_EDGE('',*,*,#119,.F.);
#155=ORIENTED_EDGE('',*,*,#120,.T.);
#156=ORIENTED_EDGE('',*,*,#118,.F.);
#157=ORIENTED_EDGE('',*,*,#120,.F.);
#158=ORIENTED_EDGE('',*,*,#119,.T.);
#159=SPHERICAL_SURFACE('',#196,1.1);
#160=SPHERICAL_SURFACE('',#204,1.1);
#161=SPHERICAL_SURFACE('',#206,1.1);
#162=SPHERICAL_SURFACE('',#213,1.1);
#163=ADVANCED_FACE('',(#44),#159,.F.);
#164=ADVANCED_FACE('',(#45),#39,.T.);
#165=ADVANCED_FACE('',(#46),#23,.T.);
#166=ADVANCED_FACE('',(#47),#40,.T.);
#167=ADVANCED_FACE('',(#48),#160,.F.);
#168=ADVANCED_FACE('',(#49),#24,.T.);
#169=ADVANCED_FACE('',(#50),#161,.T.);
#170=ADVANCED_FACE('',(#51),#41,.T.);
#171=ADVANCED_FACE('',(#52),#162,.T.);
#172=ADVANCED_FACE('',(#53),#25,.F.);
#173=ADVANCED_FACE('',(#54),#42,.T.);
#174=ADVANCED_FACE('',(#55),#26,.T.);
#175=ADVANCED_FACE('',(#56),#27,.F.);
#176=ADVANCED_FACE('',(#57),#43,.T.);
#177=ADVANCED_FACE('',(#58),#28,.T.);
#178=CLOSED_SHELL('',(#163,#164,#165));
#179=CLOSED_SHELL('',(#166,#167,#168));
#180=CLOSED_SHELL('',(#169,#170,#171));
#181=CLOSED_SHELL('',(#172,#173,#174));
#182=CLOSED_SHELL('',(#175,#176,#177));
#183=DERIVED_UNIT_ELEMENT(#185,1.);
#184=DERIVED_UNIT_ELEMENT(#344,-3.);
#185=(
MASS_UNIT()
NAMED_UNIT(*)
SI_UNIT(.KILO.,.GRAM.)
);
#186=DERIVED_UNIT((#183,#184));
#187=MEASURE_REPRESENTATION_ITEM('density measure',
POSITIVE_RATIO_MEASURE(7850.),#186);
#188=PROPERTY_DEFINITION_REPRESENTATION(#193,#190);
#189=PROPERTY_DEFINITION_REPRESENTATION(#194,#191);
#190=REPRESENTATION('material name',(#192),#341);
#191=REPRESENTATION('density',(#187),#341);
#192=DESCRIPTIVE_REPRESENTATION_ITEM('Steel','Steel');
#193=PROPERTY_DEFINITION('material property','material name',#351);
#194=PROPERTY_DEFINITION('material property','density of part',#351);
#195=AXIS2_PLACEMENT_3D('',#290,#225,#226);
#196=AXIS2_PLACEMENT_3D('',#291,#227,#228);
#197=AXIS2_PLACEMENT_3D('',#293,#229,#230);
#198=AXIS2_PLACEMENT_3D('',#294,#231,#232);
#199=AXIS2_PLACEMENT_3D('',#296,#233,#234);
#200=AXIS2_PLACEMENT_3D('',#298,#236,#237);
#201=AXIS2_PLACEMENT_3D('',#299,#238,#239);
#202=AXIS2_PLACEMENT_3D('',#301,#240,#241);
#203=AXIS2_PLACEMENT_3D('',#304,#243,#244);
#204=AXIS2_PLACEMENT_3D('',#305,#245,#246);
#205=AXIS2_PLACEMENT_3D('',#306,#247,#248);
#206=AXIS2_PLACEMENT_3D('',#307,#249,#250);
#207=AXIS2_PLACEMENT_3D('',#310,#251,#252);
#208=AXIS2_PLACEMENT_3D('',#311,#253,#254);
#209=AXIS2_PLACEMENT_3D('',#313,#255,#256);
#210=AXIS2_PLACEMENT_3D('',#314,#257,#258);
#211=AXIS2_PLACEMENT_3D('',#317,#259,#260);
#212=AXIS2_PLACEMENT_3D('',#319,#262,#263);
#213=AXIS2_PLACEMENT_3D('',#320,#264,#265);
#214=AXIS2_PLACEMENT_3D('',#322,#266,#267);
#215=AXIS2_PLACEMENT_3D('',#323,#268,#269);
#216=AXIS2_PLACEMENT_3D('',#325,#270,#271);
#217=AXIS2_PLACEMENT_3D('',#326,#272,#273);
#218=AXIS2_PLACEMENT_3D('',#328,#274,#275);
#219=AXIS2_PLACEMENT_3D('',#330,#277,#278);
#220=AXIS2_PLACEMENT_3D('',#331,#279,#280);
#221=AXIS2_PLACEMENT_3D('',#333,#281,#282);
#222=AXIS2_PLACEMENT_3D('',#334,#283,#284);
#223=AXIS2_PLACEMENT_3D('',#336,#285,#286);
#224=AXIS2_PLACEMENT_3D('',#338,#288,#289);
#225=DIRECTION('axis',(0.,0.,1.));
#226=DIRECTION('refdir',(1.,0.,0.));
#227=DIRECTION('center_axis',(0.,6.44862776621242E-19,1.));
#228=DIRECTION('ref_axis',(-0.999944543181301,0.0105314083549677,0.));
#229=DIRECTION('center_axis',(-1.,0.,0.));
#230=DIRECTION('ref_axis',(0.,0.,1.));
#231=DIRECTION('center_axis',(-1.,0.,0.));
#232=DIRECTION('ref_axis',(0.,0.,1.));
#233=DIRECTION('center_axis',(-1.,0.,0.));
#234=DIRECTION('ref_axis',(0.,0.,1.));
#235=DIRECTION('',(1.,0.,0.));
#236=DIRECTION('center_axis',(-1.,0.,0.));
#237=DIRECTION('ref_axis',(0.,0.,1.));
#238=DIRECTION('center_axis',(-1.,0.,0.));
#239=DIRECTION('ref_axis',(0.,0.,1.));
#240=DIRECTION('center_axis',(-1.,0.,0.));
#241=DIRECTION('ref_axis',(0.,0.,1.));
#242=DIRECTION('',(1.,0.,0.));
#243=DIRECTION('center_axis',(-1.,0.,0.));
#244=DIRECTION('ref_axis',(0.,0.,1.));
#245=DIRECTION('center_axis',(0.,0.,1.));
#246=DIRECTION('ref_axis',(1.,0.,0.));
#247=DIRECTION('center_axis',(1.,0.,0.));
#248=DIRECTION('ref_axis',(0.,0.,-1.));
#249=DIRECTION('center_axis',(1.,-6.12323399573677E-17,0.));
#250=DIRECTION('ref_axis',(0.,-1.,0.));
#251=DIRECTION('center_axis',(-1.,0.,0.));
#252=DIRECTION('ref_axis',(0.,0.,1.));
#253=DIRECTION('center_axis',(-1.,0.,0.));
#254=DIRECTION('ref_axis',(0.,0.,1.));
#255=DIRECTION('center_axis',(0.,-1.22464679914735E-16,1.));
#256=DIRECTION('ref_axis',(0.,1.,1.22464679914735E-16));
#257=DIRECTION('center_axis',(-1.,0.,0.));
#258=DIRECTION('ref_axis',(0.,0.,1.));
#259=DIRECTION('center_axis',(-1.,0.,0.));
#260=DIRECTION('ref_axis',(0.,0.,1.));
#261=DIRECTION('',(1.,0.,0.));
#262=DIRECTION('center_axis',(-1.,0.,0.));
#263=DIRECTION('ref_axis',(0.,0.,1.));
#264=DIRECTION('center_axis',(1.,-6.12323399573676E-17,0.));
#265=DIRECTION('ref_axis',(0.,-1.,0.));
#266=DIRECTION('center_axis',(0.,-1.22464679914735E-16,1.));
#267=DIRECTION('ref_axis',(0.,1.,1.22464679914735E-16));
#268=DIRECTION('center_axis',(0.,1.,0.));
#269=DIRECTION('ref_axis',(1.,0.,0.));
#270=DIRECTION('center_axis',(0.,-1.,0.));
#271=DIRECTION('ref_axis',(1.,0.,0.));
#272=DIRECTION('center_axis',(0.,1.,0.));
#273=DIRECTION('ref_axis',(1.,0.,0.));
#274=DIRECTION('center_axis',(0.,1.,0.));
#275=DIRECTION('ref_axis',(1.,0.,0.));
#276=DIRECTION('',(0.,-1.,0.));
#277=DIRECTION('center_axis',(0.,1.,0.));
#278=DIRECTION('ref_axis',(1.,0.,0.));
#279=DIRECTION('center_axis',(0.,1.,0.));
#280=DIRECTION('ref_axis',(1.,0.,0.));
#281=DIRECTION('center_axis',(0.,-1.,0.));
#282=DIRECTION('ref_axis',(1.,0.,0.));
#283=DIRECTION('center_axis',(0.,1.,0.));
#284=DIRECTION('ref_axis',(1.,0.,0.));
#285=DIRECTION('center_axis',(0.,1.,0.));
#286=DIRECTION('ref_axis',(1.,0.,0.));
#287=DIRECTION('',(0.,-1.,0.));
#288=DIRECTION('center_axis',(0.,1.,0.));
#289=DIRECTION('ref_axis',(1.,0.,0.));
#290=CARTESIAN_POINT('',(0.,0.,0.));
#291=CARTESIAN_POINT('Origin',(2.6,0.,1.23259516440783E-32));
#292=CARTESIAN_POINT('',(1.54169947557416,-3.67394039744206E-17,-0.3));
#293=CARTESIAN_POINT('Origin',(1.54169947557416,0.,1.23259516440783E-32));
#294=CARTESIAN_POINT('Origin',(0.770849737787082,0.,1.23259516440783E-32));
#295=CARTESIAN_POINT('',(0.,-3.67394039744206E-17,-0.3));
#296=CARTESIAN_POINT('Origin',(1.54074395550979E-32,0.,1.23259516440783E-32));
#297=CARTESIAN_POINT('',(0.770849737787082,-3.67394039744206E-17,-0.3));
#298=CARTESIAN_POINT('Origin',(0.,0.,0.));
#299=CARTESIAN_POINT('Origin',(12.2291502622129,0.,1.23259516440783E-32));
#300=CARTESIAN_POINT('',(11.4583005244258,-3.67394039744206E-17,-0.3));
#301=CARTESIAN_POINT('Origin',(11.4583005244258,0.,1.23259516440783E-32));
#302=CARTESIAN_POINT('',(13.,-3.67394039744206E-17,-0.3));
#303=CARTESIAN_POINT('',(12.2291502622129,-3.67394039744206E-17,-0.3));
#304=CARTESIAN_POINT('Origin',(13.,0.,1.23259516440783E-32));
#305=CARTESIAN_POINT('Origin',(10.4,0.,1.23259516440783E-32));
#306=CARTESIAN_POINT('Origin',(13.,0.,0.3));
#307=CARTESIAN_POINT('Origin',(10.4,0.,1.23259516440783E-32));
#308=CARTESIAN_POINT('',(10.4,-1.34711147906209E-16,-1.1));
#309=CARTESIAN_POINT('',(10.4,1.1,1.34711147906209E-16));
#310=CARTESIAN_POINT('Origin',(10.4,0.,1.23259516440783E-32));
#311=CARTESIAN_POINT('Origin',(10.4,0.,1.23259516440783E-32));
#312=CARTESIAN_POINT('',(11.5,6.73555739531044E-17,2.05746304487185E-32));
#313=CARTESIAN_POINT('Origin',(10.4,0.,1.23259516440783E-32));
#314=CARTESIAN_POINT('Origin',(6.5,0.,1.23259516440783E-32));
#315=CARTESIAN_POINT('',(2.6,-1.34711147906209E-16,-1.1));
#316=CARTESIAN_POINT('',(2.6,1.1,1.34711147906209E-16));
#317=CARTESIAN_POINT('Origin',(2.6,0.,1.23259516440783E-32));
#318=CARTESIAN_POINT('',(6.5,-1.34711147906209E-16,-1.1));
#319=CARTESIAN_POINT('Origin',(2.6,0.,1.23259516440783E-32));
#320=CARTESIAN_POINT('Origin',(2.6,0.,1.23259516440783E-32));
#321=CARTESIAN_POINT('',(1.5,6.73555739531044E-17,2.05746304487185E-32));
#322=CARTESIAN_POINT('Origin',(2.6,0.,1.23259516440783E-32));
#323=CARTESIAN_POINT('Origin',(0.45,-1.1,0.75));
#324=CARTESIAN_POINT('',(0.,-1.1,0.75));
#325=CARTESIAN_POINT('Origin',(0.45,-1.1,0.75));
#326=CARTESIAN_POINT('Origin',(0.45,0.,0.75));
#327=CARTESIAN_POINT('',(0.,1.1,0.75));
#328=CARTESIAN_POINT('Origin',(0.45,1.1,0.75));
#329=CARTESIAN_POINT('',(0.,0.,0.75));
#330=CARTESIAN_POINT('Origin',(0.45,1.1,0.75));
#331=CARTESIAN_POINT('Origin',(12.55,-1.1,0.75));
#332=CARTESIAN_POINT('',(12.1,-1.1,0.75));
#333=CARTESIAN_POINT('Origin',(12.55,-1.1,0.75));
#334=CARTESIAN_POINT('Origin',(12.55,0.,0.75));
#335=CARTESIAN_POINT('',(12.1,1.1,0.75));
#336=CARTESIAN_POINT('Origin',(12.55,1.1,0.75));
#337=CARTESIAN_POINT('',(12.1,0.,0.75));
#338=CARTESIAN_POINT('Origin',(12.55,1.1,0.75));
#339=UNCERTAINTY_MEASURE_WITH_UNIT(LENGTH_MEASURE(0.01),#343,
'DISTANCE_ACCURACY_VALUE',
'Maximum model space distance between geometric entities at asserted c
onnectivities');
#340=UNCERTAINTY_MEASURE_WITH_UNIT(LENGTH_MEASURE(0.01),#343,
'DISTANCE_ACCURACY_VALUE',
'Maximum model space distance between geometric entities at asserted c
onnectivities');
#341=(
GEOMETRIC_REPRESENTATION_CONTEXT(3)
GLOBAL_UNCERTAINTY_ASSIGNED_CONTEXT((#339))
GLOBAL_UNIT_ASSIGNED_CONTEXT((#343,#345,#346))
REPRESENTATION_CONTEXT('','3D')
);
#342=(
GEOMETRIC_REPRESENTATION_CONTEXT(3)
GLOBAL_UNCERTAINTY_ASSIGNED_CONTEXT((#340))
GLOBAL_UNIT_ASSIGNED_CONTEXT((#343,#345,#346))
REPRESENTATION_CONTEXT('','3D')
);
#343=(
LENGTH_UNIT()
NAMED_UNIT(*)
SI_UNIT(.MILLI.,.METRE.)
);
#344=(
LENGTH_UNIT()
NAMED_UNIT(*)
SI_UNIT($,.METRE.)
);
#345=(
NAMED_UNIT(*)
PLANE_ANGLE_UNIT()
SI_UNIT($,.RADIAN.)
);
#346=(
NAMED_UNIT(*)
SI_UNIT($,.STERADIAN.)
SOLID_ANGLE_UNIT()
);
#347=SHAPE_DEFINITION_REPRESENTATION(#348,#349);
#348=PRODUCT_DEFINITION_SHAPE('',$,#351);
#349=SHAPE_REPRESENTATION('',(#195),#341);
#350=PRODUCT_DEFINITION_CONTEXT('part definition',#355,'design');
#351=PRODUCT_DEFINITION('reed_mk33','reed_mk33 v2',#352,#350);
#352=PRODUCT_DEFINITION_FORMATION('',$,#357);
#353=PRODUCT_RELATED_PRODUCT_CATEGORY('reed_mk33 v2','reed_mk33 v2',(#357));
#354=APPLICATION_PROTOCOL_DEFINITION('international standard',
'automotive_design',2009,#355);
#355=APPLICATION_CONTEXT(
'Core Data for Automotive Mechanical Design Process');
#356=PRODUCT_CONTEXT('part definition',#355,'mechanical');
#357=PRODUCT('reed_mk33','reed_mk33 v2',$,(#356));
#358=PRESENTATION_STYLE_ASSIGNMENT((#361));
#359=PRESENTATION_STYLE_ASSIGNMENT((#362));
#360=PRESENTATION_STYLE_ASSIGNMENT((#363));
#361=SURFACE_STYLE_USAGE(.BOTH.,#364);
#362=SURFACE_STYLE_USAGE(.BOTH.,#365);
#363=SURFACE_STYLE_USAGE(.BOTH.,#366);
#364=SURFACE_SIDE_STYLE('',(#367));
#365=SURFACE_SIDE_STYLE('',(#368));
#366=SURFACE_SIDE_STYLE('',(#369));
#367=SURFACE_STYLE_FILL_AREA(#370);
#368=SURFACE_STYLE_FILL_AREA(#371);
#369=SURFACE_STYLE_FILL_AREA(#372);
#370=FILL_AREA_STYLE('Steel - Satin',(#373));
#371=FILL_AREA_STYLE('Lead - Satin',(#374));
#372=FILL_AREA_STYLE('Paint - Enamel Glossy (Green)',(#375));
#373=FILL_AREA_STYLE_COLOUR('Steel - Satin',#376);
#374=FILL_AREA_STYLE_COLOUR('Lead - Satin',#377);
#375=FILL_AREA_STYLE_COLOUR('Paint - Enamel Glossy (Green)',#378);
#376=COLOUR_RGB('Steel - Satin',0.627450980392157,0.627450980392157,0.627450980392157);
#377=COLOUR_RGB('Lead - Satin',0.815686274509804,0.815686274509804,0.815686274509804);
#378=COLOUR_RGB('Paint - Enamel Glossy (Green)',0.266666666666667,0.588235294117647,
0.282352941176471);
ENDSEC;
END-ISO-10303-21;
