ISO-10303-21;
HEADER;
FILE_DESCRIPTION(('STEP AP242'),'1');
FILE_NAME('tsr_0_5-2415.stp','2025-04-18T13:09:08',('TraceParts'),('TraceParts S.A.'),'Spatial InterOp 3D',' ',' ');
FILE_SCHEMA(('AP242_MANAGED_MODEL_BASED_3D_ENGINEERING_MIM_LF  {1 0 10303 442 1 1 4}'));
ENDSEC;
DATA;
#1=MECHANICAL_DESIGN_GEOMETRIC_PRESENTATION_REPRESENTATION(' ',(#10,#11,#12,#13,#14,#15,#16,#17,#18,#19,#20,#21,#22,#23,#24,#25,#26,#27,#28),#6);
#2=PRODUCT_DEFINITION_CONTEXT('',#29,'design');
#3=APPLICATION_PROTOCOL_DEFINITION('INTERNATIONAL STANDARD','ap242_managed_model_based_3d_engineering',2014,#29);
#4=PRODUCT_CATEGORY_RELATIONSHIP('NONE','NONE',#30,#31);
#5=SHAPE_DEFINITION_REPRESENTATION(#32,#33);
#6= (GEOMETRIC_REPRESENTATION_CONTEXT(3)GLOBAL_UNCERTAINTY_ASSIGNED_CONTEXT((#36))GLOBAL_UNIT_ASSIGNED_CONTEXT((#38,#39,#40))REPRESENTATION_CONTEXT('NONE','WORKSPACE'));
#10=STYLED_ITEM('',(#42),#43);
#11=STYLED_ITEM('',(#44),#45);
#12=STYLED_ITEM('',(#46),#47);
#13=STYLED_ITEM('',(#48),#49);
#14=STYLED_ITEM('',(#50),#51);
#15=STYLED_ITEM('',(#52),#53);
#16=STYLED_ITEM('',(#54),#55);
#17=STYLED_ITEM('',(#56),#57);
#18=STYLED_ITEM('',(#58),#59);
#19=STYLED_ITEM('',(#60),#61);
#20=STYLED_ITEM('',(#62),#63);
#21=STYLED_ITEM('',(#64),#65);
#22=STYLED_ITEM('',(#66),#67);
#23=STYLED_ITEM('',(#68),#69);
#24=STYLED_ITEM('',(#70),#71);
#25=STYLED_ITEM('',(#72),#73);
#26=STYLED_ITEM('',(#74),#75);
#27=STYLED_ITEM('',(#76),#77);
#28=STYLED_ITEM('',(#78),#79);
#29=APPLICATION_CONTEXT('managed model based 3d engineering');
#30=PRODUCT_CATEGORY('part','NONE');
#31=PRODUCT_RELATED_PRODUCT_CATEGORY('detail',' ',(#80));
#32=PRODUCT_DEFINITION_SHAPE('NONE','NONE',#81);
#33=ADVANCED_BREP_SHAPE_REPRESENTATION('tsr_0_5-2415',(#79,#82),#6);
#36=UNCERTAINTY_MEASURE_WITH_UNIT(LENGTH_MEASURE(1.0E-06),#38,'','');
#38= (CONVERSION_BASED_UNIT('MILLIMETRE',#85)LENGTH_UNIT()NAMED_UNIT(#88));
#39= (NAMED_UNIT(#90)PLANE_ANGLE_UNIT()SI_UNIT($,.RADIAN.));
#40= (NAMED_UNIT(#90)SOLID_ANGLE_UNIT()SI_UNIT($,.STERADIAN.));
#42=PRESENTATION_STYLE_ASSIGNMENT((#96));
#43=ADVANCED_FACE('NONE',(#97),#98,.F.);
#44=PRESENTATION_STYLE_ASSIGNMENT((#99));
#45=ADVANCED_FACE('NONE',(#100),#101,.F.);
#46=PRESENTATION_STYLE_ASSIGNMENT((#102));
#47=ADVANCED_FACE('NONE',(#103),#104,.T.);
#48=PRESENTATION_STYLE_ASSIGNMENT((#105));
#49=ADVANCED_FACE('NONE',(#106),#107,.F.);
#50=PRESENTATION_STYLE_ASSIGNMENT((#108));
#51=ADVANCED_FACE('NONE',(#109),#110,.F.);
#52=PRESENTATION_STYLE_ASSIGNMENT((#111));
#53=ADVANCED_FACE('NONE',(#112),#113,.F.);
#54=PRESENTATION_STYLE_ASSIGNMENT((#114));
#55=ADVANCED_FACE('NONE',(#115),#116,.F.);
#56=PRESENTATION_STYLE_ASSIGNMENT((#117));
#57=ADVANCED_FACE('NONE',(#118),#119,.T.);
#58=PRESENTATION_STYLE_ASSIGNMENT((#120));
#59=ADVANCED_FACE('NONE',(#121),#122,.F.);
#60=PRESENTATION_STYLE_ASSIGNMENT((#123));
#61=ADVANCED_FACE('NONE',(#124),#125,.F.);
#62=PRESENTATION_STYLE_ASSIGNMENT((#126));
#63=ADVANCED_FACE('NONE',(#127),#128,.F.);
#64=PRESENTATION_STYLE_ASSIGNMENT((#129));
#65=ADVANCED_FACE('NONE',(#130),#131,.F.);
#66=PRESENTATION_STYLE_ASSIGNMENT((#132));
#67=ADVANCED_FACE('NONE',(#133),#134,.T.);
#68=PRESENTATION_STYLE_ASSIGNMENT((#135));
#69=ADVANCED_FACE('NONE',(#136),#137,.T.);
#70=PRESENTATION_STYLE_ASSIGNMENT((#138));
#71=ADVANCED_FACE('NONE',(#139),#140,.F.);
#72=PRESENTATION_STYLE_ASSIGNMENT((#141));
#73=ADVANCED_FACE('NONE',(#142),#143,.F.);
#74=PRESENTATION_STYLE_ASSIGNMENT((#144));
#75=ADVANCED_FACE('NONE',(#145),#146,.F.);
#76=PRESENTATION_STYLE_ASSIGNMENT((#147));
#77=ADVANCED_FACE('NONE',(#148),#149,.F.);
#78=PRESENTATION_STYLE_ASSIGNMENT((#150));
#79=MANIFOLD_SOLID_BREP('tsr_0_5-2415',#151);
#80=PRODUCT('tsr_0_5-2415','','PART--DESC',(#152));
#81=PRODUCT_DEFINITION('','NONE',#153,#2);
#82=AXIS2_PLACEMENT_3D('',#154,#155,#156);
#85=LENGTH_MEASURE_WITH_UNIT(LENGTH_MEASURE(1.0),#157);
#88=DIMENSIONAL_EXPONENTS(1.0,0.0,0.0,0.0,0.0,0.0,0.0);
#90=DIMENSIONAL_EXPONENTS(0.0,0.0,0.0,0.0,0.0,0.0,0.0);
#96=SURFACE_STYLE_USAGE(.BOTH.,#158);
#97=FACE_OUTER_BOUND('',#159,.T.);
#98=CYLINDRICAL_SURFACE('',#160,0.300000000000002);
#99=SURFACE_STYLE_USAGE(.BOTH.,#161);
#100=FACE_OUTER_BOUND('',#162,.T.);
#101=CYLINDRICAL_SURFACE('',#163,0.300000000000002);
#102=SURFACE_STYLE_USAGE(.BOTH.,#164);
#103=FACE_OUTER_BOUND('',#165,.T.);
#104=PLANE('',#166);
#105=SURFACE_STYLE_USAGE(.BOTH.,#167);
#106=FACE_OUTER_BOUND('',#168,.T.);
#107=PLANE('',#169);
#108=SURFACE_STYLE_USAGE(.BOTH.,#170);
#109=FACE_OUTER_BOUND('',#171,.T.);
#110=PLANE('',#172);
#111=SURFACE_STYLE_USAGE(.BOTH.,#173);
#112=FACE_OUTER_BOUND('',#174,.T.);
#113=PLANE('',#175);
#114=SURFACE_STYLE_USAGE(.BOTH.,#176);
#115=FACE_OUTER_BOUND('',#177,.T.);
#116=PLANE('',#178);
#117=SURFACE_STYLE_USAGE(.BOTH.,#179);
#118=FACE_OUTER_BOUND('',#180,.T.);
#119=PLANE('',#181);
#120=SURFACE_STYLE_USAGE(.BOTH.,#182);
#121=FACE_OUTER_BOUND('',#183,.T.);
#122=PLANE('',#184);
#123=SURFACE_STYLE_USAGE(.BOTH.,#185);
#124=FACE_OUTER_BOUND('',#186,.T.);
#125=PLANE('',#187);
#126=SURFACE_STYLE_USAGE(.BOTH.,#188);
#127=FACE_OUTER_BOUND('',#189,.T.);
#128=PLANE('',#190);
#129=SURFACE_STYLE_USAGE(.BOTH.,#191);
#130=FACE_OUTER_BOUND('',#192,.T.);
#131=PLANE('',#193);
#132=SURFACE_STYLE_USAGE(.BOTH.,#194);
#133=FACE_OUTER_BOUND('',#195,.T.);
#134=PLANE('',#196);
#135=SURFACE_STYLE_USAGE(.BOTH.,#197);
#136=FACE_OUTER_BOUND('',#198,.T.);
#137=PLANE('',#199);
#138=SURFACE_STYLE_USAGE(.BOTH.,#200);
#139=FACE_OUTER_BOUND('',#201,.T.);
#140=PLANE('',#202);
#141=SURFACE_STYLE_USAGE(.BOTH.,#203);
#142=FACE_OUTER_BOUND('',#204,.T.);
#143=PLANE('',#205);
#144=SURFACE_STYLE_USAGE(.BOTH.,#206);
#145=FACE_OUTER_BOUND('',#207,.T.);
#146=PLANE('',#208);
#147=SURFACE_STYLE_USAGE(.BOTH.,#209);
#148=FACE_OUTER_BOUND('',#210,.T.);
#149=PLANE('',#211);
#150=SURFACE_STYLE_USAGE(.BOTH.,#212);
#151=CLOSED_SHELL('',(#43,#213,#214,#215,#216,#217,#218,#219,#220,#221,#222,#45,#47,#49,#51,#53,#55,#57,#59,#61,#63,#65,#67,#69,#71,#73,#75,#77));
#152=PRODUCT_CONTEXT('',#29,'mechanical');
#153=PRODUCT_DEFINITION_FORMATION_WITH_SPECIFIED_SOURCE(' ','NONE',#80,.NOT_KNOWN.);
#154=CARTESIAN_POINT('',(0.0,0.0,0.0));
#155=DIRECTION('',(0.0,0.0,1.0));
#156=DIRECTION('',(1.0,0.0,0.0));
#157= (NAMED_UNIT(#88)LENGTH_UNIT()SI_UNIT(.MILLI.,.METRE.));
#158=SURFACE_SIDE_STYLE('',(#224));
#159=EDGE_LOOP('',(#225,#226,#227,#228));
#160=AXIS2_PLACEMENT_3D('',#229,#230,#231);
#161=SURFACE_SIDE_STYLE('',(#232));
#162=EDGE_LOOP('',(#233,#234,#235,#236));
#163=AXIS2_PLACEMENT_3D('',#237,#238,#239);
#164=SURFACE_SIDE_STYLE('',(#240));
#165=EDGE_LOOP('',(#241,#242));
#166=AXIS2_PLACEMENT_3D('',#243,#244,#245);
#167=SURFACE_SIDE_STYLE('',(#246));
#168=EDGE_LOOP('',(#247,#248,#249,#250));
#169=AXIS2_PLACEMENT_3D('',#251,#252,#253);
#170=SURFACE_SIDE_STYLE('',(#254));
#171=EDGE_LOOP('',(#255,#256,#257,#258));
#172=AXIS2_PLACEMENT_3D('',#259,#260,#261);
#173=SURFACE_SIDE_STYLE('',(#262));
#174=EDGE_LOOP('',(#263,#264,#265,#266));
#175=AXIS2_PLACEMENT_3D('',#267,#268,#269);
#176=SURFACE_SIDE_STYLE('',(#270));
#177=EDGE_LOOP('',(#271,#272,#273,#274));
#178=AXIS2_PLACEMENT_3D('',#275,#276,#277);
#179=SURFACE_SIDE_STYLE('',(#278));
#180=EDGE_LOOP('',(#279,#280,#281,#282));
#181=AXIS2_PLACEMENT_3D('',#283,#284,#285);
#182=SURFACE_SIDE_STYLE('',(#286));
#183=EDGE_LOOP('',(#287,#288,#289,#290));
#184=AXIS2_PLACEMENT_3D('',#291,#292,#293);
#185=SURFACE_SIDE_STYLE('',(#294));
#186=EDGE_LOOP('',(#295,#296,#297,#298));
#187=AXIS2_PLACEMENT_3D('',#299,#300,#301);
#188=SURFACE_SIDE_STYLE('',(#302));
#189=EDGE_LOOP('',(#303,#304,#305,#306));
#190=AXIS2_PLACEMENT_3D('',#307,#308,#309);
#191=SURFACE_SIDE_STYLE('',(#310));
#192=EDGE_LOOP('',(#311,#312,#313,#314));
#193=AXIS2_PLACEMENT_3D('',#315,#316,#317);
#194=SURFACE_SIDE_STYLE('',(#318));
#195=EDGE_LOOP('',(#319,#320,#321,#322));
#196=AXIS2_PLACEMENT_3D('',#323,#324,#325);
#197=SURFACE_SIDE_STYLE('',(#326));
#198=EDGE_LOOP('',(#327,#328,#329,#330));
#199=AXIS2_PLACEMENT_3D('',#331,#332,#333);
#200=SURFACE_SIDE_STYLE('',(#334));
#201=EDGE_LOOP('',(#335,#336,#337,#338));
#202=AXIS2_PLACEMENT_3D('',#339,#340,#341);
#203=SURFACE_SIDE_STYLE('',(#342));
#204=EDGE_LOOP('',(#343,#344,#345,#346));
#205=AXIS2_PLACEMENT_3D('',#347,#348,#349);
#206=SURFACE_SIDE_STYLE('',(#350));
#207=EDGE_LOOP('',(#351,#352,#353,#354));
#208=AXIS2_PLACEMENT_3D('',#355,#356,#357);
#209=SURFACE_SIDE_STYLE('',(#358));
#210=EDGE_LOOP('',(#359,#360,#361,#362));
#211=AXIS2_PLACEMENT_3D('',#363,#364,#365);
#212=SURFACE_SIDE_STYLE('',(#366));
#213=ADVANCED_FACE('NONE',(#367,#368,#369,#370),#371,.T.);
#214=ADVANCED_FACE('NONE',(#372),#373,.F.);
#215=ADVANCED_FACE('NONE',(#374),#375,.F.);
#216=ADVANCED_FACE('NONE',(#376,#377),#378,.F.);
#217=ADVANCED_FACE('NONE',(#379),#380,.F.);
#218=ADVANCED_FACE('NONE',(#381),#382,.F.);
#219=ADVANCED_FACE('NONE',(#383),#384,.F.);
#220=ADVANCED_FACE('NONE',(#385),#386,.T.);
#221=ADVANCED_FACE('NONE',(#387),#388,.F.);
#222=ADVANCED_FACE('NONE',(#389),#390,.F.);
#224=SURFACE_STYLE_FILL_AREA(#391);
#225=ORIENTED_EDGE('',*,*,#392,.F.);
#226=ORIENTED_EDGE('',*,*,#393,.T.);
#227=ORIENTED_EDGE('',*,*,#394,.T.);
#228=ORIENTED_EDGE('',*,*,#395,.F.);
#229=CARTESIAN_POINT('',(-23.9892656243299,8.56793181388137,18.1200116694784));
#230=DIRECTION('',(0.0,0.0,-1.0));
#231=DIRECTION('',(1.0,0.0,0.0));
#232=SURFACE_STYLE_FILL_AREA(#396);
#233=ORIENTED_EDGE('',*,*,#393,.F.);
#234=ORIENTED_EDGE('',*,*,#397,.F.);
#235=ORIENTED_EDGE('',*,*,#395,.T.);
#236=ORIENTED_EDGE('',*,*,#398,.T.);
#237=CARTESIAN_POINT('',(-23.9892656243299,8.56793181388137,18.1200116694784));
#238=DIRECTION('',(0.0,0.0,-1.0));
#239=DIRECTION('',(1.0,0.0,0.0));
#240=SURFACE_STYLE_FILL_AREA(#399);
#241=ORIENTED_EDGE('',*,*,#397,.T.);
#242=ORIENTED_EDGE('',*,*,#392,.T.);
#243=CARTESIAN_POINT('',(-23.9892656243299,8.56793181388137,18.1200116694784));
#244=DIRECTION('',(0.0,0.0,1.0));
#245=DIRECTION('',(1.0,0.0,0.0));
#246=SURFACE_STYLE_FILL_AREA(#400);
#247=ORIENTED_EDGE('',*,*,#401,.T.);
#248=ORIENTED_EDGE('',*,*,#402,.F.);
#249=ORIENTED_EDGE('',*,*,#403,.F.);
#250=ORIENTED_EDGE('',*,*,#404,.T.);
#251=CARTESIAN_POINT('',(-25.1684638714808,14.3,15.8800116694784));
#252=DIRECTION('',(1.0,0.0,0.0));
#253=DIRECTION('',(0.0,1.0,0.0));
#254=SURFACE_STYLE_FILL_AREA(#405);
#255=ORIENTED_EDGE('',*,*,#406,.T.);
#256=ORIENTED_EDGE('',*,*,#407,.F.);
#257=ORIENTED_EDGE('',*,*,#408,.F.);
#258=ORIENTED_EDGE('',*,*,#402,.T.);
#259=CARTESIAN_POINT('',(-25.1684638714808,14.3,16.1300116694784));
#260=DIRECTION('',(0.0,0.0,-1.0));
#261=DIRECTION('',(0.0,-1.0,0.0));
#262=SURFACE_STYLE_FILL_AREA(#409);
#263=ORIENTED_EDGE('',*,*,#410,.T.);
#264=ORIENTED_EDGE('',*,*,#411,.F.);
#265=ORIENTED_EDGE('',*,*,#412,.F.);
#266=ORIENTED_EDGE('',*,*,#407,.T.);
#267=CARTESIAN_POINT('',(-24.4684638714808,14.3,15.8800116694784));
#268=DIRECTION('',(-1.0,0.0,0.0));
#269=DIRECTION('',(0.0,0.0,1.0));
#270=SURFACE_STYLE_FILL_AREA(#413);
#271=ORIENTED_EDGE('',*,*,#414,.T.);
#272=ORIENTED_EDGE('',*,*,#404,.F.);
#273=ORIENTED_EDGE('',*,*,#415,.F.);
#274=ORIENTED_EDGE('',*,*,#411,.T.);
#275=CARTESIAN_POINT('',(-25.1684638714808,14.3,15.8800116694784));
#276=DIRECTION('',(0.0,0.0,1.0));
#277=DIRECTION('',(1.0,0.0,0.0));
#278=SURFACE_STYLE_FILL_AREA(#416);
#279=ORIENTED_EDGE('',*,*,#403,.T.);
#280=ORIENTED_EDGE('',*,*,#408,.T.);
#281=ORIENTED_EDGE('',*,*,#412,.T.);
#282=ORIENTED_EDGE('',*,*,#415,.T.);
#283=CARTESIAN_POINT('',(0.0,14.3,0.0));
#284=DIRECTION('',(-0.0,1.0,0.0));
#285=DIRECTION('',(1.0,0.0,0.0));
#286=SURFACE_STYLE_FILL_AREA(#417);
#287=ORIENTED_EDGE('',*,*,#418,.T.);
#288=ORIENTED_EDGE('',*,*,#419,.F.);
#289=ORIENTED_EDGE('',*,*,#420,.F.);
#290=ORIENTED_EDGE('',*,*,#421,.T.);
#291=CARTESIAN_POINT('',(-27.7084638714808,14.3,15.8800116694784));
#292=DIRECTION('',(1.0,0.0,0.0));
#293=DIRECTION('',(0.0,1.0,0.0));
#294=SURFACE_STYLE_FILL_AREA(#422);
#295=ORIENTED_EDGE('',*,*,#423,.T.);
#296=ORIENTED_EDGE('',*,*,#424,.F.);
#297=ORIENTED_EDGE('',*,*,#425,.F.);
#298=ORIENTED_EDGE('',*,*,#419,.T.);
#299=CARTESIAN_POINT('',(-27.7084638714808,14.3,16.1300116694784));
#300=DIRECTION('',(0.0,0.0,-1.0));
#301=DIRECTION('',(0.0,-1.0,0.0));
#302=SURFACE_STYLE_FILL_AREA(#426);
#303=ORIENTED_EDGE('',*,*,#427,.T.);
#304=ORIENTED_EDGE('',*,*,#428,.F.);
#305=ORIENTED_EDGE('',*,*,#429,.F.);
#306=ORIENTED_EDGE('',*,*,#424,.T.);
#307=CARTESIAN_POINT('',(-27.0084638714808,14.3,15.8800116694784));
#308=DIRECTION('',(-1.0,0.0,0.0));
#309=DIRECTION('',(0.0,0.0,1.0));
#310=SURFACE_STYLE_FILL_AREA(#430);
#311=ORIENTED_EDGE('',*,*,#431,.T.);
#312=ORIENTED_EDGE('',*,*,#421,.F.);
#313=ORIENTED_EDGE('',*,*,#432,.F.);
#314=ORIENTED_EDGE('',*,*,#428,.T.);
#315=CARTESIAN_POINT('',(-27.7084638714808,14.3,15.8800116694784));
#316=DIRECTION('',(0.0,0.0,1.0));
#317=DIRECTION('',(1.0,0.0,0.0));
#318=SURFACE_STYLE_FILL_AREA(#433);
#319=ORIENTED_EDGE('',*,*,#420,.T.);
#320=ORIENTED_EDGE('',*,*,#425,.T.);
#321=ORIENTED_EDGE('',*,*,#429,.T.);
#322=ORIENTED_EDGE('',*,*,#432,.T.);
#323=CARTESIAN_POINT('',(-2.54,14.3,0.0));
#324=DIRECTION('',(-0.0,1.0,0.0));
#325=DIRECTION('',(1.0,0.0,0.0));
#326=SURFACE_STYLE_FILL_AREA(#434);
#327=ORIENTED_EDGE('',*,*,#435,.T.);
#328=ORIENTED_EDGE('',*,*,#436,.T.);
#329=ORIENTED_EDGE('',*,*,#437,.T.);
#330=ORIENTED_EDGE('',*,*,#438,.T.);
#331=CARTESIAN_POINT('',(-5.08,14.3,0.0));
#332=DIRECTION('',(-0.0,1.0,0.0));
#333=DIRECTION('',(1.0,0.0,0.0));
#334=SURFACE_STYLE_FILL_AREA(#439);
#335=ORIENTED_EDGE('',*,*,#440,.T.);
#336=ORIENTED_EDGE('',*,*,#441,.F.);
#337=ORIENTED_EDGE('',*,*,#438,.F.);
#338=ORIENTED_EDGE('',*,*,#442,.T.);
#339=CARTESIAN_POINT('',(-30.2484638714808,14.3,15.8800116694784));
#340=DIRECTION('',(0.0,0.0,1.0));
#341=DIRECTION('',(1.0,0.0,0.0));
#342=SURFACE_STYLE_FILL_AREA(#443);
#343=ORIENTED_EDGE('',*,*,#444,.T.);
#344=ORIENTED_EDGE('',*,*,#442,.F.);
#345=ORIENTED_EDGE('',*,*,#437,.F.);
#346=ORIENTED_EDGE('',*,*,#445,.T.);
#347=CARTESIAN_POINT('',(-29.5484638714808,14.3,15.8800116694784));
#348=DIRECTION('',(-1.0,0.0,0.0));
#349=DIRECTION('',(0.0,0.0,1.0));
#350=SURFACE_STYLE_FILL_AREA(#446);
#351=ORIENTED_EDGE('',*,*,#447,.T.);
#352=ORIENTED_EDGE('',*,*,#445,.F.);
#353=ORIENTED_EDGE('',*,*,#436,.F.);
#354=ORIENTED_EDGE('',*,*,#448,.T.);
#355=CARTESIAN_POINT('',(-30.2484638714808,14.3,16.1300116694784));
#356=DIRECTION('',(0.0,0.0,-1.0));
#357=DIRECTION('',(0.0,-1.0,0.0));
#358=SURFACE_STYLE_FILL_AREA(#449);
#359=ORIENTED_EDGE('',*,*,#450,.T.);
#360=ORIENTED_EDGE('',*,*,#448,.F.);
#361=ORIENTED_EDGE('',*,*,#435,.F.);
#362=ORIENTED_EDGE('',*,*,#441,.T.);
#363=CARTESIAN_POINT('',(-30.2484638714808,14.3,15.8800116694784));
#364=DIRECTION('',(1.0,0.0,0.0));
#365=DIRECTION('',(0.0,1.0,0.0));
#366=SURFACE_STYLE_FILL_AREA(#451);
#367=FACE_OUTER_BOUND('',#452,.T.);
#368=FACE_BOUND('',#453,.T.);
#369=FACE_BOUND('',#454,.T.);
#370=FACE_BOUND('',#455,.T.);
#371=PLANE('',#456);
#372=FACE_OUTER_BOUND('',#457,.T.);
#373=PLANE('',#458);
#374=FACE_OUTER_BOUND('',#459,.T.);
#375=PLANE('',#460);
#376=FACE_OUTER_BOUND('',#461,.T.);
#377=FACE_BOUND('',#462,.T.);
#378=PLANE('',#463);
#379=FACE_OUTER_BOUND('',#464,.T.);
#380=PLANE('',#465);
#381=FACE_OUTER_BOUND('',#466,.T.);
#382=PLANE('',#467);
#383=FACE_OUTER_BOUND('',#468,.T.);
#384=PLANE('',#469);
#385=FACE_OUTER_BOUND('',#470,.T.);
#386=PLANE('',#471);
#387=FACE_OUTER_BOUND('',#472,.T.);
#388=PLANE('',#473);
#389=FACE_OUTER_BOUND('',#474,.T.);
#390=PLANE('',#475);
#391=FILL_AREA_STYLE('',(#476));
#392=EDGE_CURVE('NONE',#477,#478,#479,.T.);
#393=EDGE_CURVE('NONE',#477,#480,#481,.T.);
#394=EDGE_CURVE('NONE',#480,#482,#483,.T.);
#395=EDGE_CURVE('NONE',#478,#482,#484,.T.);
#396=FILL_AREA_STYLE('',(#485));
#397=EDGE_CURVE('NONE',#478,#477,#486,.T.);
#398=EDGE_CURVE('NONE',#482,#480,#487,.T.);
#399=FILL_AREA_STYLE('',(#488));
#400=FILL_AREA_STYLE('',(#489));
#401=EDGE_CURVE('NONE',#490,#491,#492,.T.);
#402=EDGE_CURVE('NONE',#493,#491,#494,.T.);
#403=EDGE_CURVE('NONE',#495,#493,#496,.T.);
#404=EDGE_CURVE('NONE',#495,#490,#497,.T.);
#405=FILL_AREA_STYLE('',(#498));
#406=EDGE_CURVE('NONE',#491,#499,#500,.T.);
#407=EDGE_CURVE('NONE',#501,#499,#502,.T.);
#408=EDGE_CURVE('NONE',#493,#501,#503,.T.);
#409=FILL_AREA_STYLE('',(#504));
#410=EDGE_CURVE('NONE',#499,#505,#506,.T.);
#411=EDGE_CURVE('NONE',#507,#505,#508,.T.);
#412=EDGE_CURVE('NONE',#501,#507,#509,.T.);
#413=FILL_AREA_STYLE('',(#510));
#414=EDGE_CURVE('NONE',#505,#490,#511,.T.);
#415=EDGE_CURVE('NONE',#507,#495,#512,.T.);
#416=FILL_AREA_STYLE('',(#513));
#417=FILL_AREA_STYLE('',(#514));
#418=EDGE_CURVE('NONE',#515,#516,#517,.T.);
#419=EDGE_CURVE('NONE',#518,#516,#519,.T.);
#420=EDGE_CURVE('NONE',#520,#518,#521,.T.);
#421=EDGE_CURVE('NONE',#520,#515,#522,.T.);
#422=FILL_AREA_STYLE('',(#523));
#423=EDGE_CURVE('NONE',#516,#524,#525,.T.);
#424=EDGE_CURVE('NONE',#526,#524,#527,.T.);
#425=EDGE_CURVE('NONE',#518,#526,#528,.T.);
#426=FILL_AREA_STYLE('',(#529));
#427=EDGE_CURVE('NONE',#524,#530,#531,.T.);
#428=EDGE_CURVE('NONE',#532,#530,#533,.T.);
#429=EDGE_CURVE('NONE',#526,#532,#534,.T.);
#430=FILL_AREA_STYLE('',(#535));
#431=EDGE_CURVE('NONE',#530,#515,#536,.T.);
#432=EDGE_CURVE('NONE',#532,#520,#537,.T.);
#433=FILL_AREA_STYLE('',(#538));
#434=FILL_AREA_STYLE('',(#539));
#435=EDGE_CURVE('NONE',#540,#541,#542,.T.);
#436=EDGE_CURVE('NONE',#541,#543,#544,.T.);
#437=EDGE_CURVE('NONE',#543,#545,#546,.T.);
#438=EDGE_CURVE('NONE',#545,#540,#547,.T.);
#439=FILL_AREA_STYLE('',(#548));
#440=EDGE_CURVE('NONE',#549,#550,#551,.T.);
#441=EDGE_CURVE('NONE',#540,#550,#552,.T.);
#442=EDGE_CURVE('NONE',#545,#549,#553,.T.);
#443=FILL_AREA_STYLE('',(#554));
#444=EDGE_CURVE('NONE',#555,#549,#556,.T.);
#445=EDGE_CURVE('NONE',#543,#555,#557,.T.);
#446=FILL_AREA_STYLE('',(#558));
#447=EDGE_CURVE('NONE',#559,#555,#560,.T.);
#448=EDGE_CURVE('NONE',#541,#559,#561,.T.);
#449=FILL_AREA_STYLE('',(#562));
#450=EDGE_CURVE('NONE',#550,#559,#563,.T.);
#451=FILL_AREA_STYLE('',(#564));
#452=EDGE_LOOP('',(#565,#566,#567,#568));
#453=EDGE_LOOP('',(#569,#570,#571,#572));
#454=EDGE_LOOP('',(#573,#574,#575,#576));
#455=EDGE_LOOP('',(#577,#578,#579,#580));
#456=AXIS2_PLACEMENT_3D('',#581,#582,#583);
#457=EDGE_LOOP('',(#584,#585,#586,#587));
#458=AXIS2_PLACEMENT_3D('',#588,#589,#590);
#459=EDGE_LOOP('',(#591,#592,#593,#594));
#460=AXIS2_PLACEMENT_3D('',#595,#596,#597);
#461=EDGE_LOOP('',(#598,#599,#600,#601,#602,#603,#604,#605));
#462=EDGE_LOOP('',(#606,#607));
#463=AXIS2_PLACEMENT_3D('',#608,#609,#610);
#464=EDGE_LOOP('',(#611,#612,#613,#614));
#465=AXIS2_PLACEMENT_3D('',#615,#616,#617);
#466=EDGE_LOOP('',(#618,#619,#620,#621,#622,#623,#624,#625));
#467=AXIS2_PLACEMENT_3D('',#626,#627,#628);
#468=EDGE_LOOP('',(#629,#630,#631,#632));
#469=AXIS2_PLACEMENT_3D('',#633,#634,#635);
#470=EDGE_LOOP('',(#636,#637,#638,#639));
#471=AXIS2_PLACEMENT_3D('',#640,#641,#642);
#472=EDGE_LOOP('',(#643,#644,#645,#646));
#473=AXIS2_PLACEMENT_3D('',#647,#648,#649);
#474=EDGE_LOOP('',(#650,#651,#652,#653));
#475=AXIS2_PLACEMENT_3D('',#654,#655,#656);
#476=FILL_AREA_STYLE_COLOUR('',#657);
#477=VERTEX_POINT('NONE',#658);
#478=VERTEX_POINT('NONE',#659);
#479=CIRCLE('',#660,0.300000000000002);
#480=VERTEX_POINT('NONE',#661);
#481=LINE('',#662,#663);
#482=VERTEX_POINT('NONE',#664);
#483=CIRCLE('',#665,0.300000000000002);
#484=LINE('',#666,#667);
#485=FILL_AREA_STYLE_COLOUR('',#668);
#486=CIRCLE('',#669,0.300000000000002);
#487=CIRCLE('',#670,0.300000000000002);
#488=FILL_AREA_STYLE_COLOUR('',#671);
#489=FILL_AREA_STYLE_COLOUR('',#672);
#490=VERTEX_POINT('NONE',#673);
#491=VERTEX_POINT('NONE',#674);
#492=LINE('',#675,#676);
#493=VERTEX_POINT('NONE',#677);
#494=LINE('',#678,#679);
#495=VERTEX_POINT('NONE',#680);
#496=LINE('',#681,#682);
#497=LINE('',#683,#684);
#498=FILL_AREA_STYLE_COLOUR('',#685);
#499=VERTEX_POINT('NONE',#686);
#500=LINE('',#687,#688);
#501=VERTEX_POINT('NONE',#689);
#502=LINE('',#690,#691);
#503=LINE('',#692,#693);
#504=FILL_AREA_STYLE_COLOUR('',#694);
#505=VERTEX_POINT('NONE',#695);
#506=LINE('',#696,#697);
#507=VERTEX_POINT('NONE',#698);
#508=LINE('',#699,#700);
#509=LINE('',#701,#702);
#510=FILL_AREA_STYLE_COLOUR('',#703);
#511=LINE('',#704,#705);
#512=LINE('',#706,#707);
#513=FILL_AREA_STYLE_COLOUR('',#708);
#514=FILL_AREA_STYLE_COLOUR('',#709);
#515=VERTEX_POINT('NONE',#710);
#516=VERTEX_POINT('NONE',#711);
#517=LINE('',#712,#713);
#518=VERTEX_POINT('NONE',#714);
#519=LINE('',#715,#716);
#520=VERTEX_POINT('NONE',#717);
#521=LINE('',#718,#719);
#522=LINE('',#720,#721);
#523=FILL_AREA_STYLE_COLOUR('',#722);
#524=VERTEX_POINT('NONE',#723);
#525=LINE('',#724,#725);
#526=VERTEX_POINT('NONE',#726);
#527=LINE('',#727,#728);
#528=LINE('',#729,#730);
#529=FILL_AREA_STYLE_COLOUR('',#731);
#530=VERTEX_POINT('NONE',#732);
#531=LINE('',#733,#734);
#532=VERTEX_POINT('NONE',#735);
#533=LINE('',#736,#737);
#534=LINE('',#738,#739);
#535=FILL_AREA_STYLE_COLOUR('',#740);
#536=LINE('',#741,#742);
#537=LINE('',#743,#744);
#538=FILL_AREA_STYLE_COLOUR('',#745);
#539=FILL_AREA_STYLE_COLOUR('',#746);
#540=VERTEX_POINT('NONE',#747);
#541=VERTEX_POINT('NONE',#748);
#542=LINE('',#749,#750);
#543=VERTEX_POINT('NONE',#751);
#544=LINE('',#752,#753);
#545=VERTEX_POINT('NONE',#754);
#546=LINE('',#755,#756);
#547=LINE('',#757,#758);
#548=FILL_AREA_STYLE_COLOUR('',#759);
#549=VERTEX_POINT('NONE',#760);
#550=VERTEX_POINT('NONE',#761);
#551=LINE('',#762,#763);
#552=LINE('',#764,#765);
#553=LINE('',#766,#767);
#554=FILL_AREA_STYLE_COLOUR('',#768);
#555=VERTEX_POINT('NONE',#769);
#556=LINE('',#770,#771);
#557=LINE('',#772,#773);
#558=FILL_AREA_STYLE_COLOUR('',#774);
#559=VERTEX_POINT('NONE',#775);
#560=LINE('',#776,#777);
#561=LINE('',#778,#779);
#562=FILL_AREA_STYLE_COLOUR('',#780);
#563=LINE('',#781,#782);
#564=FILL_AREA_STYLE_COLOUR('',#783);
#565=ORIENTED_EDGE('',*,*,#784,.T.);
#566=ORIENTED_EDGE('',*,*,#785,.T.);
#567=ORIENTED_EDGE('',*,*,#786,.T.);
#568=ORIENTED_EDGE('',*,*,#787,.T.);
#569=ORIENTED_EDGE('',*,*,#406,.F.);
#570=ORIENTED_EDGE('',*,*,#401,.F.);
#571=ORIENTED_EDGE('',*,*,#414,.F.);
#572=ORIENTED_EDGE('',*,*,#410,.F.);
#573=ORIENTED_EDGE('',*,*,#423,.F.);
#574=ORIENTED_EDGE('',*,*,#418,.F.);
#575=ORIENTED_EDGE('',*,*,#431,.F.);
#576=ORIENTED_EDGE('',*,*,#427,.F.);
#577=ORIENTED_EDGE('',*,*,#450,.F.);
#578=ORIENTED_EDGE('',*,*,#440,.F.);
#579=ORIENTED_EDGE('',*,*,#444,.F.);
#580=ORIENTED_EDGE('',*,*,#447,.F.);
#581=CARTESIAN_POINT('',(0.0,9.7,0.0));
#582=DIRECTION('',(-0.0,1.0,0.0));
#583=DIRECTION('',(1.0,0.0,0.0));
#584=ORIENTED_EDGE('',*,*,#788,.T.);
#585=ORIENTED_EDGE('',*,*,#789,.F.);
#586=ORIENTED_EDGE('',*,*,#790,.T.);
#587=ORIENTED_EDGE('',*,*,#791,.T.);
#588=CARTESIAN_POINT('',(0.0,10.2,0.0));
#589=DIRECTION('',(0.0,-1.0,0.0));
#590=DIRECTION('',(0.0,0.0,-1.0));
#591=ORIENTED_EDGE('',*,*,#792,.T.);
#592=ORIENTED_EDGE('',*,*,#793,.F.);
#593=ORIENTED_EDGE('',*,*,#791,.F.);
#594=ORIENTED_EDGE('',*,*,#794,.T.);
#595=CARTESIAN_POINT('',(-33.1084638714808,10.2,18.1300116694784));
#596=DIRECTION('',(1.0,-0.0,0.0));
#597=DIRECTION('',(0.0,1.0,-0.0));
#598=ORIENTED_EDGE('',*,*,#785,.F.);
#599=ORIENTED_EDGE('',*,*,#795,.T.);
#600=ORIENTED_EDGE('',*,*,#788,.F.);
#601=ORIENTED_EDGE('',*,*,#793,.T.);
#602=ORIENTED_EDGE('',*,*,#796,.T.);
#603=ORIENTED_EDGE('',*,*,#797,.F.);
#604=ORIENTED_EDGE('',*,*,#798,.F.);
#605=ORIENTED_EDGE('',*,*,#799,.F.);
#606=ORIENTED_EDGE('',*,*,#398,.F.);
#607=ORIENTED_EDGE('',*,*,#394,.F.);
#608=CARTESIAN_POINT('',(-33.1084638714808,10.2,18.1300116694784));
#609=DIRECTION('',(0.0,0.0,-1.0));
#610=DIRECTION('',(0.0,-1.0,0.0));
#611=ORIENTED_EDGE('',*,*,#800,.T.);
#612=ORIENTED_EDGE('',*,*,#801,.F.);
#613=ORIENTED_EDGE('',*,*,#802,.F.);
#614=ORIENTED_EDGE('',*,*,#797,.T.);
#615=CARTESIAN_POINT('',(-21.6084638714808,10.2,18.1300116694784));
#616=DIRECTION('',(-1.0,0.0,0.0));
#617=DIRECTION('',(0.0,0.0,1.0));
#618=ORIENTED_EDGE('',*,*,#790,.F.);
#619=ORIENTED_EDGE('',*,*,#803,.F.);
#620=ORIENTED_EDGE('',*,*,#787,.F.);
#621=ORIENTED_EDGE('',*,*,#804,.T.);
#622=ORIENTED_EDGE('',*,*,#805,.F.);
#623=ORIENTED_EDGE('',*,*,#801,.T.);
#624=ORIENTED_EDGE('',*,*,#806,.T.);
#625=ORIENTED_EDGE('',*,*,#794,.F.);
#626=CARTESIAN_POINT('',(-33.1084638714808,10.2,10.5800116694784));
#627=DIRECTION('',(0.0,0.0,1.0));
#628=DIRECTION('',(1.0,0.0,0.0));
#629=ORIENTED_EDGE('',*,*,#805,.T.);
#630=ORIENTED_EDGE('',*,*,#807,.F.);
#631=ORIENTED_EDGE('',*,*,#798,.T.);
#632=ORIENTED_EDGE('',*,*,#802,.T.);
#633=CARTESIAN_POINT('',(0.0,10.2,0.0));
#634=DIRECTION('',(0.0,-1.0,0.0));
#635=DIRECTION('',(0.0,0.0,-1.0));
#636=ORIENTED_EDGE('',*,*,#792,.F.);
#637=ORIENTED_EDGE('',*,*,#806,.F.);
#638=ORIENTED_EDGE('',*,*,#800,.F.);
#639=ORIENTED_EDGE('',*,*,#796,.F.);
#640=CARTESIAN_POINT('',(0.0,0.0,0.0));
#641=DIRECTION('',(0.0,-1.0,0.0));
#642=DIRECTION('',(0.0,0.0,-1.0));
#643=ORIENTED_EDGE('',*,*,#789,.T.);
#644=ORIENTED_EDGE('',*,*,#795,.F.);
#645=ORIENTED_EDGE('',*,*,#784,.F.);
#646=ORIENTED_EDGE('',*,*,#803,.T.);
#647=CARTESIAN_POINT('',(-32.6084638714808,9.7,10.5800116694784));
#648=DIRECTION('',(-1.0,0.0,0.0));
#649=DIRECTION('',(0.0,0.0,1.0));
#650=ORIENTED_EDGE('',*,*,#807,.T.);
#651=ORIENTED_EDGE('',*,*,#804,.F.);
#652=ORIENTED_EDGE('',*,*,#786,.F.);
#653=ORIENTED_EDGE('',*,*,#799,.T.);
#654=CARTESIAN_POINT('',(-22.1084638714808,9.7,10.5800116694784));
#655=DIRECTION('',(1.0,0.0,-0.0));
#656=DIRECTION('',(-0.0,1.0,0.0));
#657=COLOUR_RGB('',0.501960813999176,0.501960813999176,0.501960813999176);
#658=CARTESIAN_POINT('',(-24.2892656243299,8.56793181388137,18.1200116694784));
#659=CARTESIAN_POINT('',(-23.6892656243299,8.56793181388137,18.1200116694784));
#660=AXIS2_PLACEMENT_3D('',#808,#809,#810);
#661=CARTESIAN_POINT('',(-24.2892656243299,8.56793181388137,18.1300116694784));
#662=CARTESIAN_POINT('',(-24.2892656243299,8.56793181388137,18.1200116694784));
#663=VECTOR('',#811,1000.0);
#664=CARTESIAN_POINT('',(-23.6892656243299,8.56793181388137,18.1300116694784));
#665=AXIS2_PLACEMENT_3D('',#812,#813,#814);
#666=CARTESIAN_POINT('',(-23.6892656243299,8.56793181388137,18.1200116694784));
#667=VECTOR('',#815,1000.0);
#668=COLOUR_RGB('',0.501960813999176,0.501960813999176,0.501960813999176);
#669=AXIS2_PLACEMENT_3D('',#816,#817,#818);
#670=AXIS2_PLACEMENT_3D('',#819,#820,#821);
#671=COLOUR_RGB('',0.501960813999176,0.501960813999176,0.501960813999176);
#672=COLOUR_RGB('',1.0,1.0,1.0);
#673=CARTESIAN_POINT('',(-25.1684638714808,9.7,15.8800116694784));
#674=CARTESIAN_POINT('',(-25.1684638714808,9.7,16.1300116694784));
#675=CARTESIAN_POINT('',(-25.1684638714808,9.7,15.8800116694784));
#676=VECTOR('',#822,1000.0);
#677=CARTESIAN_POINT('',(-25.1684638714808,14.3,16.1300116694784));
#678=CARTESIAN_POINT('',(-25.1684638714808,14.3,16.1300116694784));
#679=VECTOR('',#823,1000.0);
#680=CARTESIAN_POINT('',(-25.1684638714808,14.3,15.8800116694784));
#681=CARTESIAN_POINT('',(-25.1684638714808,14.3,15.8800116694784));
#682=VECTOR('',#824,1000.0);
#683=CARTESIAN_POINT('',(-25.1684638714808,14.3,15.8800116694784));
#684=VECTOR('',#825,1000.0);
#685=COLOUR_RGB('',1.0,1.0,1.0);
#686=CARTESIAN_POINT('',(-24.4684638714808,9.7,16.1300116694784));
#687=CARTESIAN_POINT('',(-25.1684638714808,9.7,16.1300116694784));
#688=VECTOR('',#826,1000.0);
#689=CARTESIAN_POINT('',(-24.4684638714808,14.3,16.1300116694784));
#690=CARTESIAN_POINT('',(-24.4684638714808,14.3,16.1300116694784));
#691=VECTOR('',#827,1000.0);
#692=CARTESIAN_POINT('',(-25.1684638714808,14.3,16.1300116694784));
#693=VECTOR('',#828,1000.0);
#694=COLOUR_RGB('',1.0,1.0,1.0);
#695=CARTESIAN_POINT('',(-24.4684638714808,9.7,15.8800116694784));
#696=CARTESIAN_POINT('',(-24.4684638714808,9.7,15.8800116694784));
#697=VECTOR('',#829,1000.0);
#698=CARTESIAN_POINT('',(-24.4684638714808,14.3,15.8800116694784));
#699=CARTESIAN_POINT('',(-24.4684638714808,14.3,15.8800116694784));
#700=VECTOR('',#830,1000.0);
#701=CARTESIAN_POINT('',(-24.4684638714808,14.3,15.8800116694784));
#702=VECTOR('',#831,1000.0);
#703=COLOUR_RGB('',1.0,1.0,1.0);
#704=CARTESIAN_POINT('',(-25.1684638714808,9.7,15.8800116694784));
#705=VECTOR('',#832,1000.0);
#706=CARTESIAN_POINT('',(-25.1684638714808,14.3,15.8800116694784));
#707=VECTOR('',#833,1000.0);
#708=COLOUR_RGB('',1.0,1.0,1.0);
#709=COLOUR_RGB('',1.0,1.0,1.0);
#710=CARTESIAN_POINT('',(-27.7084638714808,9.7,15.8800116694784));
#711=CARTESIAN_POINT('',(-27.7084638714808,9.7,16.1300116694784));
#712=CARTESIAN_POINT('',(-27.7084638714808,9.7,15.8800116694784));
#713=VECTOR('',#834,1000.0);
#714=CARTESIAN_POINT('',(-27.7084638714808,14.3,16.1300116694784));
#715=CARTESIAN_POINT('',(-27.7084638714808,14.3,16.1300116694784));
#716=VECTOR('',#835,1000.0);
#717=CARTESIAN_POINT('',(-27.7084638714808,14.3,15.8800116694784));
#718=CARTESIAN_POINT('',(-27.7084638714808,14.3,15.8800116694784));
#719=VECTOR('',#836,1000.0);
#720=CARTESIAN_POINT('',(-27.7084638714808,14.3,15.8800116694784));
#721=VECTOR('',#837,1000.0);
#722=COLOUR_RGB('',1.0,1.0,1.0);
#723=CARTESIAN_POINT('',(-27.0084638714808,9.7,16.1300116694784));
#724=CARTESIAN_POINT('',(-27.7084638714808,9.7,16.1300116694784));
#725=VECTOR('',#838,1000.0);
#726=CARTESIAN_POINT('',(-27.0084638714808,14.3,16.1300116694784));
#727=CARTESIAN_POINT('',(-27.0084638714808,14.3,16.1300116694784));
#728=VECTOR('',#839,1000.0);
#729=CARTESIAN_POINT('',(-27.7084638714808,14.3,16.1300116694784));
#730=VECTOR('',#840,1000.0);
#731=COLOUR_RGB('',1.0,1.0,1.0);
#732=CARTESIAN_POINT('',(-27.0084638714808,9.7,15.8800116694784));
#733=CARTESIAN_POINT('',(-27.0084638714808,9.7,15.8800116694784));
#734=VECTOR('',#841,1000.0);
#735=CARTESIAN_POINT('',(-27.0084638714808,14.3,15.8800116694784));
#736=CARTESIAN_POINT('',(-27.0084638714808,14.3,15.8800116694784));
#737=VECTOR('',#842,1000.0);
#738=CARTESIAN_POINT('',(-27.0084638714808,14.3,15.8800116694784));
#739=VECTOR('',#843,1000.0);
#740=COLOUR_RGB('',1.0,1.0,1.0);
#741=CARTESIAN_POINT('',(-27.7084638714808,9.7,15.8800116694784));
#742=VECTOR('',#844,1000.0);
#743=CARTESIAN_POINT('',(-27.7084638714808,14.3,15.8800116694784));
#744=VECTOR('',#845,1000.0);
#745=COLOUR_RGB('',1.0,1.0,1.0);
#746=COLOUR_RGB('',1.0,1.0,1.0);
#747=CARTESIAN_POINT('',(-30.2484638714808,14.3,15.8800116694784));
#748=CARTESIAN_POINT('',(-30.2484638714808,14.3,16.1300116694784));
#749=CARTESIAN_POINT('',(-30.2484638714808,14.3,15.8800116694784));
#750=VECTOR('',#846,1000.0);
#751=CARTESIAN_POINT('',(-29.5484638714808,14.3,16.1300116694784));
#752=CARTESIAN_POINT('',(-30.2484638714808,14.3,16.1300116694784));
#753=VECTOR('',#847,1000.0);
#754=CARTESIAN_POINT('',(-29.5484638714808,14.3,15.8800116694784));
#755=CARTESIAN_POINT('',(-29.5484638714808,14.3,15.8800116694784));
#756=VECTOR('',#848,1000.0);
#757=CARTESIAN_POINT('',(-30.2484638714808,14.3,15.8800116694784));
#758=VECTOR('',#849,1000.0);
#759=COLOUR_RGB('',1.0,1.0,1.0);
#760=CARTESIAN_POINT('',(-29.5484638714808,9.7,15.8800116694784));
#761=CARTESIAN_POINT('',(-30.2484638714808,9.7,15.8800116694784));
#762=CARTESIAN_POINT('',(-30.2484638714808,9.7,15.8800116694784));
#763=VECTOR('',#850,1000.0);
#764=CARTESIAN_POINT('',(-30.2484638714808,14.3,15.8800116694784));
#765=VECTOR('',#851,1000.0);
#766=CARTESIAN_POINT('',(-29.5484638714808,14.3,15.8800116694784));
#767=VECTOR('',#852,1000.0);
#768=COLOUR_RGB('',1.0,1.0,1.0);
#769=CARTESIAN_POINT('',(-29.5484638714808,9.7,16.1300116694784));
#770=CARTESIAN_POINT('',(-29.5484638714808,9.7,15.8800116694784));
#771=VECTOR('',#853,1000.0);
#772=CARTESIAN_POINT('',(-29.5484638714808,14.3,16.1300116694784));
#773=VECTOR('',#854,1000.0);
#774=COLOUR_RGB('',1.0,1.0,1.0);
#775=CARTESIAN_POINT('',(-30.2484638714808,9.7,16.1300116694784));
#776=CARTESIAN_POINT('',(-30.2484638714808,9.7,16.1300116694784));
#777=VECTOR('',#855,1000.0);
#778=CARTESIAN_POINT('',(-30.2484638714808,14.3,16.1300116694784));
#779=VECTOR('',#856,1000.0);
#780=COLOUR_RGB('',1.0,1.0,1.0);
#781=CARTESIAN_POINT('',(-30.2484638714808,9.7,15.8800116694784));
#782=VECTOR('',#857,1000.0);
#783=COLOUR_RGB('',0.250980406999588,0.250980406999588,0.250980406999588);
#784=EDGE_CURVE('NONE',#858,#859,#860,.T.);
#785=EDGE_CURVE('NONE',#859,#861,#862,.T.);
#786=EDGE_CURVE('NONE',#861,#863,#864,.T.);
#787=EDGE_CURVE('NONE',#863,#858,#865,.T.);
#788=EDGE_CURVE('NONE',#866,#867,#868,.T.);
#789=EDGE_CURVE('NONE',#869,#867,#870,.T.);
#790=EDGE_CURVE('NONE',#869,#871,#872,.T.);
#791=EDGE_CURVE('NONE',#871,#866,#873,.T.);
#792=EDGE_CURVE('NONE',#874,#875,#876,.T.);
#793=EDGE_CURVE('NONE',#866,#875,#877,.T.);
#794=EDGE_CURVE('NONE',#871,#874,#878,.T.);
#795=EDGE_CURVE('NONE',#859,#867,#879,.T.);
#796=EDGE_CURVE('NONE',#875,#880,#881,.T.);
#797=EDGE_CURVE('NONE',#882,#880,#883,.T.);
#798=EDGE_CURVE('NONE',#884,#882,#885,.T.);
#799=EDGE_CURVE('NONE',#861,#884,#886,.T.);
#800=EDGE_CURVE('NONE',#880,#887,#888,.T.);
#801=EDGE_CURVE('NONE',#889,#887,#890,.T.);
#802=EDGE_CURVE('NONE',#882,#889,#891,.T.);
#803=EDGE_CURVE('NONE',#858,#869,#892,.T.);
#804=EDGE_CURVE('NONE',#863,#893,#894,.T.);
#805=EDGE_CURVE('NONE',#889,#893,#895,.T.);
#806=EDGE_CURVE('NONE',#887,#874,#896,.T.);
#807=EDGE_CURVE('NONE',#884,#893,#897,.T.);
#808=CARTESIAN_POINT('',(-23.9892656243299,8.56793181388137,18.1200116694784));
#809=DIRECTION('',(0.0,0.0,1.0));
#810=DIRECTION('',(1.0,0.0,0.0));
#811=DIRECTION('',(-0.0,-0.0,1.0));
#812=CARTESIAN_POINT('',(-23.9892656243299,8.56793181388137,18.1300116694784));
#813=DIRECTION('',(0.0,0.0,1.0));
#814=DIRECTION('',(1.0,0.0,0.0));
#815=DIRECTION('',(-0.0,-0.0,1.0));
#816=CARTESIAN_POINT('',(-23.9892656243299,8.56793181388137,18.1200116694784));
#817=DIRECTION('',(0.0,0.0,1.0));
#818=DIRECTION('',(1.0,0.0,0.0));
#819=CARTESIAN_POINT('',(-23.9892656243299,8.56793181388137,18.1300116694784));
#820=DIRECTION('',(0.0,0.0,1.0));
#821=DIRECTION('',(1.0,0.0,0.0));
#822=DIRECTION('',(0.0,0.0,1.0));
#823=DIRECTION('',(-0.0,-1.0,-0.0));
#824=DIRECTION('',(0.0,0.0,1.0));
#825=DIRECTION('',(-0.0,-1.0,-0.0));
#826=DIRECTION('',(1.0,0.0,0.0));
#827=DIRECTION('',(-0.0,-1.0,-0.0));
#828=DIRECTION('',(1.0,0.0,0.0));
#829=DIRECTION('',(-0.0,-0.0,-1.0));
#830=DIRECTION('',(-0.0,-1.0,-0.0));
#831=DIRECTION('',(-0.0,-0.0,-1.0));
#832=DIRECTION('',(-1.0,-0.0,-0.0));
#833=DIRECTION('',(-1.0,-0.0,-0.0));
#834=DIRECTION('',(0.0,0.0,1.0));
#835=DIRECTION('',(-0.0,-1.0,-0.0));
#836=DIRECTION('',(0.0,0.0,1.0));
#837=DIRECTION('',(-0.0,-1.0,-0.0));
#838=DIRECTION('',(1.0,0.0,0.0));
#839=DIRECTION('',(-0.0,-1.0,-0.0));
#840=DIRECTION('',(1.0,0.0,0.0));
#841=DIRECTION('',(-0.0,-0.0,-1.0));
#842=DIRECTION('',(-0.0,-1.0,-0.0));
#843=DIRECTION('',(-0.0,-0.0,-1.0));
#844=DIRECTION('',(-1.0,-0.0,-0.0));
#845=DIRECTION('',(-1.0,-0.0,-0.0));
#846=DIRECTION('',(0.0,0.0,1.0));
#847=DIRECTION('',(1.0,0.0,0.0));
#848=DIRECTION('',(-0.0,-0.0,-1.0));
#849=DIRECTION('',(-1.0,-0.0,-0.0));
#850=DIRECTION('',(-1.0,-0.0,-0.0));
#851=DIRECTION('',(-0.0,-1.0,-0.0));
#852=DIRECTION('',(-0.0,-1.0,-0.0));
#853=DIRECTION('',(-0.0,-0.0,-1.0));
#854=DIRECTION('',(-0.0,-1.0,-0.0));
#855=DIRECTION('',(1.0,0.0,0.0));
#856=DIRECTION('',(-0.0,-1.0,-0.0));
#857=DIRECTION('',(0.0,0.0,1.0));
#858=VERTEX_POINT('NONE',#898);
#859=VERTEX_POINT('NONE',#899);
#860=LINE('',#900,#901);
#861=VERTEX_POINT('NONE',#902);
#862=LINE('',#903,#904);
#863=VERTEX_POINT('NONE',#905);
#864=LINE('',#906,#907);
#865=LINE('',#908,#909);
#866=VERTEX_POINT('NONE',#910);
#867=VERTEX_POINT('NONE',#911);
#868=LINE('',#912,#913);
#869=VERTEX_POINT('NONE',#914);
#870=LINE('',#915,#916);
#871=VERTEX_POINT('NONE',#917);
#872=LINE('',#918,#919);
#873=LINE('',#920,#921);
#874=VERTEX_POINT('NONE',#922);
#875=VERTEX_POINT('NONE',#923);
#876=LINE('',#924,#925);
#877=LINE('',#926,#927);
#878=LINE('',#928,#929);
#879=LINE('',#930,#931);
#880=VERTEX_POINT('NONE',#932);
#881=LINE('',#933,#934);
#882=VERTEX_POINT('NONE',#935);
#883=LINE('',#936,#937);
#884=VERTEX_POINT('NONE',#938);
#885=LINE('',#939,#940);
#886=LINE('',#941,#942);
#887=VERTEX_POINT('NONE',#943);
#888=LINE('',#944,#945);
#889=VERTEX_POINT('NONE',#946);
#890=LINE('',#947,#948);
#891=LINE('',#949,#950);
#892=LINE('',#951,#952);
#893=VERTEX_POINT('NONE',#953);
#894=LINE('',#954,#955);
#895=LINE('',#956,#957);
#896=LINE('',#958,#959);
#897=LINE('',#960,#961);
#898=CARTESIAN_POINT('',(-32.6084638714808,9.7,10.5800116694784));
#899=CARTESIAN_POINT('',(-32.6084638714808,9.7,18.1300116694784));
#900=CARTESIAN_POINT('',(-32.6084638714808,9.7,10.5800116694784));
#901=VECTOR('',#962,1000.0);
#902=CARTESIAN_POINT('',(-22.1084638714808,9.7,18.1300116694784));
#903=CARTESIAN_POINT('',(-32.6084638714808,9.7,18.1300116694784));
#904=VECTOR('',#963,1000.0);
#905=CARTESIAN_POINT('',(-22.1084638714808,9.7,10.5800116694784));
#906=CARTESIAN_POINT('',(-22.1084638714808,9.7,10.5800116694784));
#907=VECTOR('',#964,1000.0);
#908=CARTESIAN_POINT('',(-32.6084638714808,9.7,10.5800116694784));
#909=VECTOR('',#965,1000.0);
#910=CARTESIAN_POINT('',(-33.1084638714808,10.2,18.1300116694784));
#911=CARTESIAN_POINT('',(-32.6084638714808,10.2,18.1300116694784));
#912=CARTESIAN_POINT('',(-33.1084638714808,10.2,18.1300116694784));
#913=VECTOR('',#966,1000.0);
#914=CARTESIAN_POINT('',(-32.6084638714808,10.2,10.5800116694784));
#915=CARTESIAN_POINT('',(-32.6084638714808,10.2,10.5800116694784));
#916=VECTOR('',#967,1000.0);
#917=CARTESIAN_POINT('',(-33.1084638714808,10.2,10.5800116694784));
#918=CARTESIAN_POINT('',(-33.1084638714808,10.2,10.5800116694784));
#919=VECTOR('',#968,1000.0);
#920=CARTESIAN_POINT('',(-33.1084638714808,10.2,18.1300116694784));
#921=VECTOR('',#969,1000.0);
#922=CARTESIAN_POINT('',(-33.1084638714808,0.0,10.5800116694784));
#923=CARTESIAN_POINT('',(-33.1084638714808,0.0,18.1300116694784));
#924=CARTESIAN_POINT('',(-33.1084638714808,0.0,18.1300116694784));
#925=VECTOR('',#970,1000.0);
#926=CARTESIAN_POINT('',(-33.1084638714808,10.2,18.1300116694784));
#927=VECTOR('',#971,1000.0);
#928=CARTESIAN_POINT('',(-33.1084638714808,10.2,10.5800116694784));
#929=VECTOR('',#972,1000.0);
#930=CARTESIAN_POINT('',(-32.6084638714808,9.7,18.1300116694784));
#931=VECTOR('',#973,1000.0);
#932=CARTESIAN_POINT('',(-21.6084638714808,0.0,18.1300116694784));
#933=CARTESIAN_POINT('',(-33.1084638714808,0.0,18.1300116694784));
#934=VECTOR('',#974,1000.0);
#935=CARTESIAN_POINT('',(-21.6084638714808,10.2,18.1300116694784));
#936=CARTESIAN_POINT('',(-21.6084638714808,10.2,18.1300116694784));
#937=VECTOR('',#975,1000.0);
#938=CARTESIAN_POINT('',(-22.1084638714808,10.2,18.1300116694784));
#939=CARTESIAN_POINT('',(-33.1084638714808,10.2,18.1300116694784));
#940=VECTOR('',#976,1000.0);
#941=CARTESIAN_POINT('',(-22.1084638714808,9.7,18.1300116694784));
#942=VECTOR('',#977,1000.0);
#943=CARTESIAN_POINT('',(-21.6084638714808,0.0,10.5800116694784));
#944=CARTESIAN_POINT('',(-21.6084638714808,0.0,18.1300116694784));
#945=VECTOR('',#978,1000.0);
#946=CARTESIAN_POINT('',(-21.6084638714808,10.2,10.5800116694784));
#947=CARTESIAN_POINT('',(-21.6084638714808,10.2,10.5800116694784));
#948=VECTOR('',#979,1000.0);
#949=CARTESIAN_POINT('',(-21.6084638714808,10.2,18.1300116694784));
#950=VECTOR('',#980,1000.0);
#951=CARTESIAN_POINT('',(-32.6084638714808,9.7,10.5800116694784));
#952=VECTOR('',#981,1000.0);
#953=CARTESIAN_POINT('',(-22.1084638714808,10.2,10.5800116694784));
#954=CARTESIAN_POINT('',(-22.1084638714808,9.7,10.5800116694784));
#955=VECTOR('',#982,1000.0);
#956=CARTESIAN_POINT('',(-33.1084638714808,10.2,10.5800116694784));
#957=VECTOR('',#983,1000.0);
#958=CARTESIAN_POINT('',(-33.1084638714808,0.0,10.5800116694784));
#959=VECTOR('',#984,1000.0);
#960=CARTESIAN_POINT('',(-22.1084638714808,10.2,10.5800116694784));
#961=VECTOR('',#985,1000.0);
#962=DIRECTION('',(0.0,0.0,1.0));
#963=DIRECTION('',(1.0,0.0,0.0));
#964=DIRECTION('',(-0.0,-0.0,-1.0));
#965=DIRECTION('',(-1.0,-0.0,-0.0));
#966=DIRECTION('',(1.0,0.0,0.0));
#967=DIRECTION('',(0.0,0.0,1.0));
#968=DIRECTION('',(-1.0,-0.0,-0.0));
#969=DIRECTION('',(-0.0,-0.0,1.0));
#970=DIRECTION('',(-0.0,-0.0,1.0));
#971=DIRECTION('',(-0.0,-1.0,-0.0));
#972=DIRECTION('',(-0.0,-1.0,-0.0));
#973=DIRECTION('',(-0.0,1.0,-0.0));
#974=DIRECTION('',(1.0,0.0,0.0));
#975=DIRECTION('',(-0.0,-1.0,-0.0));
#976=DIRECTION('',(1.0,0.0,0.0));
#977=DIRECTION('',(-0.0,1.0,-0.0));
#978=DIRECTION('',(0.0,0.0,-1.0));
#979=DIRECTION('',(-0.0,-1.0,-0.0));
#980=DIRECTION('',(0.0,0.0,-1.0));
#981=DIRECTION('',(-0.0,1.0,-0.0));
#982=DIRECTION('',(-0.0,1.0,-0.0));
#983=DIRECTION('',(-1.0,-0.0,-0.0));
#984=DIRECTION('',(-1.0,-0.0,-0.0));
#985=DIRECTION('',(-0.0,-0.0,-1.0));
#986=PRESENTATION_LAYER_ASSIGNMENT('-1','NONE',(#43,#45,#47,#49,#51,#53,#55,#57,#59,#61,#63,#65,#67,#69,#71,#73,#75,#77,#79));
ENDSEC;
END-ISO-10303-21;
